<?xml version="1.0" standalone="no"?>
<!DOCTYPE svg PUBLIC "-//W3C//DTD SVG 1.1//EN" "http://www.w3.org/Graphics/SVG/1.1/DTD/svg11.dtd" >
<svg xmlns="http://www.w3.org/2000/svg">
<metadata></metadata>
<defs>
<font id="tombotsregular" horiz-adv-x="2048" >
<font-face units-per-em="2048" ascent="1638" descent="-410" />
<missing-glyph horiz-adv-x="1024" />
<glyph horiz-adv-x="0" />
<glyph unicode="&#xd;" horiz-adv-x="1024" />
<glyph unicode=" "  horiz-adv-x="1024" />
<glyph unicode="&#x09;" horiz-adv-x="1024" />
<glyph unicode="&#xa0;" horiz-adv-x="1024" />
<glyph unicode="A" horiz-adv-x="1187" d="M1153 1528q0 -45 -51 -62q-66 -23 -66 -24q-68 -78 -196 -266q125 -59 188 -199q49 -109 49 -232q0 -96 -24 -423q-2 -10 -27 -25q12 -115 -16 -145q-37 -45 -80 -58q-147 -49 -312 -49q-178 0 -315 14q-47 4 -74.5 43t-40.5 154q-25 8 -77 35q-16 10 -25 47 q-31 147 -31 291q0 221 68 342q72 133 258 215q-10 68 -44 160t-46 92q-6 0 -13.5 -3t-15.5 -3q-72 0 -72 81q0 45 32 69t77 24q104 0 104 -93q0 -49 -51 -67q20 -57 74 -246q121 23 176 23q96 0 186 -41q61 90 183 272q4 6 0 14q-23 59 -8 101q18 49 73 49q35 0 76 -28.5 t41 -61.5zM1106 1528q-6 16 -29.5 29.5t-36.5 13.5q-18 0 -26 -6q-25 -18 0 -49q10 -14 28 -15q8 0 37 10.5t27 16.5zM346 1509q2 10 0 19q-6 27 -47 26q-47 0 -57 -24q-8 -18 0 -33q8 -12 37 -12q61 -1 67 24zM1008 745q0 29 -8.5 84.5t-53.5 149.5q-68 133 -147 133 q-8 0 -23 -16q-6 -8 -14 -19q-6 6 -10 19q0 2 3 12t3 16q-90 35 -162 35q-115 0 -150 -18q-8 -8 -24 -17q-59 -6 -135 -57t-107 -106q-66 -117 -65 -334q0 -238 24 -301q6 -18 37 -21h45q51 -6 133 -20q35 -6 117 -6q334 0 510 81q27 414 27 385zM961 199v77h-21 q-211 -57 -453 -57q-98 0 -131 8q-43 10 -114 23q14 -43 31.5 -86t64.5 -43q6 0 137 -3t137 -3q102 0 205 22q121 25 144 62zM817 559q0 -27 -24.5 -52.5t-44.5 -25.5q-59 0 -60 72q0 18 17 47q20 37 51 37q25 0 43 -29t18 -49zM584 547q0 -43 -37 -43q-27 0 -27 37 q0 45 33 45q31 0 31 -39z" />
<glyph unicode="B" horiz-adv-x="1220" d="M1174 219q0 -35 -37 -35q-20 0 -56.5 48.5t-54.5 48.5q-16 0 -35.5 -14.5t-19.5 -30.5q0 2 55 -78q18 -27 18 -45q0 -16 -14 -25.5t-22 -9.5q-10 0 -84 106q-188 -74 -383 -73q-57 0 -144 10q-8 2 -36.5 14t-34.5 12q-31 0 -44.5 -59t-37.5 -59q-35 0 -35 39q0 18 43 118 q-6 2 -23.5 11.5t-25.5 9.5q-4 0 -53.5 -43t-59.5 -43q-33 0 -33 29t64 77q51 37 65 41q-33 106 -36 172q-6 104 -7 293q0 473 232 535q-2 37 -19 98q-16 10 -44.5 29.5t-28.5 56.5q0 33 24.5 56.5t48.5 23.5q16 0 44 -20.5t32 -47.5q0 -2 -14 -53q-14 -57 14 -131 q51 12 137 29q47 2 144 16v100q-59 31 -60 84q0 33 32 57.5t63 24.5q72 0 71 -84q0 -31 -17.5 -43t-33.5 -22q-6 -41 -12 -94v-37q119 -12 176 -97q45 -66 61 -190q6 -106 15 -213q31 -377 16 -457q18 -6 57 -26q27 -23 60 -61t33 -48zM756 1507q6 16 0 25q-8 8 -27 0 q-18 -10 -16 -25q0 -8 6 -12q8 -8 24 0q9 4 13 12zM369 1436q8 4 8 18q0 12 -10 19q-12 6 -21.5 -3.5t-3.5 -21.5q9 -20 27 -12zM958 561v35q0 20 -10 172q-10 176 -22 268q-10 74 -56 146q-37 59 -114 59q-18 0 -27 -16h-12q-27 39 -45 39q-74 0 -236 -45q-23 -31 -30 -31 q-6 0 -14.5 8t-14.5 8q-45 0 -84 -59q-90 -137 -90 -408q0 -2 3 -98t5 -143l-8 -9h47v23q-8 63 -8 88q0 53 20 53q6 0 10 -2t7 -2q4 -41 10 -82q10 -63 35 -63q8 0 17 3t11 3q-12 96 8 117h17q18 -12 26 -52q4 -27 11 -55h67q-25 25 -24 80q0 33 22 33q23 0 37 -45 q6 -31 14 -62q20 0 37 2l17 2q-2 16 -4 35q-4 31 -5 51q0 47 19 48q37 0 53 -121q53 4 64 4q0 8 -3 39.5t-3 50.5q0 49 24 49q29 0 41 -57l8 -66h58q-6 113 28 113q33 0 43 -113h51zM965 408v81h-47q0 -121 2 -65q-2 -57 -33 -57q-35 0 -41 59q0 -4 0 63h-47q8 -31 8 -51 q0 -49 -35 -49q-27 0 -35 37l-10 53q-35 -10 -57 -10q0 -8 6 -34.5t6 -39.5q0 -33 -37 -33q-41 0 -41 97l-53 -6v-19q0 -10 6 -38.5t6 -41.5q0 -25 -20 -30q-10 -2 -27 0q-27 6 -29 41v57q-2 16 -6 31h-53q0 -4 9 -49.5t9 -69.5q0 -47 -28 -47q-35 0 -56 159q-35 -6 -40 -4 q20 -125 20 -98q0 -35 -25 -35q-20 0 -36 53q-10 37 -21 74q-23 -6 -45 -6q-2 -256 311 -256q147 0 256 35q183 58 183 199zM786 866q0 -41 -24.5 -73.5t-63.5 -32.5q-47 0 -77.5 29.5t-30.5 74.5q0 29 18 68q23 47 60 47q45 0 81.5 -36t36.5 -77zM518 823 q0 -31 -31.5 -60.5t-58.5 -29.5q-31 0 -59 43q-27 37 -27 58q0 29 29.5 62.5t62.5 33.5q35 0 62 -43q22 -35 22 -64z" />
<glyph unicode="C" horiz-adv-x="1267" d="M1227 1139l-64 -54q10 -12 11 -22q0 -18 -33 -37q-23 -12 -45 -22q18 -37 18 -43q0 -20 -186 -254q-2 -2 -6 -25q-16 -12 -37 -12q-49 0 -219 67q-20 12 -58 37q39 -207 94 -588q0 -16 15.5 -85.5t15.5 -71.5q0 -10 -8 -17q-20 0 -79 -6l-58 -6q-20 0 -123 10t-115 13 q-20 35 -63 163q0 12 -4 41q-4 6 -85 67.5t-81 82.5q0 10 22 33q-8 6 -15 20t-7 53l24 189q4 31 13 96q4 20 20 20q4 0 8 -4t8 -4t28 18.5t38 23.5t45 20q-4 12 -25 78q-55 4 -67 4q-4 0 -14.5 -3t-14.5 -3q-37 0 -45 256q-4 113 -4 282q10 8 21 8h79q14 31 66 99 q-10 45 41 45q41 0 41 -23q0 -4 -6 -16q-92 -43 -117 -99q12 -10 43 -20q43 -12 51 -14q14 25 45 75q16 16 39 45q2 10 10 27q10 10 37 10q23 0 23 -22q0 -18 -17.5 -30.5t-31.5 -12.5q-4 0 -5 2t-6 2q-16 0 -35.5 -43t-19.5 -59q25 -18 60 -21q18 -2 18 -35v-282 q0 -49 15.5 -102.5t15.5 -51.5q0 -29 -76 -29q-39 0 -64 4q-2 -2 -2 -8q0 -10 25 -47q156 47 184 47q14 0 28.5 -9t31.5 -15q72 -10 229 -64q37 88 139 240q25 29 70 88q-37 37 -37 63q0 8 10 9q10 0 41 -64q27 -2 37 33t21 67h12q2 0 3 -2t1 -8q0 -4 -12.5 -36.5 t-12.5 -37.5q0 4 13 -26q14 27 43 82h14q0 -2 2 -4t2 -11q0 -4 -25.5 -44t-25.5 -44q0 -10 8 -20q16 14 51 47h15l2 -2t2 -8zM1141 1059q-8 25 -31 80q-14 -8 -39 -23q0 -6 4 -20.5t6 -18.5q4 -35 13 -45q22 15 47 27zM483 1567l-10 8q-8 -4 -16 -21h16q10 7 10 13z M365 1585q-27 6 -46 0v-12q8 -8 13 -8q29 8 33 20zM1077 961q0 6 -8 19t-8 17q-6 23 -19 68q-176 -252 -176 -266q0 -10 52 -70q20 29 100 141q59 87 59 91zM897 696q-23 39 -57 111q-4 -4 -13 -4q-16 0 -120.5 30.5t-126.5 43.5q10 -14 14 -41q8 -41 8 -43q51 -25 135 -50 q111 -29 160 -47zM453 950q-25 80 -27 160v262q-31 6 -80 14q0 10 -3 14.5t-42 15.5t-49 11q-6 0 -11 -4t-10 -4q-4 0 -24.5 6.5t-26.5 6.5h-12v-228q0 4 22 -246h13q35 0 100 -2q2 0 12.5 -3t14.5 -3h123zM352 860q-18 31 -18 53q-6 0 -17 2h-16q12 -20 27 -67q12 4 24 12z M690 37v29q0 2 -13 59t-15 78q-10 104 -68 436q-4 23 -35 233q-115 -25 -354 -96q4 -6 35 -28q25 -16 24 -29q0 -4 -9 -57.5t-9 -57.5q0 -127 35 -207q8 -20 47 -49q33 -27 41 -26q4 0 6 2t6 2q25 0 18 -37h11q14 0 28 -10q-14 31 11 51q14 -6 14 -19q0 -8 -5 -20t-5 -17 q16 -4 20 -16q41 53 51 53q6 0 11 -6q2 -2 0 -14q-2 -16 -20.5 -27.5t-35.5 -19.5v-19q63 8 60 8q18 0 18 -14q0 -8 -4 -8q-39 -12 -66 0v-23q76 -25 76 -34q0 -12 -14 -13q-4 0 -29.5 10.5t-32.5 10.5q-4 0 -14 -5t-14 -5q-43 0 -62 8q-4 2 -11 11t-11 9h-6q-2 -2 -7 -2 q-10 0 -63 37q23 -57 70 -170q20 -8 41 -8q-6 0 108.5 0h171.5zM236 717q-20 12 -60 33q-31 -244 -31 -269q0 -4 3.5 -24.5t3.5 -30.5q16 14 45 35q12 86 39 256zM242 428v14q-12 117 -13 95q-16 -59 -16 -84q11 -9 29 -25zM463 178q2 16 0 25q0 8 -12 43q-18 2 -33 16 q-12 -27 -12 -49v-31q37 0 57 -4zM369 276q0 33 -29 48q-53 29 -66 38q-31 29 -77 64q-31 -31 -47 -51q104 -86 106 -88q63 -49 104 -68q9 37 9 57zM371 1223q0 4 -5.5 -8.5t-11.5 -12.5q-10 -2 -16 8q-14 25 4 33q10 4 18 0q11 -8 11 -20zM283 1165q0 -14 -17 -22 q-16 4 -16 22q0 23 14 23q19 0 19 -23z" />
<glyph unicode="D" horiz-adv-x="724" d="M682 115q0 -39 -32 -45.5t-60 -8.5q-51 -18 -148 -26q-82 -6 -166 -15q-37 51 -36 181q0 25 6 34t43 23q-4 29 -13 86q-31 -8 -47 -8q-31 0 -40 21.5t-15 41.5q-10 72 -35 213q-31 170 -26 299q2 63 -13.5 193.5t-15.5 120.5q0 25 39 37q47 14 51 18q-6 45 -22 127 q-12 4 -34 18.5t-22 42.5q0 55 51 56q27 0 41 -37q-6 -16 -10 -49q14 -49 39 -148l84 25q-8 68 -18 117q-10 6 -31 28q-12 23 -12 53q0 47 49 48q25 0 45 -15.5t20 -36.5q0 -4 -24 -53v-33q0 -100 20 -100q4 0 34 6t36 6q23 0 26 -22q18 -123 76 -387q25 -106 66 -281 q57 -221 57 -207q0 -20 -31 -30q-23 -6 -43 -13q8 -27 27 -73q49 0 53 -25q31 -133 31 -182zM322 1507q0 20 -29 21q-14 4 -21 0q-2 -2 -4 -10q0 -8 10.5 -30t16.5 -22q6 2 16.5 17.5t10.5 23.5zM162 1475q0 18 -15 20q-18 4 -18 -22q0 -14 4 -19q6 -2 14 0q15 7 15 21z M588 457v18l-41 127q-10 49 -34 138t-69 270q-14 86 -55 268q-94 -20 -256 -53l29 -324q0 -131 2 -160q2 -6 39 -239q4 -25 37 -117q76 20 223 57q43 3 125 15zM547 313q-14 39 -15 76q-12 -2 -30 -8q23 -43 20 -68h25zM481 301q-2 12 -9 38t-9 38q-10 -6 -27 -4 q8 -25 17 -78q4 0 14 3t14 3zM416 289q-10 27 -19 76q-8 0 -19 -3l-11 -2q4 -8 16 -47q8 -31 18 -30q9 0 15 6zM350 272q-4 20 -8 41q-4 29 8 39h-28q-8 -8 -9 -16q0 18 13 -70q4 0 13 3t11 3zM629 125q-16 98 -25 145h-14q-102 -23 -301 -69q6 -47 20 -131q14 8 133 20 q130 12 187 35zM444 788q0 -35 -26 -34q-12 0 -23.5 13t-11.5 26q0 39 29 38q32 0 32 -43zM305 791q0 -37 -31 -37t-30 45q0 41 26 41q35 0 35 -49z" />
<glyph unicode="E" horiz-adv-x="1744" d="M1661 1292q0 -18 -24.5 -30.5t-45.5 -12.5q-25 0 -80 54q-12 0 -45.5 -25t-33.5 -35q0 -76 67 -76q10 0 37 29t59 29q61 0 62 -39q0 -18 -38 -80t-52.5 -68t-44.5 -6q-23 0 -98.5 16.5t-86.5 26.5q-12 23 -37 64h-30q-25 -45 -56 -45q-12 0 -34.5 4t-32.5 4 q-119 -109 -359 -322q4 -41 25 -116q8 -16 155.5 -78t174.5 -62q10 0 33.5 7.5t37.5 7.5q18 0 33 -23q8 -18 19 -35q16 -6 47 -10q25 37 55 37q12 0 37 -19.5t25 -31.5q0 -35 -11 -41q12 -35 27 -58l24 -4q31 -14 31 -63q0 -37 -39 -37q-2 -14 -2 -47q8 -6 27 -23l2 -8 q0 -25 -20.5 -53.5t-43.5 -28.5q-10 0 -28 8q-8 0 -43 -26q-2 -29 -29 -48.5t-57 -19.5q-14 0 -41 33q-31 4 -90 8q-14 -29 -47 -29q-68 0 -78.5 25t-42.5 25q-33 0 -40 -14.5t-36 -14.5q-39 0 -47 6t-33 39q-25 4 -72 8q-14 -25 -77 -24q-31 0 -43.5 14t-22.5 14 q-35 0 -76 -22.5t-67 -22.5q-37 0 -60 15q-33 68 -61 67q-4 0 -11.5 -4t-11.5 -4q-16 0 -37.5 24.5t-21.5 41.5q0 12 24 34q-8 55 -6 107q-27 18 -26 39q0 82 65 78q35 45 60 65q0 14 10 39q20 6 55 35q51 66 72 147q-33 -14 -96 -53l-39 -39q-29 -27 -39 -27q-12 0 -17 9 q-43 -78 -112 -242q20 -16 20 -27q0 -76 -39 -75q-4 0 -10 -13q-23 -59 -29 -174q0 -6 2 -16v-14v-7q-31 -23 -51 -22q-18 0 -22 22q-4 14 -2 43q4 39 4 35v148q-29 14 -29 24q0 23 45 97q55 90 60 102q119 266 188 266q4 0 8 -4t8 -4q70 27 203 88q8 2 25 45 q-78 -2 -105 53q-20 39 -20 125q0 371 88 404q18 4 51 18q-6 33 -6 49q0 29 26 33q-4 0 52 0q55 0 73 -6q35 -12 35 -51q0 -10 -4 -25h29q72 -2 88 -72q2 -8 8 -127q4 -139 4 -143q0 -23 -14 -186q55 53 108 104q63 63 97 117q0 20 10 61q18 33 70 33q94 0 108 -41 q31 2 37 27q8 39 10 43q27 33 94.5 67.5t108.5 34.5q25 0 77 -50t52 -75zM1593 1307q-55 61 -63 61q2 0 -21 -12h4q18 2 43 -19q19 -16 37 -30zM1581 1163q-51 -53 -80 -53q-18 0 -61 21.5t-50.5 39t-7.5 74.5q0 43 43 70q39 20 78 41q-86 -16 -117 -49q-39 -37 -38 -117 q0 -100 174 -100q28 -1 59 73zM1313 1217h-37v-25h31zM1221 1233q-6 0 -18.5 2t-18.5 2q-33 0 -36 -26.5t-3 -55.5q41 -8 47 -8q20 0 25 35q2 24 4 51zM725 1497q4 12 4 25l-4 12h-92v-37q22 4 92 0zM829 1165q0 190 -14 254l-24 19q-180 0 -211 -15q-53 -25 -54 -331 q0 -84 17 -119q35 -14 194 -15q49 0 70 7q22 42 22 200zM829 868h-38q-18 0 -19 -24q0 -10 4 -29zM1100 465q-23 8 -70 18v-4q0 -20 31 -20q6 0 18.5 3t20.5 3zM1391 256q0 55 -25 98q-29 51 -80 52q-207 0 -207 -164q0 -127 117 -127q74 0 129 32q66 39 66 109zM940 524 q-70 31 -100 49q-55 31 -86 70q-10 -4 -76 -4v-4q0 -33 -21 -33q-31 0 -18 39q-29 14 -29 90q0 35 37 35q6 0 17.5 -4t17.5 -4q8 0 23.5 2t23.5 2v22q0 18 -4 52t-4 53h-8q-23 0 -82 8q-14 -76 -66 -180q-45 -86 -88 -170q43 6 88 -2q-2 29 35 28q86 0 78 -71q16 -2 51 -10 v8q-2 45 49 45q61 0 56 -68q12 0 37.5 -2t37.5 -2v4q0 12 14.5 27.5t16.5 19.5zM717 725q-31 -6 -64 0v-45h60q0 25 4 45zM547 817l-154 -72l4 -10l144 68zM1055 389q-170 6 -365 49q45 -76 45 -145q0 -66 -51 -135q57 0 172 -13.5t172 -13.5q-18 68 -18 113q0 69 45 145z M367 698q-10 6 -31 27q-23 -23 -23 -29t10.5 -17t10.5 -15q13 11 33 34zM666 293q0 61 -52.5 130t-111.5 69q-76 0 -124 -60.5t-48 -138.5q0 -51 26 -94q31 -49 80 -49q230 0 230 143zM301 645l-25 27q-47 -92 -126 -281h14q78 199 137 254zM184 319v25h-51q-8 0 -21.5 -2 t-19.5 -4l-8 -19q80 6 100 0zM139 283q-16 0 -26 4q4 -29 4 -62q0 -29 -2 -75q-4 -53 -4 -76q14 123 28 209zM748 1268q0 -27 -25 -27q-29 0 -29 29t29 28q25 1 25 -30zM645 1272q0 -27 -24 -27q-25 0 -25 27q0 31 25 31q24 0 24 -31zM1305 254q0 -27 -24 -50.5t-48 -23.5 q-27 0 -47.5 22.5t-20.5 47.5q0 31 21.5 54.5t52.5 23.5q66 0 66 -74zM621 633q0 -18 -23 -19q-23 0 -23 21q0 25 23 24q23 1 23 -26zM588 309q0 -84 -78 -84q-41 0 -69.5 29t-28.5 68q0 80 88 79q88 0 88 -92z" />
<glyph unicode="F" horiz-adv-x="1497" d="M1470 821q0 -16 -8 -71q-8 -63 -16 -70q-20 -14 -60 -43q16 -76 17 -139q0 -84 -31 -164q-27 -31 -65 -101q-2 -4 6 -30.5t8 -46.5q0 -12 -2 -23q-6 -33 -68 -59q-51 -25 -102 -33q-70 -12 -275 -12q-111 0 -145.5 5t-95 29.5t-117.5 24.5q-6 0 -47 -17.5t-65.5 -24.5 t-127.5 -7q-70 0 -135 31q-86 39 -86 108q0 61 60.5 145.5t60.5 94.5q0 6 -8 65q-12 70 -16 97q4 25 2 73q-27 27 -70 84q-8 12 -16 64q-8 45 -9 55q0 240 135.5 429.5t342.5 242.5q131 35 294 35q381 0 527 -215q112 -167 112 -527zM1378 918q-31 -18 -101.5 -40t-96.5 -22 q-98 -8 -279 -8h-260q-14 0 -102 14q-94 14 -97 19q-4 4 0 45q4 39 7.5 43t35.5 2q416 -27 383 -27q207 0 367 23q31 4 123 47q-10 51 -25 125q-20 176 -198 266q-133 66 -304 65q-143 0 -202 -12q-104 -20 -244 -102q-76 -47 -145 -156q-53 -88 -72 -156q4 -23 2 -59 q-10 -16 -23 -43q-12 -49 -12 -96q0 -55 23 -76q53 -49 127 -63q51 -8 102 -15q102 -23 154 -24q172 -6 333 -6q125 0 338 22q33 12 97 35q20 4 47 24q22 54 22 175zM1221 168v18q-6 47 -88 104.5t-127 57.5q-78 0 -193 -65q-123 -68 -141 -136q49 -29 88 -28q121 0 250 6 q150 6 211 43zM1311 514q0 4 -3 37t-3 47q-147 -27 -269 -27q-6 0 -236.5 3.5t-236.5 3.5q-31 0 -157 16q-133 18 -160 20v-18q0 -133 114 -311q23 -35 62 -56q33 -12 65 -26q68 -31 66 -31h27q27 100 176 190q139 82 245 82q94 0 166 -65q35 -23 88 -64q56 72 56 199z M375 137q-43 41 -86 87t-66 91q-76 -82 -78 -147q47 -37 123 -37q4 0 48.5 3t58.5 3zM401 965q4 -4 0 -39q-6 -33 -8 -35q-31 6 -74 8q-2 -25 -8 -53q-6 -6 -35 -4t-32 10q2 29 0 63q-25 6 -56 21q-6 4 -2 35q4 29 9 35q25 -4 53 -5q2 31 10 68q4 4 41 0q35 -4 39 -12 q-6 -35 -6 -78q32 -2 69 -14zM625 424q-12 -23 -37 -23q-35 2 -33 43q2 35 33 37q25 2 37 -16t0 -41zM416 508q0 -70 -54 -70q-41 0 -40 51q0 25 15 45.5t40 20.5q39 0 39 -47z" />
<glyph unicode="G" d="M1917 186q0 -111 -207 -110q-61 0 -125 16q-127 31 -135 33q-4 -12 -16 -31q-92 -59 -230 -76q-66 -6 -252 -6q-125 0 -163.5 5.5t-105.5 32t-132 26.5q-6 0 -49 -17q-49 -20 -77 -28t-142 -8q-78 0 -152 32q-96 45 -96 123q0 68 68.5 163t68.5 105q0 6 -15.5 100.5 t-15.5 104.5q0 166 33 246q59 150 193 293q147 158 284 188q61 14 238 17q29 45 80 98q70 72 108 72q92 0 88 -199v-33q25 4 90 33q39 14 99 14q123 0 123 -92q0 -10 -43 -151q10 6 45 6q43 0 75 -19q41 -23 41 -61q0 -8 -19.5 -44t-23.5 -46q-2 -6 0 -17q10 6 19 7 q27 0 45 -43q14 -33 14 -66q0 -23 -9 -51.5t-50 -93t-41 -70.5q0 -33 14 -33q8 0 44 12.5t42 12.5q43 0 66 -37q18 -29 18 -59q0 -6 -11 -41t-13 -54q59 41 98 41q74 0 84 -86q-8 -39 -2 -112q4 -8 31 -37q16 -17 16 -60zM1393 1280q0 16 -9 16q-10 2 -71 0q-41 2 -105 -36 q78 -57 129 -111zM1520 1061q-18 2 -64 4q-33 0 -45 -27q18 -39 43 -104q4 8 41 65q29 45 29 58q0 4 -4 4zM1096 1395q0 16 -7.5 57t-13.5 41q-25 2 -117 -111q55 -16 123 -49q15 42 15 62zM1565 829q0 8 -3 20.5t-3 18.5q-66 -33 -66 -61q0 -8 12.5 -45t14.5 -47 q6 12 26 65q19 41 19 49zM1833 303v23q-6 20 -14 43q-12 35 -31 34q-25 0 -68 -45q35 -16 113 -55zM1642 535q0 10 -14 24q-14 -4 -47 -22.5t-39 -28.5q25 -29 68 -74q4 14 18 54.5t14 46.5zM1815 193q-72 41 -142 81q-106 61 -153 117q0 -27 -35 -82q-45 -70 -51 -82 q45 -8 176 -37q59 -12 100 -12q48 1 105 15zM1440 598q0 102 -43 236.5t-97 205.5q-35 45 -73 72q-20 16 -146 90q-135 84 -264 84q-143 0 -246.5 -63.5t-205.5 -214.5q-115 -172 -115 -310q0 -123 43 -243q31 -86 98.5 -154t145.5 -90q25 -6 86 -39q25 106 190 207 q160 96 283 96q102 0 184 -72q39 -27 98 -69q62 74 62 264zM1339 168v18q-6 53 -98 118t-143 65q-86 0 -215 -74q-137 -76 -158 -152q55 -31 98 -30q137 0 281 6q165 6 235 49zM391 133l-92 92q-51 55 -76 107q-84 -92 -86 -164q53 -43 135 -43q6 0 55.5 4t63.5 4zM737 500 q0 -37 -22 -74q-29 -45 -70 -45q-37 0 -63 49q-23 39 -23 64q0 43 21 79q27 45 69 45q88 1 88 -118zM440 547q0 -29 -16 -53.5t-43 -24.5q-49 0 -49 57q0 27 18.5 50.5t44.5 23.5q45 0 45 -53z" />
<glyph unicode="H" d="M1866 1298q0 -78 -44 -119.5t-116 -35.5q-2 -8 0 -29q4 -25 4 -27q0 -41 -57 -217q-16 -47 -60 -98q-12 -14 -69 -37q-90 -37 -142 -37q-16 0 -34 4q4 -45 4 -86q0 -221 -107 -352q-115 -141 -321 -141q-178 0 -269 63q-111 80 -184 303q-74 -51 -76 -100q0 -29 2 -88 q2 -66 2 -61v-138q0 -82 -168 -82q-115 0 -149 19q-41 25 -41 235q0 115 25 156q12 23 36 39q-6 16 -2 37q51 205 238 205q61 0 121 -19q6 41 26 123q20 70 78 152q72 98 162 157q-10 33 -10 58q0 68 96 67q176 0 176 -57q0 -16 -18 -37q51 -10 141 -43q16 0 43 -6 q47 -25 80 -84q25 -49 47 -96q35 18 61 18q6 0 7.5 -2t7.5 -2q20 0 53 20.5t33 40.5q0 37 -10 115q-14 111 -37 111q-4 0 -4 -2t-7 -2q-47 0 -77 57q-25 45 -25 104q0 29 35 75t55 46q61 0 84 -63q2 20 10 61q2 4 -2 15.5t-4 15.5q0 27 23.5 45t46.5 18q35 0 77 -34.5 t54 -75.5q27 27 45 26q31 0 59.5 -35.5t28.5 -54.5q0 -6 -13.5 -38.5t-17.5 -49.5h54q31 0 43 -18q6 -17 6 -19zM1741 1427q0 2 -11.5 11.5t-19.5 9.5q-10 0 -33 -43q-16 -29 -32 -57q16 -14 32 -15q20 0 41 43q13 24 23 51zM1606 1475q0 8 -11.5 23t-17.5 15t-24.5 -5 t-26.5 -5q-14 -70 -15 -65q0 -43 39 -43q-8 0 21 6q35 70 35 74zM1804 1278q0 8 -6 14q-20 -6 -61 -30q-53 -31 -54 -50q0 -6 3.5 -10t3.5 -6h45q69 0 69 82zM1657 1278q-10 0 -17 6v-16q7 0 17 10zM1583 1337l-20 11l-2 -7l20 -10zM1491 1366q-10 4 -27 18v-24q21 0 27 6z M1671 1143q0 2 -24.5 26.5t-20.5 38.5q-51 0 -49 58q-72 45 -82 45q-6 0 -11 -2t-9 -2q-8 0 -16.5 10t-10.5 10q-6 0 -8 -2t-6 -2q-33 0 -35 52t-21 63q-43 -39 -43 -60q0 -90 99 -139q18 -16 53 -43q29 -8 72 -25q20 -8 20 -24q0 -23 -25 -23q-29 0 -77 27v-16 q27 -104 26 -158q0 -37 -71 -80q-63 -37 -97 -37q-23 0 -30 4q12 -37 32 -106q51 6 101 12q68 12 112 47q20 16 43 66q6 12 41 116q37 119 37 144zM934 1157q-6 16 -64 29q-43 10 -69 10q-25 0 -39 -10q-2 -31 6 -43q61 16 92 16h35q29 -2 39 -2zM1282 588q0 37 -6 84 q-12 96 -90 270q-16 39 -27 53q-23 37 -49 52q-10 12 -29 28q-90 23 -170 23q-184 0 -293 -164q-90 -137 -90 -307q0 -219 166 -389v28q-6 61 -10 180q0 33 125 60q53 2 149 10q16 2 66 12q43 8 49 9q31 0 41 -29q27 -98 41 -236q59 45 96 148q31 88 31 168zM1092 229 q-6 39 -17.5 120t-17.5 122q-27 -2 -66 -10q18 -129 19 -203q0 -25 -23 -25q-27 0 -33 97q0 -6 0 127l-47 -4q0 10 2 -41.5t2 -122.5q0 -61 -30 -62q-23 0 -23 78v144h-39v-209q0 -20 -22 -21q-23 0 -23 111q0 82 4 110q-14 -6 -39 -14v-215q74 -18 170 -18q99 -1 183 36z M465 528q-6 72 0 123q-47 -8 -43 -8q-6 0 -54.5 7t-54.5 7q-76 0 -116 -53q14 4 49 4q90 0 90 -94q0 -18 -6 -35q23 -20 37 -24q43 78 84 77q6 0 9 -2t5 -2zM262 524q0 18 -26 19q-27 0 -52 -19q-4 -31 4 -49q35 0 66 -8q-4 16 2 35.5t6 21.5zM330 131q0 27 -51.5 33 t-51.5 33q0 29 41 30q29 -2 56 -2q-2 20 -15 56q-43 -8 -73 -9q-31 0 -31 31q0 20 43 33q29 6 57 14q0 2 7 12.5t7 16.5q0 10 -14 24.5t-29 14.5q-6 0 -17 -4t-17 -4q-4 0 -23.5 2t-23.5 2q-63 0 -78 -29q-8 -16 -8 -96q0 -98 14 -197q43 -6 88 -6q43 0 108 12q11 13 11 33z M1036 807q0 -66 -61 -66q-45 0 -45 45q0 70 57 70q49 0 49 -49zM842 784q0 -23 -18.5 -42t-37.5 -19q-39 0 -38 47q0 63 49 64q45 -1 45 -50z" />
<glyph unicode="I" horiz-adv-x="1067" d="M1026 262q0 -70 -43 -84q-6 -2 -102 -2l-15 -2l-16 -74q-12 -45 -53 -45q-174 0 -240 -4q-14 0 -47 -6t-53 -6q-57 0 -78 22q-16 16 -31 78q-27 0 -88 -13t-92 -13q-29 0 -51.5 19.5t-22.5 47.5v246q0 158 -26.5 468t-26.5 466q0 100 14 108q39 23 187 48q135 20 196 20 q23 0 66 -8t63 -8q10 0 27.5 3t26.5 3q23 0 65.5 -10.5t63.5 -10.5q8 0 23 2t24 2q90 0 106 -57q6 -68 9 -134.5t10 -199.5q8 -111 61 -428q43 -270 43 -428zM926 276v56q0 10 -25 184l-63 455q-2 25 -33 438l-57 -4q-20 0 -58.5 9t-54.5 9q-115 8 -193 9q-115 0 -301 -31h4 q0 -203 23 -821q4 -123 22 -367q74 14 150 23q-2 35 -27 135q-18 86 -18 133q0 74 201 112q137 25 270 25q25 0 41 -12q25 -20 41 -164q8 -94 16 -189h62zM772 279q-6 90 -31 272h-49q-182 -6 -313 -59q12 -63 33 -252q110 14 360 39zM768 145v25q-61 2 -96 0 q-82 -6 -246 -20v-25q39 -4 59 0q18 6 54 14q47 6 229 6zM715 815q0 -49 -37 -49t-37 45t37 45t37 -41zM526 809q0 -47 -45 -47q-35 0 -35 49q0 55 35 55q16 0 30.5 -20.5t14.5 -36.5z" />
<glyph unicode="J" horiz-adv-x="991" d="M948 246q0 -86 -41 -99q-37 0 -108 -4q-6 -33 -15 -65q-12 -45 -49 -45q-225 0 -258 -7.5t-59 -7.5q-53 0 -69.5 17.5t-31.5 77.5q-20 -2 -91.5 -14.5t-75.5 -12.5q-70 0 -70 64v227q0 268 -23.5 492.5t-23.5 357.5q0 113 15 120t54 19q96 23 113.5 21.5t32.5 5.5 q-70 139 -70 151q0 37 37 37q27 0 62.5 -91t50.5 -91q6 0 36.5 5t36.5 5t43 -6t52 -6q35 0 110 -2q18 43 39 84q35 74 55 73q41 0 41 -36q0 -14 -67 -125q4 -4 16 -13q8 -4 24.5 1t20.5 5q80 0 96 -45q6 -66 13 -133q0 -55 6 -186l49 -371q49 -350 49 -403zM854 240v51 q0 -27 -82 592q-2 23 -31 409l-53 -6q-4 0 -45 9.5t-59 9.5q-45 0 -113 4q-25 2 -68 2q-18 0 -61 -2q-76 -2 -217 -25h4q4 -231 23 -758q6 -125 18 -346q70 12 141 21q-6 43 -24 147q-20 98 -21 101q0 68 174 102q121 27 236 27q55 0 69.5 -14.5t24.5 -97.5t27 -226h57z M717 182q0 -2 -10 183h-56q-51 2 -282 -35v-29q2 31 24 -192q18 -16 41 -17q4 0 25.5 8.5t29.5 10.5q207 6 218 6q0 12 5 36.5t5 28.5zM659 739q0 -45 -34 -45q-35 0 -35 41q0 43 35 43q34 0 34 -39zM635 840q0 -23 -21.5 -38.5t-44.5 -15.5q-39 0 -65 13q-33 25 -113 75 q-20 10 -94 37q-10 8 -10 21q0 37 55 37q96 0 190 -70q2 -2 60 -18q43 -14 43 -41zM483 733q0 -43 -43 -43q-31 0 -30 45q0 51 30 51q20 0 31.5 -21.5t11.5 -31.5z" />
<glyph unicode="K" horiz-adv-x="1486" d="M1411 817q0 -63 -70 -63q-39 0 -61 39q-6 10 2 49q-33 14 -135 30q-90 14 -127 46v-58q0 -152 0 -151q-2 -27 -15.5 -82.5t-13.5 -57.5q0 -4 15.5 -38.5t19.5 -59.5q0 -4 14 -170q2 -23 13 -22q6 0 11 3t13 3q45 0 74 -52q23 -43 23 -94q0 -47 -74 -88q-63 -33 -103 -33 q-37 0 -78.5 30t-41.5 61q0 23 14 76t18 55q20 14 70 36q-2 4 2 35q4 43 4 74q0 66 -20 119q-18 -29 -150 -43q-104 -8 -207 -17q0 -6 -4 -24q-2 -16 0 -27q0 -12 12 -67q10 -45 11 -70q0 -23 -6 -37q20 -12 51 -45q23 -37 22 -72q0 -78 -141 -77q-57 0 -95 31.5t-38 86.5 q0 12 22.5 56.5t38.5 58.5q27 6 78 25q-16 76 -16 108q0 33 10 60q-115 20 -184 127q-63 96 -58 200h-32q-23 0 -37 -14q-25 -35 -97 -105q12 -16 39 -30q16 -8 17 -31q0 -23 -47.5 -52.5t-65.5 -29.5q-20 0 -35 27q-10 18 -10 28q0 33 18.5 59.5t34.5 49.5q20 49 76 139 q14 16 57 27q55 12 68 16q0 227 176 334q-4 31 -6 59q-2 31 10 52q29 31 68 96q2 37 22 98q43 0 64 -14q57 -41 57 -76q0 -20 -28.5 -34.5t-49.5 -14.5q-16 0 -41 12q-4 -14 -12 -41q-23 -33 -47 -100l10 -10q51 33 139 45q8 2 97 4q70 170 159 170q6 0 72 -15q0 10 -2 29 v25q0 63 43 63q74 0 74 -76q0 -29 -20.5 -49t-41.5 -20q-20 0 -39 18q-2 -27 -43 -33q-27 -4 -53 -6q-29 -12 -59.5 -50t-32.5 -64q27 6 49 6q96 0 131 -127q14 -94 27 -189q25 12 39 13q43 0 133 -11q117 -14 145 -34q74 -56 74 -105zM1053 1448v22l-49 7q18 -35 30 -35 q11 0 19 6zM635 1438q-20 20 -35 16q-10 -4 -12 -16q-4 -14 4 -23q18 -25 39 -2q12 17 4 25zM918 797q0 -31 -11 233q-4 76 -16 111q-6 20 -35 22h-43q-29 10 -59 23h-37q-78 0 -168 -51q-96 -55 -146 -140q-8 -14 -8 -90q0 -6 4 -31.5t7 -37.5q2 -63 16 -170 q33 -125 229 -125q-4 0 156 16q25 2 52.5 5t31.5 18q27 72 27 217zM1100 135q0 78 -35 78q-41 0 -109 -33q0 -27 -8 -69q41 -27 53 -27q10 0 51.5 21.5t47.5 29.5zM621 92v21q-6 10 -27 37q-16 20 -16 28q0 14 6 15q-16 8 -37 8q-14 0 -37 -21.5t-23 -40.5q0 -55 64 -55 q6 0 34 4t36 4zM797 797q0 -49 -37 -49q-16 0 -26.5 18t-10.5 31q0 10 12.5 29.5t24.5 19.5q37 0 37 -49zM633 784q-16 -12 -31 -12q-31 0 -31 37t35 37q4 0 27 -21v-41z" />
<glyph unicode="L" horiz-adv-x="1415" d="M1358 553q0 -199 -103 -274q-82 -61 -305 -84q-33 -4 -133 -80q-57 -43 -108 -54q-27 -6 -99 -6q-98 0 -147 8q-72 10 -232 89q-207 100 -206 182v524q0 45 31.5 113.5t66.5 81.5q61 23 158.5 28.5t197.5 12.5q-2 35 -14 98q-16 41 -68 96q-49 49 -63 49q-6 0 -20.5 -6 t-24.5 -6q-80 0 -80 96q0 45 32.5 74t67.5 29q63 0 84 -54q6 -14 0 -90q139 -129 139 -243q0 -23 -2 -50q33 0 106 -3t75 -3q74 0 108 13q4 20 -31 137q-39 133 -77 133q-8 0 -19.5 -7t-19.5 -7q-27 0 -62 29.5t-35 58.5t25 60.5t62 31.5q63 0 90 -53q12 -25 4 -58 q59 -43 92 -131q29 -74 29 -149q0 -31 -7 -52q57 2 152 -4q188 -14 241.5 -104t65.5 -164q29 -151 29 -262zM682 1466q-10 4 -20 0q-18 -10 -17 -30q4 -23 31 -21q14 0 18 23q2 20 -12 28zM332 1423q0 37 -29 37q-35 0 -35 -43q20 -41 31 -41q33 0 33 47zM1280 498v118 q0 20 -10 93q-14 88 -31 133q-35 96 -76 121q-20 12 -80 26q-68 14 -116 15q-8 0 -141.5 -6.5t-141.5 -6.5t-133 6.5t-133 6.5q-170 0 -223 -15q-63 -20 -78 -88q-10 -45 -11 -223q0 -221 15 -256q8 -23 321 -25q156 0 402 50.5t299 50.5q6 0 51 -3t66 -6zM1210 387h-131 q10 0 -231 -43q-254 -47 -391 -51q-14 0 -267 16q160 -82 234 -108q90 -31 190 -31q63 0 101 14q12 6 88 62q70 49 110 57q158 27 185 33q102 24 112 51zM1018 606q0 -39 -32 -64.5t-60 -25.5q-100 0 -101 96q0 37 23.5 70t66.5 33q51 0 80 -39q23 -33 23 -70zM696 590 q0 -35 -32 -74q-37 -45 -76 -45q-49 0 -88 51q-33 45 -33 90q0 90 70 90q37 0 92 -26q67 -35 67 -86z" />
<glyph unicode="M" horiz-adv-x="520" d="M471 557q0 -57 -63 -57q-16 0 -35 26q-6 -27 -13 -53q-12 -33 -41 -31q18 -96 62 -288q4 0 10 2t12 2q39 0 39 -62q0 -72 -75 -71q-47 0 -48 69v23q2 2 10.5 10t8.5 12t-64 285q-8 -2 -18 3t-18 5v-188q4 -84 4 -117l17 -2t22 -16q12 -43 12 -60q0 -23 -24.5 -35 t-49.5 -12q-63 0 -63 61q0 41 41 54v311q-14 2 -37 14q-6 27 -21 84q0 -37 -61 -37q-53 0 -53 66q0 18 12 26.5t24 18.5q-4 18 -4 39q0 49 23 123q16 55 33 108q10 23 30 64q2 12 11 35q10 16 30 20q29 4 35 8q-2 47 -8 140q-39 6 -111 34q-20 12 -26 46q-10 66 -11 139 q0 37 15 217q2 20 16 33q25 25 101 24q100 0 131 -43q27 -35 26 -131q0 -133 -26 -278q-6 -6 -19 -25q-2 0 -28 -10h-15q-8 0 -8 -4q0 -94 18 -146q29 -10 66 -45q49 -139 74 -225q4 -29 18 -90q12 -8 31 -25q8 -14 8 -51zM297 1511q0 72 -123 72q-6 0 -24.5 -8t-18.5 -12 q-4 -53 -10 -133q-6 -70 -6 -72q0 -88 12 -139q2 -6 27.5 -16.5t35.5 -10.5q86 0 95 14q2 2 8 166q4 84 4 139zM389 633q0 4 -7 34.5t-9 41.5l4 -93q12 13 12 17zM434 543q14 31 -4 53q-4 6 -16 0q-12 -4 -13 -25q0 -29 9 -32q18 -10 24 4zM319 584q0 82 -16 268 q-8 35 -18 98h-72q-8 0 -18 -6q-16 -47 -17 -211q0 -141 19 -252h45q-18 2 69 17q8 55 8 86zM131 582v14q-2 18 -2 53q-2 47 -2 123q-27 -90 -23 -160q23 -14 27 -30zM100 543q2 4 9 16q0 18 -15 29q-14 6 -24.5 -13.5t-10.5 -31.5q0 -6 9.5 -15.5t15.5 -9.5zM401 74 q23 31 -2 45q-4 2 -16 2q-14 0 -23 -15q-20 -35 9 -45q18 -5 32 13zM256 51q4 14 -7 27.5t-30 9.5q-16 -4 -22 -18t0 -23q4 -6 24 -8q29 0 35 12zM266 1350q0 -20 -20 -21q-10 0 -17 12q-4 10 0 17q6 12 17 12q20 0 20 -20zM205 1321q0 -20 -21 -21q-16 0 -18 23q0 25 18 25 q21 0 21 -27z" />
<glyph unicode="N" horiz-adv-x="1556" d="M1516 1122q0 -39 -38 -59.5t-81 -20.5q-33 0 -102.5 27t-67.5 27q-127 0 -226 -39q172 -96 173 -639q0 -147 -22 -200.5t-87 -63.5q-31 -6 -191 -7q-6 0 -48 3.5t-50 3.5q-25 -27 -39 -41q-47 -41 -82 -45q-57 -8 -258 -9q-174 0 -224 22.5t-54 27.5q-35 20 -39 49 q-18 137 -19 252q0 76 13 110q12 29 67 60q4 35 13 104q8 121 45 203q33 72 137 149q98 74 166 84l24 15q6 27 6 77q-2 70 0 78q4 74 35 109q63 72 211 63q45 106 111 107q41 0 83 -34t42 -65q0 -55 -72 -94q-57 -33 -106 -33q-31 0 -47.5 27t-40.5 27q-84 0 -114 -22.5 t-36 -82.5q-6 -72 -12 -145q25 0 75 4l50 4q33 0 219 -53q2 0 26 14q49 29 113 41q51 0 148 17q14 18 47 49q20 14 65 14q68 0 121 -25q66 -33 66 -90zM1444 1120q-2 10 -43 34t-53 24q-10 0 -52 -21q45 -45 101 -45q8 0 25.5 4t21.5 4zM954 1466q-51 25 -71 25 q-14 0 -27.5 -15.5t-13.5 -29.5v-31h26q8 0 44 19.5t42 31.5zM1079 305v250q0 25 -24 156q-25 139 -39 176q-31 86 -84 102q-12 -25 -29 -24q-27 0 -26 30v35q-180 35 -170 35q-174 0 -306 -84q-164 -106 -172 -303q0 -12 -7 -39t-7 -33v-31q115 -29 338 -98q39 -25 100 -61 q33 -14 66 -31q45 -27 49 -59.5t8 -66.5t27 -34q156 0 256 31q20 6 20 49zM889 653q0 -74 -49 -73q-45 0 -45 79q0 80 45 80q49 0 49 -86zM676 696q0 -92 -49 -92q-51 0 -52 76q0 33 9 65q14 47 37 48q55 -1 55 -97z" />
<glyph unicode="O" horiz-adv-x="2369" d="M2343 694q0 -102 -14 -250q-4 -47 -7 -94q-10 -66 -53 -86q-55 -29 -180 -49q-96 -16 -133 -16q-82 0 -115 71q-18 68 -37.5 136.5t-79.5 68.5q-53 0 -172 -127q-143 -154 -172 -172q-55 -37 -260 -102q-221 -70 -309 -70q-80 0 -227 53q-174 63 -232 74q-10 2 -99 56.5 t-130 111.5q-29 25 -76 82q-2 4 -2 59q0 82 44 143.5t44 69.5q0 10 -33 56q-39 49 -45 63q-10 27 -10 66q0 51 64 311q8 33 68.5 106.5t117.5 115.5t131 44q84 2 111 17q143 72 186 88q94 35 199 34q250 0 399 -63q184 -80 293 -279q25 -29 78 -96h22q25 156 51 309 q49 174 228 174q100 0 194 -22q109 -25 117 -61q16 -66 23 -216l8 -270q8 -262 8 -336zM2175 702q0 -31 -18 347v387q-14 -6 -68 -2l-80 4q-39 0 -55 -4q-37 -57 -58 -191q-23 -170 -32 -203q-29 -92 -99 -92q-37 0 -90 10q-66 10 -82 26.5t-159 221.5q-102 145 -198.5 175 t-227.5 30q-145 0 -236 -27q-113 -39 -225 -77q-252 -78 -295 -193q-20 -57 -43 -153q-23 -88 -23 -107q0 -16 45 -81.5t58 -65.5q12 0 29.5 85t64.5 85t59 -74l4 -94h78q2 45 6 92q14 84 68 84q57 0 70 -84q2 -14 2 -101q78 2 102 -10q6 53 12 107q8 63 50 106h26 q41 -39 51 -112q4 -20 9 -109h77q8 51 19 104q25 90 67 91q49 0 58 -99q0 -51 2 -104q27 -6 51 -12q37 -12 37 -44q0 -35 -27.5 -45t-52.5 -20q4 -23 4 -49q0 -109 -72 -109q-37 0 -58 35t-21 70q0 12 2 18h-86q2 -14 2 -31q0 -111 -80 -110q-59 0 -74 57q-6 23 -2 103 q-20 0 -51 4t-37 4q8 -123 -76 -123q-82 0 -82 94q0 18 4 39q-41 -4 -94 8q0 -39 -21.5 -63.5t-52.5 -24.5q-74 0 -63 98h-41q-8 -16 -39 -61q-27 -37 -27 -45q0 -16 38 -62.5t73 -68.5q45 -31 125 -51q98 -27 115 -35q203 -86 342 -86q57 0 249 67q53 12 127 43 q102 96 218 230q78 90 120 112q57 29 185 29q88 0 139 -88q18 -35 63 -178q82 20 174 37q21 151 21 286zM928 1055q0 -35 -28 -61.5t-58 -26.5q-37 0 -58 30q-18 23 -18 45q0 35 23.5 64t56.5 29q35 0 58.5 -26.5t23.5 -53.5zM641 1028q0 -33 -21.5 -60.5t-54.5 -27.5 q-66 0 -65 88q0 90 65 90q33 0 58 -39q18 -28 18 -51z" />
<glyph unicode="P" horiz-adv-x="2215" d="M2193 434q0 -236 -239 -340q-160 -68 -379 -67q41 0 -752 82q-55 6 -224 9t-265 13q-295 37 -295 365q0 285 262 581q233 266 496 361q14 4 147 73q88 45 160 45q700 0 973 -759q35 -84 69 -168q47 -121 47 -195zM2021 426q0 78 -32 160q-33 76 -68 151 q-131 334 -301 482q-199 174 -526 174q-150 0 -365 -131q-225 -137 -375 -332q-170 -223 -170 -441q0 -213 224 -213q10 0 63 4.5t61 4.5q168 0 583 -47.5t427 -47.5q479 0 479 236zM1362 920q0 -338 -15.5 -384.5t-66.5 -46.5q-90 0 -90 191q0 162 27 485q2 18 27.5 37 t43.5 19q76 0 76 -201q0 -29 -2 -64v-36zM913 967q0 -485 -90 -486q-33 0 -52 29t-19 61q0 12 8 285q4 109 8 143q20 119 82 119q51 0 61 -63q2 -12 2 -88z" />
<glyph unicode="Q" horiz-adv-x="1746" d="M1694 518q0 -45 -39 -141q-43 -106 -76 -117q-10 -55 -35 -102q-35 -61 -76 -62q-84 0 -84 51q0 20 41 67l41 48q-2 2 -10 2q-53 0 -97 -46t-52 -46q-31 0 -70 98q0 55 78 92q66 33 125 33q35 0 78 -24q2 6 2 35q0 20 18 51.5t18 42.5q0 61 -33.5 122.5t-88.5 77.5 q4 -8 4 -16q0 -37 -47 -113q-37 -53 -72 -108q-55 -106 -115 -123q-160 -41 -487 -41q-74 0 -103 12q-51 18 -145 136t-104 174q-12 66 -13 219v0q-2 4 -10 4q-35 0 -102 -66q-59 -57 -78 -94t-19 -213q33 -18 33 -68q33 -23 47 -67q10 -37 23 -37q8 0 25.5 5t25.5 5 q45 0 108.5 -42t63.5 -85q0 -31 -35 -56.5t-65 -25.5q-18 0 -35 27q-8 20 -19 39l-4 -2q2 -16 24.5 -63.5t22.5 -55.5q0 -16 -24.5 -35.5t-38.5 -19.5q-70 0 -100 192q-14 20 -39 60q-20 0 -35 22q-18 31 -23 35q-16 8 -43 33q-4 4 -4 76q0 18 -14 48.5t-19 43.5 q-10 49 -10 141q0 125 168 274q29 27 84 39q76 16 92 25q10 201 43 268q14 27 170 209l58 74q39 49 67 57q53 18 172 19h178q57 0 78 -17q33 -53 94 -137q51 -55 105 -111q61 -66 80.5 -125t23.5 -145q2 -74 2 -147l2 -66h8.5h8.5q111 0 186 -121q66 -104 66 -219zM1624 532 q0 207 -199 295q6 -29 7 -75q61 -12 111 -82t50 -142q0 -20 -4 -41l27 -6q8 24 8 51zM1622 385q2 16 0 25q-8 37 -29 36q-16 0 -30 -30l6 2q12 0 28.5 -14.5t24.5 -18.5zM1587 340q0 35 -24 35q2 0 -27 -15q16 -18 29 -61q22 23 22 41zM1354 686q0 344 -33 500 q-2 10 -174 225q-23 35 -47 70q-35 53 -47 53q-27 0 -79 -7t-77 -7q-14 0 -43 2t-43 2q-66 0 -96 -19q-14 -8 -132 -151.5t-126 -161.5q-27 -61 -27 -242q0 -315 37 -370q18 -29 82.5 -103t85 -87t61.5 -13q55 0 258 18q217 18 233.5 29.5t59.5 79.5q107 166 107 182z M1526 252l-17 6q-25 -53 -69 -104l35 -7q20 33 51 105zM1495 305q-4 6 -31.5 17.5t-38.5 11.5q-31 0 -74.5 -16.5t-58.5 -38.5q12 -18 13 -31q63 66 131 65q30 0 59 -8zM350 909v23l-41 -21l-33 -18zM258 887q-59 -14 -127 -98t-68 -148q0 -53 21 -164l31 17q-31 76 -31 92 q0 104 45 174q33 51 129 127zM414 180q-63 68 -97 68h-41q2 0 15 -6q59 -33 90 -90q13 5 33 28zM135 406q0 18 -24 30q-23 -45 -23 -65q0 -14 8 -27q19 11 39 62zM180 338q0 12 -6 22l-35 -53q0 -14 19 -12q22 20 22 43zM209 289q-18 -12 -19 -25q0 -14 15 -20q0 8 2 22.5 t2 22.5zM311 47q-49 76 -51 150q-12 -6 -29 -11q29 -104 68 -147zM1130 723q0 -84 -75 -84q-43 0 -49 33q-33 131 -33 405q0 127 65 127q45 0 56 -43q36 -157 36 -438zM825 698q0 -70 -47 -69q-10 0 -30.5 10t-23.5 20.5t-11 149.5q-6 90 -17 270q0 10 -6 29.5t-6 32.5 q0 78 78 78q37 0 41 -76q-2 35 -2 -107q0 -57 12 -170t12 -168zM1004 502q0 -31 -44.5 -53.5t-78.5 -22.5q-18 0 -39 14.5t-21 34.5q0 33 35 73t68 40q25 0 52.5 -30.5t27.5 -55.5z" />
<glyph unicode="R" horiz-adv-x="868" d="M813 106q0 -25 -17.5 -45t-43.5 -20q-33 0 -60.5 11t-56.5 26q-12 2 -27 6q-20 6 -30 22q-4 8 -46 146q-33 109 -81 205q-8 -23 -17 -66q-14 -61 -43 -190q-2 -41 -12 -121q0 -4 -36 -20.5t-69 -32.5q-39 -16 -73 -17q-35 0 -57.5 25.5t-22.5 52.5q0 51 61 70q16 0 47 2 q37 39 56 90q12 25 26 78q33 272 33 348q0 68 -30.5 167t-53.5 111l-12 25t-25 25q-16 0 -54 -53.5t-38 -61.5q0 -37 14 -78q10 -31 11 -70q0 -29 2 -55q-2 -39 -2 -117q4 -2 14 -12q18 -31 27 -68q6 -23 6 -26q0 -43 -78 -43q-47 0 -47 61q0 35 14 58.5t14 19.5q0 4 -10 35 t-12 41q-27 119 -27 184q0 45 15 101q18 68 37 94q35 47 38 53q25 27 60 51q8 0 26 2q4 0 17 8q-8 12 -19 103q-6 72 -6 90q0 53 17 123q20 84 47 90q14 4 45 4q29 61 80 57q4 0 4 -8q0 -12 -33 -47q18 -18 39 -18q88 57 92 57q20 0 21 -25q0 -2 -5 -14q-70 -41 -69 -45 q0 6 12 -18q14 -31 14 -62t-14 -93t-29 -79q2 -70 3 -65q-4 -43 -31 -74q49 -20 96 -39q68 -33 88 -78q8 -10 25 -31q20 -35 57 -104q12 -43 43 -129q12 -8 31 -27q6 -8 24 -57q20 -57 21 -78q0 -25 -24.5 -42t-43.5 -17q-25 0 -35 16q-14 25 -18 84q-6 70 -12 90 q-90 330 -187 330q-10 0 -10 -16q0 23 25 -95q2 -29 12 -94q8 -35 27 -121q14 -45 38 -133q92 -373 111 -373q2 0 12 3h13q37 0 69.5 -24t32.5 -63zM414 1227q-33 -20 -62 -21q-41 0 -86 25q2 -27 8 -76q4 -10 33 -19.5t43 -9.5q35 0 51 43q1 1 13 58zM387 1174 q-12 -14 -22 0q-8 14 0 22t22 -2q10 -8 0 -20zM346 1194q10 -14 -2 -27q-12 -10 -20 0q-2 2 -2 13q0 12 2 14q16 10 22 0z" />
<glyph unicode="S" horiz-adv-x="1019" d="M967 371q0 -106 -138 -135q-4 -2 -21 -9.5t-22 -7.5q10 0 -20 10q-10 2 -86 54q-10 2 -25 8q-98 70 -161 106q-74 43 -93 56q-20 -31 -63 -131q-41 -92 -41 -99q0 -2 42 -40t48 -50q14 -25 14 -51q0 -47 -43 -47q-10 0 -30.5 3t-28.5 3q-109 0 -129 37q-6 8 -6 53 q0 31 14 78q29 92 51 229q16 117 35 232q-2 -10 -8 16q-2 14 0 27q10 72 10 92q-12 -18 -39 -49q25 -61 -8 -82q-6 -4 -37 -6q-31 -43 -57 -43q-31 0 -59.5 24.5t-28.5 48.5q0 27 23.5 73t43.5 63q-16 119 222 358q4 6 30 20q-12 8 -37 43q-10 25 -10 103q0 193 53 244 q10 8 74 8q66 0 131 -15q16 -4 33 -24q18 -2 41 -23q10 -33 10 -94q0 -74 -20 -172q-8 -35 -21 -52l-12 -16q0 -2 8 -14q10 -41 25 -121q14 -213 14 -235q0 -6 -10 -37q-4 6 -4 -2q0 -4 10 -37t10 -37q0 -47 -12 -63q-16 -23 -64 -23q-41 0 -67 17q-6 -8 -23 -21 q53 -41 133 -129q123 -131 142 -150q29 39 57 78q27 33 68 33q82 0 82 -102zM596 1452q0 70 -10.5 87t-48.5 17q-6 0 -25 -2h-33q-43 0 -86 5q-31 -25 -31 -197q0 -39 9 -86q49 -35 137 -35q23 0 43 6q6 4 12 10q33 80 33 195zM612 852q0 6 -5 22.5t-5 22.5q-12 129 -12 184 q-23 -104 -64 -303q16 2 51 31t35 43zM575 1196q-41 -8 -65 -8q-29 0 -115 14q41 -23 41 -80q0 -41 -63 -147q-33 -55 -66 -109q-4 -29 -4 -149q0 -23 33 -23q-66 2 53 2q41 0 64 -18q12 113 53 262q67 250 69 256zM608 735q0 4 -2 19.5t-2 23.5q-35 -37 -67 -37q-4 0 -11 2 l-6 2q-4 -23 -8 -40q8 -6 18 -13q63 -6 48 -6q30 0 30 49zM379 1122q0 23 -14 31q-8 2 -25 8q-20 -43 -66 -100q-121 -162 -120 -207q23 -49 45 -49q8 0 94 145t86 172zM922 377q0 53 -39 53q-47 0 -119 -149q16 -8 20 -9q4 0 20.5 6.5t22.5 6.5q41 8 68 34.5t27 57.5z M743 313v13l-108 108q-14 10 -37 27q-57 68 -141 178q-41 8 -72 8q-47 0 -94 -6q-2 -14 -39 -324q-2 -10 -10.5 -38.5t-8.5 -30.5v-19q20 4 33 2q8 20 49 128t41 114q0 2 -41 98q0 14 17 15q10 0 41 -39q39 -45 51 -53q29 -20 84 -48q63 -31 82 -40q70 -45 147 -101z M197 717q-8 25 -32 46t-46 42q-39 -96 -39 -113q33 -25 41 -24q8 0 20.5 22.5t32.5 22.5q6 0 12 -2l7 -2q0 4 4 8zM352 90q0 23 -38 61.5t-66 38.5q-29 0 -33 -12v-33q0 -37 10 -45q29 -20 92 -20q-12 0 23 -6q12 -2 12 16zM535 1395q0 -23 -19 -23q-25 0 -24 27q0 20 20 20 q23 1 23 -24zM459 1393q0 -33 -23 -33q-25 0 -24 31q0 33 22 32q25 1 25 -30z" />
<glyph unicode="T" horiz-adv-x="1355" d="M1255 115q0 -25 -48 -46.5t-77 -21.5t-82 13.5t-77 13.5q-23 0 -43.5 -13.5t-28.5 -15.5q-29 -8 -127 -8q-90 0 -90 51q0 37 37 74t74 41q-47 217 -84 590q-53 27 -54 53q0 4 2 24.5t2 36.5v285l-172 -313v-25h5q76 2 75 -51q0 -41 -94 -27q2 -12 2 -14q-12 -55 -74 -55 q-25 0 -39 32q-23 -49 -67 -49q-41 0 -55 25h-7q-23 0 -43 17.5t-20 39.5q0 23 16 51l-4 6q-10 -20 -51 -20q-94 0 -94 51q0 25 21.5 44.5t45.5 19.5q2 0 26 -6.5t28 -6.5q0 14 -2 42t-2 42q0 115 34 150q25 23 138 51l-2 18q-2 29 22.5 50.5t24.5 35.5q0 29 -12.5 33 t-16.5 21q2 10 35 24q12 -2 18 -24q-6 -16 -12 -25q12 -14 12 -29q0 -16 -21.5 -43.5t-21.5 -46.5q0 -14 4 -16q4 -4 15 0q12 2 18 2q29 0 68 -49q53 117 108 233q90 184 131 166q10 23 37 47q33 -20 43 -20q12 0 25.5 13t34.5 13l61 -16q47 20 84 21q35 0 39 -41h12 q37 2 37 -17q0 -4 -2 -10q27 -6 54.5 -14.5t33.5 -42.5q47 -59 47 -125q0 -25 8 -68q8 -51 11 -67q16 -186 12 -322l8 -8q4 -31 4 -76q0 -180 -24 -231q-61 -41 -78 -37q0 -51 -8.5 -148.5t-8.5 -148.5q129 -33 129 -133zM1206 893v27q0 94 -12 243q-14 178 -33 246 q-6 23 -31.5 52.5t-46.5 29.5q-10 0 -20 -6q37 -420 37 -541q0 -31 -2 -39q2 -10 10 -31q32 7 98 19zM1073 852v22q0 8 -6 29t-6 31q-8 141 -29 422q-12 139 -12 121q0 14 16 43l-18 -2q-35 0 -35 34q-10 -6 -31 -12l-22 10l-41 -14q-8 -2 -31 14q-23 0 -39 -18.5t-26 -18.5 q-25 0 -56 33l-4 -6v-12q10 -8 21.5 -44t11.5 -50q0 -39 -35 -103.5t-35 -103.5q0 -70 2 -189q4 -143 4 -190v-6q135 -10 160 -11q106 0 191 27zM1208 852q-31 -10 -88 -16l-16 6q-8 -25 -8 -35q0 -14 22 -21q2 27 21 27q20 0 14 -18l-14 -43l10 -158h22q25 0 33 121 q2 69 4 137zM717 1432q0 43 -29 65q-57 -70 -117 -197q-45 -106 -90 -213l11 -94q33 49 124 224q101 190 101 215zM375 1350q-4 8 -13 12q-6 -6 0 -12q7 -8 13 0zM1063 805q-61 -27 -197 -27q-23 0 -59 4q-47 6 -62 6q20 -115 60 -342q2 -47 16 -143q-6 -25 -6 -24 q0 -29 19 -84q20 -14 32 -15q10 0 39 4q20 4 41 0q-2 16 -2 176l-8 5q6 31 6 59q0 31 -4 80q-8 63 -8 82l-10 22q-29 10 -35 23q8 8 20 12l27 -6l63 6l2 -12q-8 -6 -22 -17q0 -4 -2 -18t-2 -21q0 -33 10 -99t10 -99q0 -18 -6 -52t-6 -51q0 -20 6 -51q6 -43 6 -53 q57 57 103 70q-6 27 -7 65q0 59 7.5 179t7.5 180q0 57 -2 73.5t-21.5 28.5t-19.5 25q0 6 4 14zM352 1153l-8 -10l-16 16q-88 -29 -107 -47q-23 -25 -22 -111q0 -117 20 -143q27 -37 135 -37q53 0 68.5 15.5t15.5 64.5q0 172 -24 215q-10 16 -29 25q-29 10 -33 12zM526 807 q-20 14 -47 14l-14 -18q47 4 61 4zM1202 117v4q0 27 -27.5 51.5t-54.5 24.5t-67.5 -25t-67.5 -27v-26l4 -10q53 -20 62 -21q106 0 151 29zM434 756q2 8 -4 22l-35 -6q-2 -8 0 -12q2 -10 13 -15q20 -7 26 11zM322 752q0 27 -29 26h-10q-6 -39 -4 -43q6 -8 12 -8 q14 -4 20.5 2.5t10.5 22.5zM242 782q-10 4 -31 13l-8 -23q0 -20 16 -22h21v16q2 10 2 16zM166 852q-2 14 -4 27q-8 0 -25.5 3t-25.5 3q-29 0 -33 -21q-2 -6 0 -12q0 -6 35 -10h24q9 4 29 10zM954 104v19q0 12 -36 27l2 -3q0 -4 6 -14q6 -4 -2 -4q-2 0 -54.5 12.5t-76.5 12.5 q-16 0 -42 -25t-26 -41v-14q24 1 229 30zM369 987q0 -27 -25 -26q-23 0 -22 24q0 25 22 25q25 0 25 -23zM289 1010q0 -33 -29 -33q-25 0 -24 33q0 31 24 30q29 1 29 -30z" />
<glyph unicode="U" horiz-adv-x="1267" d="M1186 135q0 -18 -8 -29q-14 -14 -26.5 -27t-52.5 -26.5t-59 -13.5q-72 0 -176 27q-53 14 -71 47q-31 55 -39 161q-4 96 -9 193q-94 -2 -245 35q-33 -129 -97 -389q-8 -8 -22 -23q-2 -8 -9 -23.5t-38 -32t-55 -16.5q-51 0 -150 45q-115 53 -115 111q0 33 45 55 q37 18 74 19q43 0 103 -21q74 -23 110 -61l107 346q-12 -10 -57.5 17.5t-45.5 50.5q-2 96 0 161q0 45 2 73l2 28q0 45 -20 282q-20 254 -33 318q-4 23 -18 88q-14 55 -15 63q0 39 127 39q23 0 322 -30q6 -2 32.5 -10.5t32.5 -8.5t21.5 5t25.5 5q47 0 62 -32q31 -70 51 -185 q6 -41 21 -219q16 -190 16 -258q0 -51 -18 -151q-8 -33 -27 -97q-8 -49 -39 -139q-8 -16 -40 -27.5t-60 -21.5q12 -92 34 -283q43 20 88.5 39t106.5 19q41 0 94 -27q68 -31 68 -76zM897 948q0 229 -33 428q-8 51 -39 146q-14 -2 -82 6q-10 8 -26 16q-168 27 -264 23h-113 q20 -84 47 -232q43 -340 43 -479q0 8 -2 -61q-4 -86 -6 -228q59 -2 186 -14q119 -10 121 -10q-2 0 127 16q-8 39 2 76q39 155 39 313zM1106 133q-45 33 -105 33q-55 0 -149 -35q121 -27 182 -27q17 0 72 29zM324 109q-106 74 -185 73q-49 0 -59 -24q25 -25 106 -54 q70 -25 84 -24q17 0 54 29zM786 770q4 -18 -6 -47q-12 -35 -37 -35q-39 0 -38 49q0 53 43 54q15 -1 38 -21zM633 741q0 -53 -39 -53q-20 0 -33 23q-8 16 -8 26q0 14 11 39t30 25q14 0 26.5 -25t12.5 -35z" />
<glyph unicode="V" horiz-adv-x="1056" d="M1006 528q0 -61 -17 -114q-20 -70 -57 -78q-18 -4 -47 -6q-31 -92 -62 -185q-53 -123 -118 -122q-182 0 -277 24q-143 37 -201 143q-8 14 -55 185q-47 -18 -74 -19q-43 0 -69 82q-20 63 -21 125q0 143 94 156q-2 20 -10 84q-8 57 -8 63q0 82 -2 45q2 23 22 50 q14 20 69.5 33.5t96.5 13.5q6 0 33 -2t33 -2q-4 0 61 49q-10 18 -19 35.5t-9 52.5q0 6 8 48t8 46q0 6 -11.5 35.5t-13.5 40.5q6 23 11 67q-6 23 -13 45q-6 27 4 45q-51 25 -51 72q0 31 33 49q25 14 51 15q41 0 41 -60q0 -25 -10 -43q-10 -6 -23 -24q-14 -37 -14 -45 q0 -4 9.5 -20.5t11.5 -22.5q2 -12 -5.5 -37t-7.5 -27q0 -6 15.5 -45t15.5 -45q0 -4 -11 -45t-11 -47q0 -18 2 -21q4 -10 20 -36.5t16 -32.5q0 -10 -34 -45q70 -4 198 -21q25 47 50.5 94t72.5 47q6 0 19.5 -2t17.5 -2q45 0 70 37q23 31 22 78q0 27 -2 35q-12 -4 -18 -13.5 t-29 -9.5q-49 0 -49 62q0 43 47 43q16 0 45 -10q2 -2 2 8q0 20 -25 80q-18 51 -24 59q-18 -14 -37 -14q-33 0 -53 37q-14 27 -15 47q0 76 58 75q18 0 41 -14q31 -18 33 -43q2 -37 -3 -55q25 -35 54 -160q-4 -18 -2 -59q2 -10 12 -29q4 -8 4 -37q0 -63 -38 -111.5t-95 -48.5 q-4 0 -14.5 2t-14.5 2q-41 0 -82 -104q47 -6 131 -35q25 -14 78 -53q8 0 25 -2q10 -4 27.5 -26.5t17.5 -28.5v-136v-65q72 -35 72 -107zM801 1561q0 43 -41 43q-18 0 -19 -29q0 -49 31 -49q29 0 29 35zM840 1307q-8 8 -15 10q-18 4 -24 0q-4 -4 4 -21v-10q6 -2 16 0 q19 7 19 21zM393 1544q0 33 -24 25q-10 -2 -11 -23q0 -29 17 -28q18 -1 18 26zM958 535q0 31 -28 57q-4 -33 -19 -115q-12 -72 -12 -76v-14q10 -2 16 0q16 10 33 76q10 52 10 72zM864 741q0 84 -10 107q-6 12 -77.5 41t-102.5 29h-15q0 4 13 -23l-6 -6q-14 -2 -43 31 q-111 20 -109 20h-145q0 -33 0 -31h-11q-16 27 -43 31q4 0 -34 0q-106 0 -131 -31q-6 -74 22 -204q2 -8 19.5 -29t17.5 -23q0 -16 -29 -14q14 -70 47 -190q12 -4 15 -9q-4 -18 -6 -47q14 -94 16 -102q14 -63 47 -109q74 -96 246 -96q25 0 76 2t75 2q37 0 76 113 q92 280 92 538zM162 426v14q-18 74 -47 222q-12 2 -21 0q-35 -12 -35 -101q0 -31 17.5 -82t27.5 -61q4 -6 15 -6q8 0 23.5 6t19.5 8zM707 362q0 -23 -17.5 -50t-40.5 -27q-49 0 -49 47q0 25 18.5 50.5t45.5 25.5q18 0 30.5 -17t12.5 -29zM496 358q0 -49 -33 -49 q-31 0 -31 33q0 53 39 53q25 0 25 -37z" />
<glyph unicode="W" horiz-adv-x="1062" d="M1004 1458q0 -55 -52 -55q-45 0 -45 41q0 10 17.5 35.5t38.5 25.5q16 0 28.5 -19.5t12.5 -27.5zM653 1548q0 -55 -55 -55q-47 0 -47 49q0 55 55 55q47 0 47 -49zM940 1325q0 -10 -84 -129q-137 -193 -137 -192q123 -90 123 -451q0 -205 -88 -317q-74 -94 -291 -187 q-29 -12 -105 -29q-68 -12 -84 -12q-205 0 -204 297q0 -14 24 180q14 125 27 250q29 160 94 250q45 63 180 74q23 57 62 178q61 211 106 211t45 -45q0 -8 -39 -135q-49 -156 -65 -211q113 -37 117 -37q240 350 272 350q33 0 47 -45zM731 559q0 68 -12 178q-14 119 -29 137 q-8 12 -35 25q-33 14 -34 19q-59 43 -125 43q-20 0 -30.5 -23t-41.5 -23q-29 0 -41 19.5t-25 19.5q-86 0 -127 -219q-14 -119 -26 -237q-25 -190 -25 -183q0 -63 56 -108q49 -43 106 -43q8 0 52 3t52 3q31 0 127 63q88 57 97 74q61 111 61 252zM635 500q0 -57 -60 -58 q-57 0 -57 58q0 27 19.5 43t37.5 16q60 0 60 -59zM492 492q0 -23 -19.5 -36.5t-36.5 -13.5q-41 0 -41 56q0 49 41 49q56 0 56 -55z" />
<glyph unicode="X" horiz-adv-x="616" d="M575 1544q0 -43 -71 -63l-45 -178q37 -10 70.5 -24.5t33.5 -57.5q0 -76 -31 -189q-41 -152 -45 -179.5t-14 -76.5l-63 -168q-55 -141 -56 -145q0 -25 21.5 -147.5t30.5 -143.5q6 6 18 6q20 0 40.5 -41t20.5 -63q0 -25 -23.5 -44.5t-49.5 -19.5q-63 0 -84 84 q-8 -84 -82 -84q-76 0 -82 94q-29 -33 -76 -32q-53 0 -53 75q0 106 82 99q6 35 41 116q35 74 37 113q-10 20 -11 68q0 14 -7 31.5t-7 27.5q-14 115 -16 324q-8 47 -17 145q-2 16 0 45q2 31 2 43q0 14 -4 40t-4 40q0 59 49 76q25 8 101 6v59q0 20 7 59.5t7 57.5 q0 12 -14.5 30.5t-14.5 31.5q0 57 64 57q47 0 47 -45q0 -18 -15 -35q-18 -23 -20 -31q-25 -55 -25 -188q12 2 21 2q57 -2 88 -16q35 139 35 229q0 57 65 57q49 0 49 -45zM545 1546q0 8 -8 15q-6 4 -15.5 -6.5t-11.5 -12.5l-4 -24q12 4 26.5 12t12.5 16zM336 1554q14 14 0 25 q-18 12 -25 -8q-4 -8 0 -12q2 -6 13 -7q10 -2 12 2zM504 1229q-92 39 -133 39h-33q-25 -2 -35 -2l-16 -25l-6 25q-37 4 -58 0q-14 -2 -30.5 -4t-16.5 -17q0 -8 27 -293q29 -295 28 -393q0 -33 11 -43q33 -4 102 -12q0 12 4 39q25 82 72 264q27 104 53 209q31 125 31 213z M354 166q-6 41 -16 123q-4 53 -10 162l-25 4q0 -53 -4 -142q-6 -98 -6 -137q35 -43 35 -76q6 23 26 66zM262 457q-16 4 -33 4q-4 -20 -37.5 -136t-33.5 -118l13 -13q13 -12 13 -40q33 18 60 22q2 54 18 281zM444 80q0 37 -22 53q-8 6 -24.5 -6t-16.5 -29q0 -39 35 -39 q28 1 28 21zM281 94q0 37 -39 37q-8 0 -18.5 -14.5t-10.5 -22.5q0 -35 35 -35q33 0 33 35zM135 158q0 12 -12 22t-25 6q-10 -4 -10 -43q0 -16 4 -20q6 -6 25 0q18 8 18 35zM449 1112q0 -35 -29 -35q-27 0 -27 31q0 35 25 35q31 0 31 -31zM371 1026q0 -39 -37 -39 q-31 0 -31 33q0 37 37 37q31 0 31 -31z" />
<glyph unicode="Y" horiz-adv-x="1224" d="M1200 399q0 -133 -2 -145q-4 -20 -40 -69.5t-58 -59.5q-279 -117 -525 -117q-133 0 -280 37q-180 47 -227 125q-20 31 -21 102q0 59 12 160q4 55 17 160q6 25 18 76q45 203 207 325q143 111 332 140q-2 -25 -4 145q-4 39 -6 119q-51 35 -52 102q0 104 66 105q43 0 70 -45 q23 -37 22 -72q0 -23 -14 -55q-14 -6 -29 -43q-2 -33 -2 -256q88 -4 152 -33q37 -14 102 -53q178 -141 231 -322q31 -103 31 -326zM668 1495q0 61 -29 49q-10 -4 -10 -41q0 -45 10 -45q29 -4 29 37zM762 985q0 20 -35 38.5t-49 16.5q0 -12 -4 -34q-2 -12 -17 -13 q-20 0 -23 7.5t-3 39.5l-53 -16q-33 -10 -43 -25q-2 -4 0 -16q4 -18 69 -31q33 -4 82 -4q76 0 76 37zM1124 268q0 -2 -1 26t-3 73v161q0 141 -71 277q-84 158 -230 221q12 -23 12 -45q0 -45 -55 -76q-45 -25 -84 -24q-217 0 -215 133q-174 -76 -258 -223q-61 -109 -82 -289 q-14 -141 -26 -285q49 -61 213 -98q133 -31 249 -31q125 0 293 41q205 47 246 115q12 22 12 24zM1044 338q-4 -18 -28 -19q-29 0 -45 54q-10 39 -10 78q0 53 43 53q12 0 26 -9.5t14 -17.5q12 -82 0 -139zM907 381q0 -88 -43 -88q-45 0 -45 123q0 16 12.5 34.5t28.5 18.5 q47 0 47 -88z" />
<glyph unicode="Z" horiz-adv-x="983" d="M934 1126q0 -106 -111 -106q-74 0 -123 37q-59 43 -59 117q0 31 12 65q-8 4 -81.5 21.5t-94.5 17.5h-22q-8 -129 -11 -211q-2 -90 -8 -178q-6 -47 -16 -137q-4 -100 -14 -301q-2 -16 -25 -59l-23 -44q0 -41 27 -137q51 18 64 18q35 0 64.5 -27.5t29.5 -56.5t-47 -45 q-37 -10 -74 -10q-16 0 -47 15.5t-39 25.5q-2 12 8 33q-25 33 -18 135q-31 0 -54 4q-2 -2 -2 -135q12 -51 -50 -99.5t-114 -48.5q-63 0 -63 56q0 43 45 67q37 23 82 23q12 0 45 -8q2 2 2 155q-12 14 -31 47q0 20 -2 58q-20 90 -20 221q0 6 8 175t8 173t-9 154.5t-9 156.5 q0 74 16 140q25 92 78 104q39 10 164 10q6 0 102 -6t103 -6q72 76 149 76q152 0 152 -121q0 -129 -160 -129q-27 0 -68 17.5t-61 39.5q-2 4 -29 64q-45 6 -149 16q-18 0 -53 2q23 -31 32 -90q8 -45 17 -92q41 0 126 -12.5t87 -12.5q25 0 47 20.5t57 20.5q76 0 123 -77 q39 -64 39 -136zM870 1495q0 74 -82 74q-29 0 -71 -17q-55 -23 -55 -59q0 -31 40 -53q35 -20 62 -21q106 0 106 76zM870 1124q0 80 -43 138q-12 16 -51 16q-31 0 -53.5 -35t-22.5 -61q0 -35 31 -68t72 -33q67 0 67 43zM387 1278q0 213 -65 213q-45 0 -56 -4 q-41 -27 -41 -180q0 -51 12.5 -146.5t12.5 -173.5q0 -86 -17 -256q0 -111 -2 -176q0 -45 -2 -68q0 -20 0 -16q0 -37 33 -42t62 -9q27 23 26 178v152l8 61q9 61 11 86q10 170 10 266q0 20 4 66.5t4 48.5zM317 358q-33 10 -96 27q-8 -10 -4 -12q27 -25 78 -25q12 0 22 10z M492 152q-14 39 -48 38q-39 0 -65 -38q41 -14 43 -15q4 0 31 7.5t39 7.5zM209 129h-21q-23 0 -57 -14q-43 -16 -43 -39q0 -8 4 -13.5t12 -5.5t54.5 32t50.5 40zM825 1481q0 -37 -32 -37q-31 0 -31 43q0 37 31 37q32 0 32 -43zM805 1151q0 -39 -29 -39q-33 0 -33 39t33 39 q29 0 29 -39z" />
<glyph unicode="a" horiz-adv-x="1142" d="M1112 592q0 -37 -31 -37q-45 0 -49 -4q-10 -16 -43 -41q-37 -10 -153 -10q-4 0 -27 2h-37v-207q84 -61 84 -125q0 -47 -57 -78q-47 -25 -99 -24q-6 0 -52 6t-52 6q-12 0 -53 -21.5t-94 -21.5t-81 21.5t-57 21.5q-111 -20 -121 -21q-127 0 -127 121q0 45 17.5 63.5 t64.5 30.5q-18 55 -18 82q0 18 20 133q8 70 17 138q10 94 37 159q-37 29 -47 58q-4 16 -4 67q0 49 24 258q6 63 12 88q8 53 25 91q8 16 55 38q-29 23 -55.5 43.5t-48.5 20.5q-16 0 -31.5 -17.5t-44.5 -17.5q-53 0 -53 60q0 27 19.5 48t31.5 21q25 0 44 -28l19 -27 q4 0 13.5 2t15.5 2q27 0 98 -50l70 -50q8 0 96 12q-8 41 -55 68.5t-92 27.5q-4 0 -11.5 -2t-11.5 -2q-18 0 -37.5 19.5t-19.5 39.5q0 45 59 46q23 0 43 -23q8 -8 7 -35q37 8 82 -19.5t73 -72.5q18 -31 31 -59q12 0 36.5 -6.5t28.5 -6.5q6 0 14.5 2t12.5 2q121 0 121 -184 q0 -53 -23 -311q-4 -41 -24 -88v-10q70 -4 196 -19q47 -2 140 -18q16 -4 21 -31t9 -27t11.5 2t11.5 2q35 0 37 -14q12 -39 12 -94zM287 1536q8 12 0 20q-6 8 -19 7q-14 -4 -14 -17q0 -6 4 -10q21 -14 29 0zM1067 633q-2 16 -4 20q-14 0 -31 2q2 -6 2 -45q27 -2 31 1.5 t2 21.5zM111 1470q0 10 -10.5 21.5t-22.5 9.5q-14 -2 -15 -22q0 -20 9 -29q8 -8 24 0q15 6 15 20zM651 1159q0 63 -6 94q-6 20 -20 56q-8 10 -60 20q-57 12 -114 12q-51 0 -160 -14q-18 -4 -27 -14q-16 -76 -24 -144q-25 -184 -25 -258q0 -45 14 -63q106 -4 201 -6 q78 -4 76 -4q74 0 110 6q14 33 17 69q18 273 18 246zM770 657q4 20 -8 64h-31q2 -23 6 -68q0 -6 17 -4q16 0 16 8zM674 725h-31v-61q2 -4 16 -7q12 -2 15 5q4 14 0 63zM958 588v102q-18 2 -47 10q-10 8 -22 15q-31 2 -92 6q-2 -23 -4 -70q-4 -33 -50 -33q-27 0 -41 21 q-27 -16 -43 -16q-18 0 -30 12q-23 -23 -49 -23q-61 0 -62 66q0 23 8 47h-84q-37 0 -57 -61q-20 -51 -14 -68q57 -18 86 -18q8 0 57 7t53 7q6 0 134 -9.5t133 -9.5q2 0 50 3.5t68 3.5q2 4 6 8zM602 657q4 29 -4 64h-33q0 -6 -2 -19.5t-2 -19.5q0 -20 10 -25q27 -14 31 0z M713 352q0 115 -23 160q-84 10 -121 10q-6 0 -54 -4t-54 -4q-156 0 -156 96q0 115 82 166q-45 2 -129 10q-12 -51 -39 -221q-27 -176 -26 -213q0 -63 98 -63h121q6 0 95 10t95 10t21.5 -2t19.5 -2q70 0 70 47zM786 164q8 18 -27.5 45t-60.5 27q-12 0 -45 -23 q-37 -29 -37 -45q0 -14 33 -27q27 -8 49 -8q14 0 49 10.5t39 20.5zM535 158q0 12 -20.5 40.5t-43.5 28.5q-78 0 -84 -98q45 -31 57 -31q14 0 48 15q43 18 43 45zM344 217h-20q10 -10 10 -18q0 8 10 18zM266 164q0 18 -25.5 33.5t-54.5 17.5q-43 2 -57 -14q-10 -8 -10 -23 q0 -20 20.5 -37.5t48.5 -17.5q78 0 78 41zM600 1079q-10 -10 -57 27q-55 41 -82 41q-4 0 -31 -13.5t-31 -13.5q-33 0 -32 41q0 49 53 49q104 0 180 -131zM596 1042q0 -31 -31 -30q-14 0 -20 10q-14 14 0 33q10 12 24 12q27 0 27 -25zM522 1055q0 -10 -10 -24.5t-23 -14.5 q-14 0 -24 14q-14 23 0 41q12 14 29 14q28 1 28 -30z" />
<glyph unicode="b" horiz-adv-x="669" d="M600 735q-4 -45 -51 -49q0 -12 14 -31q6 -4 6 -73q0 -47 -8 -58q-20 -16 -22 -22q-2 -29 -7 -74q0 -16 -8 -68q-8 -43 -8 -67q0 -33 12.5 -81t12.5 -54q0 -27 -42 -79t-67 -52t-70 22.5t-45 42.5q0 39 101 125q-27 123 -35 207l-4 4q-76 -27 -180 -70q-12 -39 -90 -39 q-49 0 -62 33q-4 14 -4 74q0 117 27 117t55.5 -16.5t54.5 -30.5q143 80 172 77q-2 25 -2 37q-49 2 -57 11.5t-17 56.5q-20 -12 -34 -12q-29 2 -39 61q-2 18 2 31q2 6 10 16q-18 72 -18 176q0 33 18 86.5t18 73.5q-80 92 -79 320q0 53 55 108t108 55q41 0 64 -43 q16 -43 33 -86q37 -98 30 -336h7q63 4 104 -127q37 -113 25 -182q8 -6 18 -26q6 -29 2 -58zM416 1153q14 72 -15 119q-10 -2 -14 0q-8 0 -20 6q2 2 9 7t17 20q4 10 0 16q-4 8 -16 12q-4 -2 -12 0q-6 0 -13 2q2 12 19.5 17.5t19.5 5.5q-2 47 -22 115q-27 82 -54 81 q-39 0 -84 -48t-45 -87q0 -295 127 -295q35 0 103 29zM397 1014l-14 2l10 -10zM578 725q4 6 -9 66q-23 4 -22 4q-12 0 -27 -11v-14q2 -57 17 -57q35 0 41 12zM494 756q0 10 -2 26v9q-16 -16 -7 -33q3 -2 9 -2zM555 815v10q0 25 -10 73t-13 67q-8 94 -79 139v-10 q0 -16 -13 -23q-16 14 -14 45q-27 -14 -53 -24v-13q0 -10 9 -23.5t17 -15.5l43 29l9 -14q-49 -80 -62 -80q-14 0 -34.5 33.5t-20.5 48.5l4 12h14l-4 16q-35 -4 -43 -4q-27 0 -45 11q-10 -27 -31 -88q-6 -35 0 -127q6 -33 15 -97l16 -14q-6 -8 -22 -16q-8 -4 -9 -25 q0 -33 13 -33l32 4q-6 47 -16 156q-4 35 -8 72t8 69q2 16 6 33.5t17 17.5q14 0 18 -21.5t2 -53.5q-2 -47 -2 -39q0 -168 16 -281q6 -10 25 -10q78 0 184 37v10q-31 12 -30 57q-14 2 -22.5 9.5t-8.5 23.5q0 23 24 39l2 41q2 18 -2 50t-4 48q0 23 9 31q4 -2 8 -8 q18 -92 16 -158q12 2 19 2q8 0 20 -6zM537 586q2 18 0 49q-88 -25 -138 -25q-6 -8 -6 -30q0 -29 -207 -117l9 -66q14 2 43 11q23 8 38 18q119 51 254 121q3 2 7 39zM500 477q-23 -10 -76 -33v-10q0 6 29 -221q10 -8 32 -18q4 10 9 32v25q-2 16 -2 24q0 35 4 100.5t4 100.5z M172 365q-8 55 -20 120h-13l25 -131zM477 158q0 6 -2 16q-6 0 -20 4q-6 2 -17 4q-23 0 -88 -90q12 -8 41 -16q35 12 86 82zM141 395q0 23 -12 54q-16 41 -20 51q-4 4 -17 8h-18q4 -16 2 -45q-4 -51 -4 -55v-27q0 -10 63 -29q0 6 3 18.5t3 24.5zM520 141l-10 4l-84 -90l8 -8z M305 1319q-6 -8 -16 -8q-12 0 -17 8q-4 8 0 16q4 10 17 11q10 0 16 -11q4 -6 0 -16zM246 1327q0 -20 -19 -20q-18 0 -18 22q0 18 16 19q21 -1 21 -21z" />
<glyph unicode="c" horiz-adv-x="841" d="M772 655q0 -41 -2 -135q-2 -23 -9 -85t-7 -95q4 -336 -267 -336q2 0 -28.5 -4t-48.5 -2q-18 4 -62 16q-41 6 -127 29q-76 35 -113.5 78t-59 146.5t-21.5 107.5q-14 219 0 344q16 135 18 151q14 74 47 144q16 49 31 96q20 41 137 125q14 8 41 27q-4 27 -20 96 q-43 2 -43 53q0 55 53 55q51 0 51 -49q0 -29 -29 -45q6 -57 21 -102q82 14 123 14q25 0 39 -4q70 166 69 182q0 4 -9 10.5t-11 10.5q-8 14 -8 37q0 29 20.5 54t54.5 25q63 0 64 -81q0 -37 -35 -56q-12 -4 -35 -12q-10 -29 -32.5 -89.5t-32.5 -88.5q113 -59 141 -115 q18 -63 39 -127q23 -55 41 -217q10 -107 10 -158zM627 1522q0 18 -15 18q-31 0 -30 -24q0 -16 22 -17q23 0 23 23zM307 1415q0 16 -14 17q-8 2 -14.5 -8.5t0.5 -20.5q6 -10 16 -4q12 4 12 16zM711 655q0 68 -13 148q-10 49 -24.5 127t-16.5 80q-14 63 -32 92 q-47 74 -107 112q-14 -43 -31 -43q-16 0 -16 17q0 14 6 37h-45q-10 0 -86 -29q0 -41 -18 -41l-19 16q-119 -63 -155 -141q-6 -8 -52 -172q-6 -31 -16 -143q-12 -123 0 -340q0 -25 12 -60q14 -57 27 -114q25 -72 90 -90q14 -10 51 -29q20 -8 78 -8h57q37 0 179 26q33 4 55 27 q45 45 51 113q2 61 4 125q21 134 21 290zM686 754q0 -84 -43 -138q-47 -59 -133 -59q-27 0 -54.5 14.5t-25.5 14.5q-4 0 -22.5 -19.5t-28.5 -25.5q-18 -12 -64 -13q-164 0 -163 181q0 68 37.5 118t105.5 50q59 0 90 -35q94 100 160 100t106 -68q35 -57 35 -120zM647 309 q0 -100 -94 -147q-72 -35 -182 -35q-90 0 -147.5 41t-57.5 121q0 94 125 162q102 55 182 55q2 0 20.5 -5t28.5 -5q18 2 51 -7q74 -43 74 -180zM602 666q0 41 -41 41t-41 -43t39 -43q16 0 29.5 15.5t13.5 29.5zM326 616q0 35 -33 35q-37 0 -37 -41q0 -33 33 -32q37 -1 37 38z M557 281q0 2 -3 62t-5 87q-16 16 -39 16q-45 2 -45 3q4 -39 13 -121t14 -121q65 17 65 74zM457 193v12q-25 109 -21 237q-10 -2 -49 -10q6 -41 13.5 -122t11.5 -122q35 5 45 5zM377 193q-6 23 -7 119t-3 112q-8 -2 -23.5 -9t-21.5 -12q2 -78 22 -217q13 3 33 7zM311 190 q-20 127 -4 203q-51 -41 -51 -47q0 8 2 -33t2 -98q22 -17 51 -25z" />
<glyph unicode="d" horiz-adv-x="524" d="M283 936q-4 -2 -17 -2q-2 0 -11 2t-13 2q8 -18 22 -18q13 0 19 16zM477 1483q0 -86 -2 -129q-2 -31 -16 -140q-4 -25 -19 -71q-18 -33 -90 -41q-2 -20 -31 -51q0 -6 -2 -17q0 -2 -10 -14q2 -8 -2 -27l-6 -12q-2 -20 -10 -45q2 -18 0 -25q20 -8 24 -39q8 -82 2 -116 q8 -4 23 -21q8 -12 6 -24q-2 -16 -2 -17q8 -41 33 -151q8 -8 18 -21q8 -27 8 -41q0 -27 -11 -37t-34 -30q-20 -31 -67 -86q-41 -43 -41 -52q0 -18 13 -82.5t15 -78.5q-16 16 -26 67q-8 41 -19 84q-12 -10 -41 -30q12 -45 103 -211q-37 35 -68 92q-27 51 -53 104 q-51 -33 -129 -88h-10v8q133 96 133 99q0 10 -19 53q-8 20 -63 178q-8 6 -18.5 21.5t-10.5 29.5q0 8 6.5 15.5t12.5 17.5q16 59 65 158q0 14 4 20t27 21q0 88 2 96q10 59 53 68q0 4 -2 20t-2 18q0 20 4 37v23q8 47 8 49t-6 8t-6 10q-2 6 0 29q-82 45 -82 148q0 2 2 18t2 18 v90q0 72 37 140q47 86 127 86q29 0 51 -8l21 -7q2 0 8 2.5t8 2.5q14 0 41 -21.5t33 -42.5q8 -26 8 -55zM436 1483q0 96 -114 96q-127 0 -142 -201q-2 -33 -2 -118q0 -106 74 -113q10 -2 28.5 -6t20.5 -4q96 0 107 26q20 51 22 100.5t4 94.5q2 39 2 125zM313 1090v8 q-23 2 -67 8v-12q16 -10 43 -11q20 1 24 7zM297 1049q-16 2 -47 8v-8q16 -8 29 -9q10 1 18 9zM289 1014q-14 2 -41 8v-12q0 -16 16 -17q19 1 25 21zM285 975q-10 -6 -21 -6q-2 0 -22 6q6 -16 22 -17q19 1 21 17zM283 791q0 33 -9 96q-6 0 -16 2t-12 2q-45 0 -45 -98 q0 -47 57 -48q25 1 25 46zM324 705q2 0 0 10q-2 12 -13 16q-12 -12 -12 -10q0 -16 16 -16q11 0 9 0zM264 692q2 6 -4 21h-18q0 -2 -2 -6.5t-2 -6.5q0 -12 12 -12t14 4zM188 725q0 6 -10 6q-14 0 -12 -12q0 -4 16 -4q6 0 6 10zM377 479q0 31 -17 31q-14 0 -18 -57q8 -8 8 -9 q27 0 27 35zM340 547q0 20 -10.5 73.5t-14.5 61.5q-14 4 -30 23q2 -10 -4.5 -18.5t-10.5 -16.5q-10 -25 -10 -60q0 -33 8 -57q14 -49 15 -39q0 -4 -8.5 -28.5t-10.5 -34.5q-12 -72 -12 -127q37 49 70 106q-14 33 2 82q4 10 10 13.5t6 21.5zM264 514q0 20 -12 21q-8 0 -8 -33 q0 -18 4 -29q16 8 16 41zM238 432q0 10 -9.5 27.5t-9.5 44.5q0 -2 14 47q4 23 5 47q0 49 -11 76q-4 6 -10 14q-2 16 0 33q-2 -12 -17.5 -22.5t-25.5 -8.5q-12 -14 -40 -63t-28 -56q0 -4 7.5 -11t9.5 -11v-14q0 -14 -6 -43t-6 -21q0 -23 43 -154q10 -27 30 -63q23 12 49 47 q5 31 5 131zM102 518v25q-18 -14 -18 -25q0 -10 10 -14zM428 1298q0 -84 -41 -84q-29 0 -29 48q0 68 31 67q23 0 31 -4t8 -27zM354 1296q0 -66 -37 -65q-39 0 -38 51q0 59 34 59q2 0 33 -10q8 -8 8 -35zM403 1286v21h-18q-2 -29 0 -64q10 -10 14 6q4 10 4 37zM326 1317h-17 q-2 -25 -2 -55q4 0 10 -2q8 8 9 28v29z" />
<glyph unicode="e" horiz-adv-x="1466" d="M1415 633q0 -29 -26.5 -45.5t-51.5 -16.5q-51 0 -59 47q-18 12 -86 82q-57 59 -94 70h-11q-2 -37 -12 -111q-16 -88 -31 -149q70 -35 99 -117q16 -70 35 -137q2 -12 23.5 -47t23.5 -35q4 0 14 3t16 3q33 0 54.5 -22.5t21.5 -46.5q0 -57 -69 -58q-31 0 -53.5 23.5 t-18.5 54.5q-61 68 -80 182q-18 106 -78 158q-41 -100 -114 -129q23 -14 41 -62.5t18 -80.5q0 -100 -88 -103q-33 -35 -47 -35q-27 0 -45.5 20.5t-18.5 45.5t20.5 41t39.5 16q20 0 40 -24l21 -23q39 0 39 62q0 31 -18 71q-25 53 -60 54q-4 0 -54 -4.5t-54 -4.5 q-94 0 -172 37q-4 -18 -5 -39q0 -23 4.5 -59.5t4.5 -52.5q0 -59 -43 -105q6 -23 6 -39q0 -59 -66 -59q-84 0 -84 74q0 66 66 65q4 0 20.5 -4t20.5 -4q25 0 37 84q0 -10 -6 70q-4 63 0 98q-27 39 -54 100q-12 31 -30 94q-10 37 -27 109q-8 10 -25 10q-39 0 -80 -59 q-27 -43 -51 -88q-68 -106 -110 -96q-20 -82 -84 -82q-51 0 -51 61q0 74 79 74q4 0 18.5 -8.5t18.5 -8.5q43 0 103 95q25 47 88 123q18 14 88 20v86q-2 27 -6 78q-45 25 -66 53q-16 41 -49 119q-12 25 -6 78q6 78 6 63v15q-2 12 -2 18q-10 -4 -19 -4q-29 0 -53 35 q-20 29 -20 47q0 23 27.5 45t50.5 22q27 0 43 -32q14 -25 14 -43q0 12 -6 -33q-10 -16 -10 -17q0 2 9 -17t5 -52q-6 -51 -6 -49q0 -139 88 -185q12 41 37 117q2 8 17 34.5t15 31.5q0 -8 -28 53q-16 31 -17.5 76t-3.5 88q0 20 -10 59q-14 23 -35 37q-63 45 -90 45 q-2 0 -14.5 -6t-28.5 -6q-49 0 -49 53q0 25 16.5 45t38.5 20q63 0 56 -67q29 4 87 -41t69 -91t7 -85q-8 -63 -8 -68q0 -49 37 -80q49 43 84 62q14 84 104 139q-2 39 21 88q20 41 43 84q-6 18 -6 57q4 14 23.5 28.5t33.5 14.5q57 0 57 -57q0 -23 -17 -45t-38 -22q-6 0 -9 2 t-7 2q-2 0 -51 -78q-2 -16 -9 -58q-2 -4 2 -4q37 8 74 17q49 16 82 47q-4 8 -4 20q0 27 15.5 49.5t37.5 22.5q27 0 43 -29q12 -20 13 -39q0 -18 -21.5 -38.5t-36.5 -20.5q-6 0 -14 6t-12 6t-16.5 -12t-16.5 -14q-23 -14 -72 -27q-70 -18 -76 -20q-4 -16 5.5 -39t17.5 -43 q29 -4 84 -13q10 -2 31.5 -12t25.5 -10t25.5 10t27.5 12q51 6 148 29q33 12 74 43q55 41 71 82l-45 33q-6 8 -6 30q0 74 64 74q59 0 59 -69q0 -8 -9 -22.5t-14 -33.5q-31 -111 -139 -153l-188 -54q25 -12 71 -43q37 -35 52 -98q8 -47 14 -94q14 10 47 10q25 2 47 2 q8 12 15.5 25.5t23.5 13.5q84 0 84 -72q0 -25 -25.5 -38t-37.5 -13q-29 0 -60 43q-23 0 -45 2q-31 -2 -53 -20q-14 -72 -14 -82v-43q66 0 196 -143q8 12 29 26q20 6 47 6q20 0 35.5 -23.5t15.5 -37.5zM1284 1477q0 33 -27 32q-23 0 -22 -34q0 -27 29 -27q20 0 20 29z M973 1470q0 25 -27 31h-12q-12 -4 -8 -33q2 -27 20 -26q6 0 16.5 11t10.5 17zM842 1587q0 20 -25 21q-31 0 -31 -25q0 -6 10.5 -16.5t22.5 -10.5q23 0 23 31zM1286 961q10 23 -29 30q-10 2 -14 0q-14 -6 0 -35q8 -14 25 -12q14 3 18 17zM1374 629q8 27 -22 28 q-12 2 -20.5 -8t-8.5 -22q0 -8 4 -13q10 -6 29 0q8 3 18 15zM723 1260q-2 12 -8 36.5t-8 36.5q-66 -37 -76 -90q22 7 92 17zM276 1526q8 8 7 20q0 12 -11 15q-10 0 -18 -15q-10 -16 0 -24q12 -10 22 4zM293 1303q0 35 -27 34q-25 0 -24 -24q0 -8 10 -23.5t20 -15.5 q21 0 21 29zM1040 979q0 86 -32 131q-20 12 -52 33q-41 29 -43 28q-25 0 -26.5 -52t-44.5 -52q-35 0 -35 35q0 10 4 18q23 27 59 74q-53 12 -96 12q14 0 -104 -18q-4 -18 -8 -27q-16 -31 -50 -31q-10 0 -30 21q-25 -8 -63 -81t-38 -103q0 -4 7.5 -20.5t7.5 -20.5 q0 -35 -27 -60v-18q0 -213 96 -408q14 18 27.5 37t34.5 19q37 0 37 -37q0 -47 -48 -47q-8 0 -16 2q37 -37 148 -37q4 0 28.5 2t34.5 2q-10 14 -41 39q-18 16 -18 35q0 37 45 37q41 0 41 -39q0 -4 -8.5 -15.5t-8.5 -15.5q0 -8 14.5 -21.5t18.5 -13.5q117 0 156 293q4 23 2 53 q-31 12 -31 37q0 51 43 55q2 29 10 93q6 57 6 61zM1290 106q-10 35 -33 35t-22 -26q0 -20 29 -21q14 0 26 12zM858 119q-2 20 -27 26q-8 2 -12 0q-10 -4 0 -30q4 -14 17 -17q10 -2 14 0q8 7 8 21zM504 53q0 12 -12.5 28.5t-26.5 16.5q-33 0 -33 -28q0 -31 47 -31 q25 -4 25 14zM115 440q0 23 -27 23q-20 0 -29 -17q-8 -14 0 -30q4 -8 15 -13q14 -6 27.5 5.5t13.5 31.5zM897 854q0 -37 -35 -37q-20 0 -33 35q0 37 35 37q33 0 33 -35zM774 864q0 -47 -45 -47q-35 0 -35 29q0 16 13.5 35.5t33.5 19.5q33 0 33 -37zM918 713q0 -25 -13 -23 q-27 4 -139 4q-88 0 -100 -47h-13q-10 6 -10 19q0 72 217 71q58 1 58 -24z" />
<glyph unicode="f" horiz-adv-x="1933" d="M1862 1225q0 -43 -40 -77t-77 -34q-43 0 -76 33t-33 70q0 72 56 88q14 0 41 4q47 8 36 8q41 0 67 -27.5t26 -64.5zM1606 1200q0 -29 -64 -80q-45 -37 -209 -159q-127 -94 -127 -101q0 20 43 -137q16 -72 54 -203t38 -182q0 -76 -41 -76q-29 0 -143 117q-186 193 -184 192 q6 0 -10 -6q-43 -27 -254 -133q-203 -102 -207 -102q-41 0 -41 47q0 -20 12 57q14 88 57 223q37 109 74 217q-61 61 -213 203q-18 14 -55 45q-23 14 -45 31q-31 27 -31 55q20 25 162 41q104 12 178 13q-2 0 43 -3.5t66 -1.5q2 6 -10.5 108.5t-12.5 109.5q0 80 135 79 q41 0 146 -6q49 -4 77 -18q14 -10 25 -76q4 -55 21 -170q166 14 157 14q76 0 176.5 -17t118.5 -36q23 -2 62 -28q2 -7 2 -17zM1497 127q0 -39 -33.5 -64.5t-64.5 -25.5q-49 0 -78 29.5t-29 74.5q0 53 54 68q16 4 79 4q31 0 51.5 -29.5t20.5 -56.5zM238 1214q0 -37 -27 -64.5 t-61 -27.5q-35 0 -56.5 20.5t-21.5 51.5q0 33 22 63q29 41 82 41q29 0 45.5 -29.5t16.5 -54.5zM494 209q0 -43 -33 -76t-74 -33q-37 0 -68.5 31t-31.5 64q0 35 32.5 66.5t71.5 31.5q103 0 103 -84zM1786 1223q0 18 -17.5 30.5t-37.5 8.5q-33 -6 -35 -35q-4 -41 45 -41 q41 0 45 37zM1503 1184q-14 10 -35 22q-188 29 -378 29q2 -6 2 -12q0 -41 -35 -41q-33 0 -37 32q-10 94 -27 256q0 2 -76.5 9.5t-101.5 7.5q-37 0 -57 -6q16 -96 16 -189q0 -115 -35 -114q-20 0 -22 39q-104 -2 -373 -37q207 -129 301 -262v-27q0 -33 -33 -146 q-16 -57 -32 -112q-16 -76 -45 -213q104 57 265 140t169 83q20 0 145 -121q150 -143 154 -147q-133 467 -133 479q0 14 4 18q128 111 364 312zM1430 119q8 16 -5.5 31.5t-31.5 17.5q-37 2 -43 -27q-4 -16 12 -29.5t35 -11.5q27 3 33 19zM174 1210q0 -4 -4 9q-8 20 -16 20 q-12 2 -25 -18q-10 -23 0 -35q8 -8 23 -4q8 2 16 20q4 4 6 8zM426 201q-2 43 -43 43t-39 -47q4 -41 43 -39q39 4 39 43zM965 1339q0 -31 -27 -32q-12 0 -20.5 9t-8.5 23q2 33 29 31q25 -2 27 -31zM870 1333q0 -14 -9 -25.5t-23 -9.5q-20 2 -23 33q0 39 25 39q30 0 30 -37z " />
<glyph unicode="g" horiz-adv-x="952" d="M889 145q0 -121 -180 -120q-57 0 -113 18q-66 20 -78 51q0 23 -12 78h-105q4 -16 5 -29q0 -68 -84 -102q-59 -25 -127 -25q-53 0 -97 23q-53 25 -53 72q0 78 88 116q-92 72 -92 238q0 92 35 190q66 182 295 465q10 33 35 101q18 43 67 120.5t78 106.5q-27 6 -27 57 q0 47 35 74q12 14 47 35q18 6 37 6q43 0 43 -39q0 -43 -29 -80q-184 -231 -229 -368q10 0 39 -2.5t33 -2.5q6 0 57 105q41 51 90 86q23 8 64 33q8 18 32 51q29 20 82 20q25 0 40.5 -21.5t15.5 -39.5q0 -35 -34 -55.5t-71 -20.5q-25 0 -40 10l-15 9q-14 0 -65.5 -43 t-57.5 -56q-18 -29 -47 -90q59 -20 117 -92q51 -61 73 -123q14 -53 45 -168q18 -66 19 -170q0 -74 -45 -264q-6 -31 -37 -53q166 -19 166 -101zM840 1360q2 31 -27 31q-8 0 -29 -11q-27 -14 -30 -30q-2 -14 0 -21q6 -10 41 0q23 6 28 8q15 9 17 23zM635 1569 q-66 -12 -64 -56q-10 -25 0 -24q14 4 41 34.5t27 43.5q0 4 -4 2zM735 555q0 82 -6 109q-25 127 -41 178q-35 102 -96 164q-45 47 -70 47q-4 0 -11 -11.5t-13 -11.5q-16 0 -17 33h-51q-37 0 -57.5 -49t-34.5 -49q-4 0 -6 2h-4v32q-63 -78 -144 -241q-90 -182 -90 -266 q0 -72 21.5 -138.5t56.5 -81.5q20 -10 147 -26q102 -14 152 -15q61 0 132 18.5t91 59.5q8 12 27 127l2 15q12 73 12 104zM836 139q0 27 -48 45q-37 12 -59 13q-53 0 -111 -37l-6 6q0 4 2 11t2 9q-72 -12 -69 -12q4 -25 31 -72q23 -25 124 -24q43 0 80 14q54 16 54 47z M358 164v20q-4 -4 -71 0q18 -29 18 -41q0 -14 -14 -14q-2 0 -45 24.5t-60 24.5q-27 0 -57.5 -19.5t-22.5 -43.5q10 -33 56 -39q35 -4 106 -4q18 0 54 38t36 54zM578 647q0 -59 -43 -59q-25 0 -25 51q0 49 33 49q35 0 35 -41zM467 598q0 -29 -33 -29q-29 0 -28 33q0 41 28 41 q14 0 23.5 -18.5t9.5 -26.5z" />
<glyph unicode="h" horiz-adv-x="499" d="M455 1499q-12 -14 -43 -39q-18 0 -62 -22q59 -66 60 -181q0 -18 -14.5 -79.5t-24.5 -81.5q-16 -10 -50 -37t-34 -43q0 -4 9 -25.5t11 -32.5q23 -82 33 -151q8 -41 18 -119q-2 -27 2 -76q10 -8 27 -24q16 -25 16 -49q0 -55 -63 -66q-6 -4 -8 -16q-12 -78 -31 -144 q-10 -39 -10 -98q0 -51 17.5 -87t17.5 -42q0 -18 -21 -37q-12 -4 -37 -16q-57 -41 -80 -41q-16 0 -25 14t-13 14t-21.5 -3t-22.5 -3q-47 0 -47 27q0 31 56 47q29 6 57 12l2 6q2 7 5 31.5t3 28.5q0 20 -18.5 157.5t-25.5 141.5t-21 10q-25 16 -25 47q0 23 6 36t19 44 q10 45 10 68v112q0 29 16 88q12 33 22.5 64t10.5 74q0 39 -4 51q-76 29 -103.5 62.5t-27.5 107.5q0 76 31 162q43 127 129 127q4 0 8 -2h10q-4 16 33 43q61 45 70 51q20 18 24 18q27 0 27 -24q0 -18 -16.5 -25.5t-61.5 -37.5t-45 -38q0 2 76 -51q14 25 40.5 34t34.5 19 q-4 29 25 29t29 -35zM373 1257q0 49 -37 50q-18 0 -34.5 -25t-16.5 -39q0 -66 34 -65q54 -1 54 79zM264 1272q0 104 -49 104q-53 0 -53 -164q0 -51 57 -51q45 0 45 111z" />
<glyph unicode="i" horiz-adv-x="1480" d="M1413 266q0 -37 -45 -61q-33 -18 -53 -19q-76 0 -98 82q8 23 10 62q-12 31 -43 78q-43 63 -51 79q-63 -35 -201 -102q25 -59 82 -176q2 -4 51 -19q25 -8 45 -36.5t20 -47.5q0 -33 -57 -65q-49 -27 -74 -27q-35 0 -63.5 27t-28.5 61q0 8 18.5 44t18.5 42q0 14 -36 98.5 t-44 84.5q-4 0 -13 -3t-17 -3q-131 0 -238 143q-94 127 -94 242q0 61 55 153q63 104 141 135q-66 41 -202 41q-106 0 -197 -43q-57 -27 -117 -75q-51 -41 -59 -41q-39 0 -73 35.5t-34 64.5q0 100 41 192q92 207 293 318q172 96 365 96q168 0 344 -88q225 -113 274 -301 q20 -53 39 -107q29 -80 29 -141q0 -98 -15 -147q-29 -94 -81 -172q-35 -53 -86 -103q-39 -41 -39 -43q0 -10 43 -71.5t77 -94.5q18 0 56 -8q20 -10 38.5 -40t18.5 -44zM1296 975q0 74 -20 129q-18 45 -35 90q-41 166 -242 262q-152 72 -290 72q-164 0 -314 -80 q-164 -88 -248 -242q-41 -76 -38 -125v-63q168 154 405 153q215 0 287 -108q10 -18 43 -16q47 4 43 6q29 -6 67 -29q51 -33 52 -74q0 -25 -19 -24q-88 61 -147 61q-29 0 -83.5 -17.5t-74.5 -35.5q-31 -27 -66 -96q-29 -59 -28 -95q0 -74 71 -170q80 -111 168 -110 q154 0 311.5 165t157.5 347zM1346 270q6 16 -9.5 34t-31.5 11q-20 -8 -21 -32q0 -37 33 -35q21 -1 29 22zM1055 115q4 18 -12.5 31.5t-34.5 9.5q-16 -6 -25 -35q-8 -25 0 -33q6 -6 33 0q18 6 27.5 10.5t11.5 16.5zM1024 711q-8 -18 -33 -21q-23 0 -33 21q-8 14 0 28 q8 20 35 19q23 0 31 -13q10 -14 0 -34zM889 702q2 -18 -5 -27t-28 -9q-41 2 -41 41q0 37 35 38q37 4 39 -43z" />
<glyph unicode="j" horiz-adv-x="505" d="M451 555q0 -49 -21 -82q-10 -16 -45 -20q0 -23 -20 -58q-12 -2 -35 -14v-119q0 -41 -27 -225q12 0 46 4t36 4q47 0 47 -20q0 -16 -16 -19q-131 -8 -113 -8q-4 0 -16.5 8t-18.5 8q-45 2 -137 11q-12 2 -12 16q0 18 35 18q-6 0 82 -10q2 2 2 17q0 2 -9 63q-8 70 -12 104 q-4 53 -12 162q-16 4 -45 15q-10 6 -19 53q-25 158 -4 442q-16 -2 -24 6q-23 -27 -23 -155q0 -115 8 -148q8 -10 19 -33q6 -43 6 -65q0 -63 -57 -64q-29 0 -31 23q-4 68 -4 84q0 31 8 45l20 10q-6 162 2 230q4 37 15 61q12 16 26 47q-4 12 -4 47q0 10 19.5 27.5t32.5 17.5 q6 0 10 -2q2 16 43 31l-4 12q-6 -4 -27 -4q-45 0 -49 19.5t-12 136.5q-10 180 -11 211q0 -2 -2 22.5t-2 42.5q2 27 8 41q14 29 123 29h15q10 -2 14 -2q6 0 24.5 7t22.5 7q20 0 54 -26.5t36 -44.5q6 -49 6 -111q0 -166 -20 -297q-2 -14 -23 -18q-37 -4 -110 -13 q4 -6 31.5 -24.5t35.5 -18.5q4 0 13.5 5.5t15.5 5.5q12 0 18 -9q10 -16 18.5 -20t23 -14.5t16.5 -34t4 -25.5q16 -33 16 -82q0 -76 -14 -252q-2 2 6 2q21 0 21 -57zM340 1409q0 76 -10 94q-16 31 -88 31q-84 0 -90.5 -12.5t-4.5 -161.5q0 -2 23 -234q55 4 156 13q2 53 8 166 q6 102 6 104zM399 944q0 20 -10 37q-4 6 -6 0q-2 -10 0 -43q0 -4 8 -2t8 8zM412 901q-8 -6 -23 -12q-4 -76 -8 -158v-110q12 47 20 137q11 139 11 143zM150 1004q-12 -27 -13 -23q0 -4 2 -10t2 -8q9 25 9 41zM330 891q-2 43 -6 84q-4 33 -15 37q-35 4 -102 12 q-23 -41 -33 -186q-4 -49 -4 -156q0 -78 23 -236q35 -2 102 -6q27 -2 31 6zM420 512v80h-25l-10 -35v-74q35 11 35 29zM92 489q0 90 -16 91q-4 0 -7 -2.5t-6 -2.5q4 -68 5 -96q16 6 24 10zM256 360v31q-4 0 -12 2t-13 2q2 -18 8.5 -56t8.5 -56q0 -18 6 49q2 18 2 28z M297 356v31q-4 0 -12.5 2t-12.5 2q4 -205 4 -211q21 162 21 176zM307 1335q0 -27 -20 -26q-16 0 -17 22q0 25 19 25q18 -1 18 -21zM256 1339q0 -27 -25 -26q-8 0 -14 8q-12 14 0 31q8 12 21 12q18 0 18 -25z" />
<glyph unicode="k" horiz-adv-x="1251" d="M1227 1405q0 -29 -5 -36t-38 -18.5t-45 -11.5q-4 0 -8.5 4.5t-8.5 4.5q4 0 -184 -164q-39 -29 -123 -92q20 -78 21 -99q0 -31 -15 -32q-27 -2 -35 -13q4 -68 -2 -172q0 -6 -3 -25.5t-3 -23.5v-205q0 -29 -2 -50t-2 -28q0 -4 3 -31.5t3 -31.5v-135q0 8 23 -137q6 0 18.5 2 t18.5 2q18 0 39 -17q2 -12 6 -40.5t4 -32.5q0 -25 -29 -25h-63q-55 0 -62 31q0 41 -2 82q-10 47 -24 135q-10 61 -29 194q-25 -66 -47 -161q-16 -84 -35 -168q2 -27 0 -82q-2 -25 -55 -25h-62q-39 0 -39 31q0 -16 17 80q35 16 73 12q14 197 54 338q-4 2 -23 2 q-23 129 -33 287q-2 12 -14 96q-12 70 -12 129q2 0 -21 0q-35 0 -43 61q0 35 -2 70q-6 8 -14 12q-31 12 -76 43q-63 39 -121 92q-47 45 -47 46q-2 0 -9 -6.5t-15 -6.5q-47 0 -123 29q-14 4 -15 29q0 27 24 59.5t42 32.5q-2 0 33 -10q4 2 10 16q4 6 16 6q31 0 33 -37l2 -63 q16 -12 148 -115q29 -23 55.5 -33t31.5 -13t20.5 -23.5t21.5 -20.5q4 0 8 2t8 2q16 0 23.5 -13.5t13.5 -13.5q12 0 16 11v14q10 8 34 11t34 9q-14 6 -49 23l-15 24q-16 25 -16 37q0 49 43 158q4 8 61 35q-2 55 -26 55q-6 0 -7 -4t-5 -4q-14 0 -23 39q0 20 25 20q23 0 40 -45 t11 -63h20q2 14 13.5 38.5t37.5 37.5q20 10 23 30q-6 16 -2 45q31 33 51 -6q4 -8 -5 -16t-17 -17q-4 -20 -33 -53q-45 -29 -45 -37v-20q14 4 41 0q20 -12 41 -80q25 -80 24 -131q0 -57 -78 -57q-4 0 -18 2h-22v-11q37 -4 83 -26q0 -6 -4 -19q-2 -8 11 -8h45q6 0 114 101 q147 133 179 159q-10 49 -11 45q-29 20 -28 41q0 14 18 24.5t29 10.5q10 0 37 -37q57 23 59 23q33 0 33 -78zM1188 1391l-4 49q-12 -8 -64 -27q0 -25 8 -39q21 9 60 17zM1108 1444q0 4 -5 12l-5 8q0 -2 -8 -2zM758 1593q0 4 -10 4t-15.5 -6t-1.5 -14q2 -4 6 -6q8 -4 14.5 5 t6.5 17zM592 1532q-8 16 -23 4q-4 -6 -2 -14q4 -8 11 -9q24 1 14 19zM750 1251q-6 29 -15.5 84.5t-15.5 81.5q-53 -8 -125 -2q-20 -39 -51 -174q10 0 207 10zM752 1219h-84l-4 -17h75zM641 1190q0 16 -10 16q-6 0 -6 -8v-6zM797 999q0 29 -2 70q0 8 -7 8q-6 0 -6 -8 q4 -16 4 -76q1 4 11 6zM641 1161v17h-14l-2 -15zM688 1135q-43 20 -51 20q0 -12 -21 -12q47 -8 72 -8zM612 1217q2 -2 -61 -3q29 -8 41 -8q14 1 20 11zM604 1143v12q-6 -2 -18.5 -7t-28.5 -7zM154 1423q-4 4 -15 4q0 -2 -4 -8q2 -2 6 -5t6 -5q7 6 7 14zM500 1018v78 q-12 12 -23 12q4 -86 0 -90h23zM137 1333v17q0 23 -28 36q-23 6 -46 15q-6 -16 -12 -55q25 -7 86 -13zM743 891q0 86 -10 182q0 4 -7 14.5t-7 14.5q-25 0 -75 4t-52 4q-27 0 -57 -12q4 -135 26 -310q20 -147 39 -294h55q6 0 8.5 4t6.5 4l28 -6q18 -4 41 2q-2 12 -6 112 q0 39 5 165t5 116zM760 178q0 10 -2 76q-2 74 -8 205q-25 -6 -54 -4q41 -138 64 -277zM647 463q-25 0 -39 4q-43 -313 -43 -334l4 -10q0 4 5 11l6 7q30 203 67 322zM858 37v37q-16 8 -29 8q-2 0 -26 -4q-20 -2 -29 0v-41q70 4 84 0zM565 88q-29 -10 -22 -10q-4 0 -15.5 6 t-15.5 6q-27 0 -27 -35v-12q23 6 76 0q0 35 4 45zM684 1333l-7 -2t-13 -2l-5 29h21l2 -8q2 -9 2 -17zM631 1343q0 -14 -21 -22q-10 6 -10 14q0 18 18 29q13 -9 13 -21z" />
<glyph unicode="l" horiz-adv-x="1091" d="M1061 367q0 -43 -14 -56q-41 -39 -189 -151q-190 -145 -235 -146q-4 0 -80 35q-84 41 -123 53q-29 10 -156 31q-45 14 -129 39q-111 549 -110 705q0 33 2 36q10 25 116 99q86 61 258 170q0 29 -28 78q-37 61 -45 81q-10 29 -2 86q-31 8 -31 37q0 12 21.5 30.5t25.5 18.5 q18 0 30.5 -16t12.5 -27q0 -25 -31 -38q-6 -4 -6 -27q0 -43 6 -55q23 -47 43 -95q27 -55 35 -55q2 0 59.5 35t63.5 35t27.5 -9.5t31.5 -11.5q8 23 9 86q0 74 -15 105q-6 23 -33 61q-18 12 -36 25q-8 6 -9 30q0 53 48 54q51 0 51 -51q0 -37 -27 -43q37 -47 45 -91 q23 -102 -2 -190q23 -18 66 -29q70 -18 71 -18q43 -20 131 -51q23 -2 48.5 -6.5t30.5 -16.5t12 -164q2 -66 10 -194q6 -78 26 -238q21 -149 21 -151zM602 1561q0 29 -24 28q-10 -2 -19 -12q-8 -12 0 -31q6 -10 19 -10q24 -2 24 25zM358 1456q14 20 0 29q-4 2 -16 2 q-16 0 -20 -12t2 -19q20 -20 34 0zM913 1069q-123 43 -284 109v-72q8 -4 -8 -31q-14 16 -17 58q-2 29 -4 59q-25 18 -41 18q-20 0 -119 -71q0 -16 4.5 -50t4.5 -49q-4 -20 -9 -57h-14q-12 6 -14 59v82q-86 -51 -318 -196q47 -4 256 -70.5t205 -66.5q0 -1 358 278zM1001 354 q-51 352 -67 645q-131 -96 -359 -264q10 -231 76 -645q71 41 350 264zM600 86q-70 348 -72 649q-98 45 -225 90q-184 68 -207 68h-22q0 -137 41 -352q47 -236 51 -326q104 -23 209 -45q143 -29 225 -84zM877 682q18 -16 18 -45q0 -33 -25 -41q-14 -4 -24 0q-16 6 -12 49 q4 49 20 47q11 0 23 -10zM758 567q2 -47 -25 -47q-12 0 -24 12q-37 39 0 74q14 10 24 12q23 0 25 -51zM418 463q0 -104 -78 -105q-78 0 -78 105q0 133 76 133q80 0 80 -133zM385 467q-4 96 -31 96q-8 0 -6 -2t-6 -2t-13 7l-5 7q-8 -6 -21.5 -46t-13.5 -52q0 -84 53 -84 q43 0 43 76z" />
<glyph unicode="m" horiz-adv-x="1142" d="M1106 1493q0 -45 -34 -70.5t-81 -25.5q-8 0 -59 37q-51 0 -115.5 -60.5t-75.5 -107.5q131 -41 207 -191q57 -109 72 -248q2 -18 0 -61q-2 -49 -2 -47v-156q0 -6 15.5 -180t15.5 -180q0 -61 -142 -140q-98 -53 -391 -53q-145 0 -237 29q-102 31 -216 117q-12 12 -16 43 q-6 80 -6 139q0 115 22 317q16 160 27 209q18 106 43 162q41 98 123 156q33 16 100 53q0 170 35 223q12 20 58.5 43t74.5 27q31 66 86 65q57 0 78 -6q43 -14 43 -65q0 -39 -37 -63.5t-78 -24.5q-33 0 -58 20l-26 21q-16 0 -55 -20.5t-45 -41.5q-16 -37 -18 -102v-45 q31 4 102 12q63 10 70 10q43 0 100 -12q16 59 88 131t121 72q6 0 13 -2t16 -2q18 0 29.5 23.5t23.5 31.5q20 12 90 12q14 0 26.5 -20.5t12.5 -28.5zM1065 1491q0 20 -25 20q-27 0 -43 -26.5t-12 -32.5q20 -16 45 -8q35 12 35 47zM680 1522q0 8 -12.5 19t-26.5 11 q-51 0 -59 -22q-6 -14 0 -29q6 -16 32 -16q66 33 66 37zM965 358q0 -23 -11 138q-8 143 -4 217q6 94 -8 172q-12 72 -31.5 123t-72.5 114q-68 82 -121 82q-8 0 -16.5 -13t-16.5 -13t-16.5 18t-10.5 23q-12 0 -39.5 3t-33.5 3q-78 0 -172 -39q-4 -20 -9 -41q-10 -29 -24 -29 t-19 24l-4 23q-53 -20 -102 -71.5t-66 -102.5q-33 -102 -43 -172q-41 -340 -41 -430q0 -47 91 -108q76 -49 102 -54q119 -18 209 -18q82 0 192 18q25 2 105 25q33 10 88 41q74 38 74 67zM981 203q0 6 -6 27.5t-6 29.5q-51 -49 -207 -86q-141 -35 -246 -35q-6 0 -58 3t-59 3 q-84 0 -145 33q-53 27 -150 113v-39q0 -41 9 -49q37 -39 190 -86q145 -45 209 -45q156 0 264 18q37 6 121 44t84 69zM872 664q0 -37 -18 -70q-20 -39 -49 -39q-33 0 -53 39q-14 29 -15 55q0 94 70 94q27 0 47 -34q18 -27 18 -45zM643 545q0 -23 -16.5 -40.5t-34.5 -17.5 q-20 0 -33.5 20.5t-13.5 35.5q0 20 15 42.5t36 22.5q47 0 47 -63z" />
<glyph unicode="n" horiz-adv-x="1368" d="M1321 1241q0 -51 -55 -84q-43 -20 -88 -41q-51 -18 -148 -57q-31 -14 -321 -103q-84 -25 -254 -73q6 -8 24 -23q125 -61 142 -69q123 -72 122 -117q0 -45 -71 -74q-53 -25 -88 -25q-6 0 -64.5 5.5t-64.5 5.5q-29 0 -37 -8q-4 -72 6 -93q29 -59 91.5 -144t72.5 -85 q4 0 46 10t48 10q31 0 51.5 -30.5t20.5 -52.5q0 -49 -78 -84q-59 -27 -101 -27q-55 0 -83 35l-62 102q-2 -29 -14 -88q-6 -18 -114.5 -62t-141.5 -44q-35 0 -57.5 21.5t-22.5 51.5q0 47 80 80q53 20 104 39v189q-2 141 -39 315q-4 16 -69 108q-117 162 -117 326 q0 158 143 262q190 141 480 142q135 0 286 -43q162 -47 256 -123q117 -95 117 -152zM1257 1241q0 39 -83 92q-70 45 -101 60q-45 20 -133 47l-135 39q-74 16 -160 16q-186 0 -338 -65q-211 -94 -211 -285q0 -43 11.5 -105.5t21.5 -78.5q45 -61 88 -125q59 -84 68 -125 q33 -190 32 -406q0 2 3.5 -28.5t1.5 -51.5q-2 -29 -11 -45q-23 -35 -84 -47q-68 -12 -88 -31q0 -2 3 -12t3 -12h27q14 0 82 26q78 29 113 58q8 6 10 106q2 76 35 76q25 0 69.5 -104.5t93.5 -104.5q18 0 66 15q66 18 66 40q0 8 -9.5 20.5t-17.5 12.5q-6 0 -49 -10t-47 -10 q-37 0 -207 262q-12 39 -10 82q2 37 4 76q-4 6 -25 30q-12 18 -12 25q0 6 8 14q129 -53 238 -53q53 0 94 35q-47 51 -168 114q-25 8 -57 25q-23 18 -46 37q-12 14 -12 39q0 33 19 43q45 23 98 37q41 8 80 18l368 107q301 92 301 147zM1073 1266q0 6 -8 -11q-12 -23 -23 -22 q-25 0 -26 29q0 35 28 34q8 0 17 -12q2 -2 10 -18q2 -8 2 0zM922 1208q-12 -25 -37 -22q-27 2 -27 35q0 39 37 39q18 0 27 -13q12 -14 0 -39z" />
<glyph unicode="o" d="M1989 633q0 -10 -25 -68q-25 -63 -41 -71q-23 -12 -47 -13q-45 0 -76 19q-18 10 -18 37q0 12 6 49q6 29 2 39q-92 242 -168 350q-100 -131 -100 -150q0 -6 18 -57q20 -59 27 -86q14 4 26 4q49 0 49 -88q0 -27 -2 -31q-12 -16 -79 -41q-59 -23 -74 -22q-29 0 -47 35 q-16 29 -17 59q0 8 11.5 34.5t11.5 35.5q0 10 -8 20q-8 -8 -30 -40t-48 -44q29 -137 29 -248q0 -96 -138 -137q-86 -27 -198 -26q-76 0 -201 36q-141 41 -174 90q-20 29 -21 130q0 8 14.5 109t14.5 110q0 6 -59 94q-12 -20 -31 -66q8 -20 14 -63q-8 -35 -41 -105 q-10 -18 -41 -18q-16 0 -151 45q-4 33 5 89t19 65q18 12 48 14h43q51 147 51 151q0 8 -43 68q-47 -31 -148 -135q-119 -121 -153 -152q10 -55 8 -80q-2 -18 -48 -44.5t-63 -26.5q-16 0 -37.5 28.5t-21.5 42.5q-27 61 -27 109q0 37 19 55q27 33 71 41q41 78 230.5 269.5 t224.5 191.5q20 0 51 -63q16 -35 31 -70q35 57 72 115q61 98 84 98q29 0 172 -258q8 72 51 240q8 18 47 18q12 0 29.5 -12.5t17.5 -18.5q4 -63 29 -217q131 236 161 236q37 0 58 -56q10 -37 21.5 -68.5t35.5 -105.5q20 49 78 133q70 102 94 103q31 0 60 -43l36 -62 q55 -55 68.5 -80.5t54.5 -138.5q49 -133 119 -299q6 -14 35 -26.5t29 -32.5zM1389 1016q0 12 -37 117.5t-52 123.5q-154 -238 -153 -239q0 -6 11 -72.5t11 -73.5q4 -63 -28 -63q-8 0 -11.5 2t-5.5 2q12 -123 13 -164q6 -8 18 -8t45 27.5t42 42t9 65.5q0 16 -2 51v54 q0 100 31 100q23 0 55 -86q54 127 54 121zM1595 586v49q-37 0 -41 2q-16 8 -20 25q-16 43 -39 118q0 -2 -15.5 -21.5t-15.5 -27.5t7.5 -25.5t7.5 -21.5q0 8 -2 -63q0 -45 18 -72q71 25 100 37zM1319 864q-8 0 -27 19q0 -41 -10 -109q6 14 18.5 45t18.5 45zM1124 856v68 q-2 37 -14 51t-43 61q-4 6 8 11.5t19 3.5q0 39 -4 104q-6 76 -9 100q-8 18 -30 19q-35 -145 -47 -227q2 0 8 2t14 2q31 0 18 -19q-16 -8 -32 -18q-27 -25 -27 -96q0 -33 14 -62q16 0 56.5 -6t46.5 -6q8 0 22 12zM975 801q0 6 -18.5 34.5t-20.5 38.5q-2 49 -4 134 q-2 29 -55 112q-45 70 -91 137l-67.5 -112.5t-61.5 -77.5q10 -47 50 -96q33 57 51 57q20 0 24 -10q6 -31 15 -86q31 -160 30 -203q0 -23 -4 -33q37 -49 51 -49q6 0 39 16.5t43 20.5q0 23 9.5 68t9.5 49zM1929 623q-18 12 -43 34q-20 53 -61 150q-25 41 -60 108 q-31 94 -86 220q-31 51 -92 122q-47 -63 -110 -161q-76 -180 -170 -391q-70 -121 -142 -121q-10 0 -34.5 24.5t-28.5 36.5q-10 39 -25 164h-43q-23 -59 -45 -119q-45 -94 -119 -94q-31 0 -51 33q-33 76 -94 200q-49 86 -172 355q-219 -158 -416 -422q-6 -10 -55 -51 q-33 -27 -33 -56q0 -10 23.5 -46t36.5 -42q41 12 41 45q0 8 -3.5 24.5t-3.5 22.5q0 8 2 11.5t123 132.5q199 213 234 213q23 0 130 -165t107 -210q0 -8 -5 -17l-5 -8q-14 -61 -14 -159q0 -37 14 -103q31 -18 80 -45q25 -8 113 -28q102 -25 131 -25q63 0 196 33q31 8 41 10 q25 12 28 30.5t3 47.5q0 49 -10 137q-8 82 -6 90q2 18 24 37q31 27 35 31q43 66 70 108q147 258 180 258q80 0 186 -297q6 -16 27 -63q16 -37 16 -45q0 -2 -11 -26.5t-11 -43.5q0 -14 8 -24q4 0 20.5 -3.5t22.5 -3.5q8 0 16 3q16 27 41 88zM766 866l-18 92q0 -2 -10.5 -11 t-10.5 -17t18.5 -33t20.5 -31zM600 801q0 4 -39 43q-6 -47 -14 -92q-10 -51 -33 -70q-14 -12 -86 -6q-2 -29 -12 -103q76 -10 114 -24q0 2 21 45q14 27 14 45q0 10 -6 36.5t-4 37.5q6 16 25.5 49t19.5 39zM1118 389q-6 -6 -20 -6q-18 0 -25 12q-4 10 0 21q6 20 25 18 q12 -2 20 -12q10 -19 0 -33zM985 373q-8 -8 -22 -8q-20 0 -29 18q-6 14 0 27q10 20 29 18q12 0 22 -12q20 -27 0 -43z" />
<glyph unicode="p" horiz-adv-x="854" d="M791 201q0 6 -41 -47q18 -43 4 -66q-47 -80 -164 -80q-61 0 -107 47q-18 -2 -51 2l-39 4q-92 -49 -112 -49q-12 0 -95.5 21.5t-91.5 29.5q-25 31 -24 56q0 6 9 24.5t9 24.5q0 4 -43 47v483q0 4 -5 98.5t-5 100.5q0 178 28 227q53 92 273 129q27 0 82 7v106q-2 72 -8 117 q-2 6 -12.5 19.5t-10.5 21.5q0 14 12.5 47t22.5 33q27 0 29 -23v-326q88 -16 174 -32q106 -27 118.5 -69t30.5 -222q16 -168 17 -203v-528zM434 1556q-4 29 -6 19q-2 -4 -8 -10q-6 -12 -4 -33q4 -23 8 -14l7 6q7 5 3 32zM707 1104q-8 31 -26.5 42t-102.5 34q-90 27 -119 26 q-10 0 -13 -6l3 -41q2 -23 -19 -31q-16 14 -14 43t-4 39q-246 -27 -328 -104q94 -72 229 -72q78 0 219 33q155 35 175 37zM735 725q-2 16 -5 53t-5 56q0 -8 -6 -25.5t-6 -22.5q-1 -20 22 -61zM690 827q-4 -2 -18.5 -8t-18.5 -8q16 -8 27 -23q0 6 5 20.5t5 18.5zM721 696 q0 2 -12 15v-19q4 0 12 4zM668 721q0 39 -27 51q-45 20 -59 6q-12 -8 -13 -41q0 -72 52 -71q47 0 47 55zM721 893q-2 57 -10 170q-221 -82 -387 -82q-178 0 -234 74q0 -14 -3 -44t-3 -34q0 -6 4 -53q6 -53 7 -69.5t95 -39.5q80 -20 99 -20h78q84 0 206 39q99 30 148 59z M541 768l-19 6q0 -8 13 -20q0 6 6 14zM580 639q-10 4 -29 23q-10 -23 -10 -29q14 0 20 1zM520 684q0 23 -23.5 49.5t-47.5 26.5q-20 0 -31 -70q0 -16 14 -37q18 -27 41 -26q16 0 31.5 20.5t15.5 36.5zM401 758q-6 0 -16 -2t-12 -2q6 -6 11 -16.5t7 -12.5q10 23 10 33z M412 618q-14 16 -27 37q-12 -18 -37 -43q21 6 64 6zM358 680q-12 74 -45 74q-23 0 -43 -16.5t-20 -45.5q0 -14 17.5 -34.5t37.5 -20.5q6 0 29.5 13.5t23.5 29.5zM246 764q-18 0 -39 10q6 -18 16 -49q2 4 10.5 18.5t12.5 20.5zM113 793q-8 4 -23 10q0 -23 6 -29zM250 629 q-31 25 -25 47q-18 -18 -32 -43q18 -4 57 -4zM190 709q0 10 -12 37.5t-31 27.5q-12 0 -28.5 -21.5t-16.5 -31.5q16 -59 41 -59q47 0 47 47zM741 256q0 2 -5 51t-5 72q0 139 2 214t2 58q-55 -29 -82 -39q-47 -20 -75 -24q-197 -20 -222 -21q-47 0 -168 21q-31 12 -90 33 q0 -332 -4 -406q213 -109 359 -109q53 0 155 37q113 41 131 78q2 4 2 35zM717 102v29q-127 -63 -197 -65q23 -18 64 -19q84 0 133 55zM358 70q-135 18 -233 80q-16 -33 -16 -29q0 -25 79 -43q61 -16 99 -17q6 0 33.5 4.5t37.5 4.5z" />
<glyph unicode="q" horiz-adv-x="1728" d="M1708 1198q0 -53 -43 -98q-20 -20 -104 -86q-35 -41 -107 -127q-90 -106 -321 -342l-209 -215q0 -2 11 -44t9 -65q0 -2 3 -11t3 -17q0 -102 -45 -141.5t-141 -39.5q-16 0 -52 16.5t-48 34.5q-27 -16 -55.5 -33.5t-86.5 -17.5q-76 0 -116 51q-59 -33 -82 -32 q-145 0 -146 102q0 23 8 49q-2 10 -10 49q-4 31 -4 56q8 8 21 18q176 23 223 23q8 0 73.5 -7.5t71.5 -7.5q70 0 82 9q43 29 277 266q139 129 407 397q-436 -283 -958 -508q-31 -14 -113 -24q-68 -10 -90 -11q-125 0 -154 86q-8 25 -8 160q0 82 10.5 103.5t40 37t60.5 29.5 q16 2 37 14q12 20 88 115q-8 10 -9 25q0 29 29 58.5t57 29.5q16 0 28.5 -19.5t12.5 -33.5q0 -35 -41 -68q-14 -2 -36 -10q-45 -39 -66 -72q-4 -8 -12 -25q-4 -4 10 -4q72 0 78 15q2 6 123 86q2 18 12 45q39 41 68 41q37 0 38 -66q0 -70 -55 -69q-8 0 -24.5 9t-24.5 9 q-10 0 -41 -23.5t-37 -33.5t14.5 -15.5t26.5 -11.5q10 -16 12 -94q2 -94 11 -131q131 94 532 297q96 49 225 141l222 160q10 135 161 135q78 0 119 -55q35 -46 35 -109zM1638 1202q0 96 -90 96q-68 0 -94 -41q-2 -23 -16 -55q-272 -207 -518 -340q-143 -68 -418 -211 q-49 -29 -140 -80q-16 35 -16 41q0 2 2 43q4 35 2 56q-2 41 -12 92q-6 6 -82 6q-43 0 -63 -8q-4 -2 -11.5 -13.5t-11.5 -11.5q-2 2 -3 11.5t-11 9.5q-8 0 -35 -10.5t-35 -10.5t-16.5 -49t-8.5 -88q0 -152 82 -152q78 0 156 29q14 6 45 21q233 111 469 219q242 117 426 245 q49 35 118.5 73t82.5 38q31 0 30 -35q0 -23 -81 -96q-47 -41 -95 -82q-61 -70 -170 -182q-117 -123 -231 -244q-197 -205 -229 -205q10 0 -115 8q-115 6 -174 5q-102 -4 -164 -13v-37q76 31 119 31q31 0 43 -6t39 -45q86 51 127 51q8 0 70.5 -15.5t70.5 -15.5q-4 0 46 32 t97 34q33 57 195 221q225 229 362 389q25 18 64 54q35 29 104 108q90 104 90 133zM492 965q12 10 10 28q-2 20 -17 21q-20 2 -30 -21q-8 -16 0 -28q14 -18 37 0zM901 293l-10 2l-8 -16l10 -5zM899 164q0 80 -68 80q-41 0 -90 -35t-49 -82q0 -63 68 -64q139 1 139 101z M635 131q0 31 -32 52.5t-77 21.5q-70 0 -77 -121q20 -20 73 -21q113 0 113 68zM377 141q0 37 -64 37q-84 0 -84 -41q0 -55 90 -55q18 0 38 18t20 41zM262 672q0 -45 -15.5 -55.5t-29.5 -6.5q-23 4 0 62q12 29 23 28q22 1 22 -28zM178 635q0 -41 -28 -43q-12 -2 -23.5 13.5 t-11.5 23.5q0 39 35 39q28 0 28 -33zM303 1020q10 4 14 18q6 25 -12 25q-27 0 -26 -29q-1 -22 24 -14z" />
<glyph unicode="r" horiz-adv-x="1142" d="M1104 145q0 -115 -105 -114q-43 0 -96 71q-23 -16 -47 -30q-14 -8 -57 -9q-96 0 -117 56q-8 16 -12 63q-2 35 -15 41q2 -37 -8 -54t-59 -36.5t-74 -19.5q-57 0 -88 40t-31 93q0 23 14.5 54.5t34.5 41.5v422q-14 45 -38 139q-18 76 -78 234q-47 123 -47 168q0 61 81 106 q-33 20 -73 21q-57 0 -168 -80q10 -20 2 -58q-8 -41 -35 -41q-68 0 -68 56q0 63 50 77q10 0 28 3q41 33 84 62.5t99 29.5q57 0 135 -49l413 153q51 2 74 -59q14 -45 29 -90q6 -12 72 -224q29 -88 28 -180q0 -145 -45 -145q-18 0 -53 39q-25 27 -49 53l-17 -70 q-14 -55 -37 -55q-14 0 -30.5 16.5t-34.5 36.5q4 -47 27 -252q61 141 102 142q25 0 35 -37l16 -55q74 92 96 92q33 0 37 -95q-2 -61 -4 -120q16 -2 35 -17q0 -2 -3 -18.5t-3 -22.5t-19.5 -135t-19.5 -135t12.5 -18.5t14.5 -20.5q12 -31 12 -70zM977 1104q-29 -14 -86 -41 q18 -25 38.5 -51.5t43.5 -36.5q0 90 4 129zM834 1026q-12 -6 -39 -21.5t-37 -23.5q41 -41 59 -49q4 14 8.5 47t8.5 47zM1020 598q0 -8 0 100q-51 -47 -55 -94q30 0 55 -6zM1047 500v35q-121 16 -205 32q-59 12 -62 13q-37 12 -42 36.5t-11 167.5q-6 129 -33 226 q84 55 264 153q-33 119 -127 365q-143 -53 -288 -107q-211 -80 -211 -114q0 -25 47 -150q25 -61 49 -123q0 -4 45 -170q29 -100 29 -147q0 -41 -13 -359q12 0 24.5 2t16.5 2q27 0 62 -25.5t51 -66.5h17.5h19.5t17.5 13.5t15.5 13.5q37 16 65 16q29 0 74 -28.5t57 -57.5 q55 90 92 78q6 29 19 88q2 20 8 58q17 63 19 49zM901 612q-6 51 -16 93q-27 -43 -41 -82q12 -1 57 -11zM96 1329q-6 20 -18 23q-10 0 -15.5 -11.5t-5.5 -25.5q0 -12 6 -17q12 -10 27 0q12 8 6 31zM1047 154q0 90 -50 88q-43 -2 -43 -82q0 -25 14.5 -48.5t37.5 -23.5 q41 0 41 66zM862 168q0 29 -24 53q-8 6 -23 15q-27 16 -39 16q-29 0 -45 -17.5t-16 -37.5q0 -31 23.5 -53.5t56.5 -22.5q67 0 67 47zM594 233q0 66 -68 66t-67 -61q0 -68 55 -68q80 0 80 63zM901 1206q0 -39 -31 -39q-37 0 -36 45q0 41 30 41q37 0 37 -47zM805 1149 q0 -41 -39 -41q-14 0 -29 22q-10 14 -10 23q0 16 13.5 31.5t25.5 15.5q39 0 39 -51z" />
<glyph unicode="s" horiz-adv-x="890" d="M563 -193v0v0v0zM838 1012q0 -6 -15.5 -117t-15.5 -117v-264q0 -31 -80 -49q-59 -14 -104 -14v-191q10 2 20 2q74 0 74 -137q0 -49 -32 -80t-73 -31q-49 0 -80 43q-25 35 -24 74q0 76 63 113v192l-6 4q-102 -12 -174 -6v-72q0 -4 3 -30.5t3 -36.5q18 -8 45 -37 q2 -6 27 -47q12 -20 12 -47q0 -82 -92 -82q-133 0 -133 102q0 94 78 117q6 72 -15 127h-186q-16 0 -49 33t-33 49v670q0 31 53 155q49 113 60 125q47 63 149.5 98t202.5 35q113 0 195 -55q92 -61 118 -178l5 -10q4 -9 4 -17v-321zM774 1292q0 115 -80 178q-72 59 -182 60 q-55 0 -141 -23q-104 -29 -139 -65.5t-78 -155.5q-39 -111 -39 -127v-645q20 -20 28 -20q16 -2 150 -2q137 0 201 6q102 12 168 16q29 8 81 21v264q0 6 13.5 96t13.5 96v164q0 8 2 69.5t2 67.5zM659 129q0 74 -30 74q-25 0 -44.5 -26.5t-19.5 -47.5q0 -16 14.5 -36.5 t32.5 -20.5q47 0 47 57zM414 152q8 12 0 38q-14 49 -60 50q-14 0 -27.5 -20.5t-13.5 -35.5q0 -39 39 -39q52 -11 62 7zM653 924q0 -33 -24 -33q-33 0 -33 41q0 37 27 37q30 0 30 -45zM559 879q0 -41 -31 -41q-27 0 -26 39q0 35 26 34q31 1 31 -32z" />
<glyph unicode="t" horiz-adv-x="1120" d="M1053 748q0 -494 -514 -494q-207 0 -334 120t-127 308q0 23 22 127q27 125 148 223q104 84 227 109q2 61 6 123q8 98 51 98t43 -109q0 -27 -3 -61.5t-3 -30.5q10 -12 13 -12h108q14 23 15 61q0 20 -4.5 51t-4.5 37q0 8 2 9q10 10 22.5 22t27.5 12q41 0 49 -96 q2 -51 4 -104q25 -10 71 -37q31 -16 60 -35q39 -25 51 -55q70 -155 70 -266zM721 651h-109q2 -92 0 -190h109v190zM461 455q8 78 -6 217q-109 0 -111 -2v-215h117z" />
<glyph unicode="u" horiz-adv-x="1073" d="M1006 1096q0 -57 -17.5 -154.5t-17.5 -112.5v-180q0 -166 5 -251t5 -124q0 -145 -16 -192q-10 -31 -58.5 -59.5t-91.5 -36.5q-4 -2 -45 -2q-49 0 -61 6q-43 20 -154 59q-98 35 -152 66q-18 18 -200 112q-39 18 -80 35q-49 25 -55 41q-14 35 -18.5 106.5t-8.5 140 t-4 198.5q0 18 6 223q4 152 -2 180q-6 33 6 149q6 14 10 39t6 50q6 35 19 45q23 18 72 51q70 33 137 67q100 45 141 45q25 0 115 -49q72 -39 100 -59q92 -66 152 -113q106 -86 194 -184q13 -14 13 -96zM909 1171q-262 252 -415 322q-2 0 -33 18q-20 14 -33 15 q-29 0 -127 -47q-63 -31 -129 -62q98 -43 483 -225q37 -23 72 -42.5t66 -19.5q35 0 61 15q41 20 55 26zM918 1092q-55 -43 -132 -62q-14 -158 -30 -418q-2 -119 -4 -262q18 23 56 42.5t62 19.5q4 0 13.5 -2t19.5 -2v65q4 45 6 90q4 92 4 142l-4 331q3 21 9 56zM721 944 q0 94 -16 117q-43 59 -105 86q-47 16 -92 33q-154 82 -289 135q-35 16 -100 41q-2 -61 2 -219q6 -72 0 -136q-6 -102 -6 -256q0 -156 20 -421q74 -29 217 -97q88 -51 178 -86q113 -47 142 -61q-6 8 -4 147q2 41 11 124l9 83v168q0 6 16.5 171t16.5 171zM913 215 q0 111 -8 120t-37 9q-86 0 -118 -96q-14 -41 -15 -86q0 -2 3 -42t3 -61l-6 -8h56q12 0 62 23.5t55 36t5 104.5zM895 719q0 -41 -27 -41q-23 0 -22 10q-2 18 0 62q4 10 22 10q27 0 27 -41zM827 709q0 -39 -16 -56q-6 -6 -16 0q-25 16 -25 43q0 18 13.5 36t21.5 18 q22 -2 22 -41z" />
<glyph unicode="v" horiz-adv-x="1470" d="M1352 887q0 -133 -24.5 -393.5t-24.5 -384.5q0 -37 -46 -60q-119 -12 -260 -12q-127 0 -382 13t-382 13q-119 0 -145 35q-23 27 -22 148q0 55 10 164.5t10 162.5q0 96 -5 289t-5 289q0 68 18 178q23 125 49 166q16 27 82 27q92 0 277.5 -2t277.5 -2q84 0 249 -31t233 -31 q84 0 86 -88zM1260 883q0 -2 -7 481q-49 0 -215 28.5t-260 28.5q-391 0 -565 9q-47 -240 -47 -416q0 -55 4 -178q6 -154 8 -252q0 -57 -10 -166q-10 -117 -10 -170q0 -16 2 -47t4 -45q139 0 420.5 -13.5t421.5 -13.5q35 0 103.5 3t98.5 3q52 488 52 748zM879 739 q0 -55 -37 -55q-45 0 -45 70q0 51 39 51q43 0 43 -66zM584 715q0 -27 -43 -47q-18 10 -33 22q0 31 2 64q6 41 33 41q41 0 41 -80z" />
<glyph unicode="w" horiz-adv-x="1433" d="M1360 889q0 -98 -4 -219q-4 -57 -9.5 -154.5t-17.5 -169.5q-6 -78 -20 -221v-39q0 -25 -15.5 -42t-29.5 -19q-121 -12 -269 -13q-6 0 -311 16.5t-311 16.5t-82 -3t-84 -3q-123 0 -152 39q-20 27 -20 149q0 -4 10 140.5t10 197.5q0 125 -5 354.5t-5 213.5q0 145 16 198 q12 63 54 185q14 27 86 26q-2 0 71.5 -4t110.5 -4q61 0 191.5 2t195.5 2q78 0 295 -29q14 -2 158 -32q29 -2 57 -2q43 -2 61 -27q4 -4 15 -66q14 -94 14 -241q0 -125 -10 -252zM1266 883l-6 497q-41 -2 -97 13q-184 45 -393 45h-90.5h-104.5q-188 0 -387 10 q-20 -88 -41 -174q-8 -35 -8 -139q16 -356 11 -560q-2 -80 -13 -217q-8 -129 -8 -127q0 -6 3 -46t3 -50q377 0 635 -14q47 -2 145 -8q84 -6 89 -7l84 4q83 5 124 5l9 75q45 439 45 693zM1087 1004q0 -100 -65 -101q-31 0 -94 25q-104 43 -105 43q-78 25 -231 71 q-25 8 -100 9q-8 0 -72 -5.5t-72 -5.5q-72 0 -72 134q0 57 37 75q23 10 86 11q51 0 215 -43q203 -55 252 -64q143 -27 162 -35q59 -28 59 -114zM872 735q0 -57 -38 -57q-45 0 -46 74q0 53 39 53q45 0 45 -70zM569 711q0 -18 -16 -32.5t-29 -14.5q-8 0 -32 20v66q6 45 34 45 q43 0 43 -84zM1094 457q0 -6 -41 -90q-49 -100 -62 -131q-10 -23 -43 -23q-16 0 -71 94q-33 55 -64 109q-14 -37 -33 -113q-4 -29 -8 -57q-8 -43 -35 -43q-23 0 -92 92q-37 51 -74 100q-10 -57 -34 -159q-6 -18 -31 -19q-20 0 -96 76l-78 78q6 -55 -27 -90h-18 q-10 10 -11 28q0 41 11 88q14 66 41 66q16 0 35.5 -26.5t37.5 -51.5q29 -37 76 -74q16 57 35 115q23 70 57 70q10 0 74 -84l66 -90q18 66 39 129q27 82 69 81q16 0 74 -94q29 -49 57 -100q18 43 39 86q35 72 70 72q37 0 37 -39z" />
<glyph unicode="x" horiz-adv-x="1320" d="M1260 1149q0 -6 -7.5 -118.5t-7.5 -119.5v-174q0 -27 10 -75l-6 -330q-2 -57 -71 -121q-63 -55 -125 -109q-53 -49 -107.5 -96t-105.5 -47q-31 0 -31 23q0 109 -8 168q-8 90 -31 272q-20 -2 -69.5 -8t-55.5 -6q2 0 -34 3t-58 1h-6q-6 -115 -4 -123q0 -25 7 -80t7 -59 q0 -176 -49 -177q-39 0 -129 56q-25 16 -62 55q-41 47 -53 57q-61 41 -123 82q-76 55 -108 119q-2 2 6 121q12 188 4 328q-2 37 -12 129q-10 86 -11 88v243q0 -8 13 109q2 35 76 74q115 61 251 116q190 76 183 76q33 0 39 -24q-2 4 -2 -35v-234q0 -18 -11 -78q10 0 38 2.5 t34 2.5q82 0 119 -29q6 90 16 258q-2 43 -2 84q2 78 37 78q37 0 145 -115q72 -78 117 -137q23 -31 88.5 -93.5t91.5 -99.5q7 -10 7 -57zM1188 1174q-119 80 -223 239q-10 14 -113 117q-8 -193 -21 -322q113 -45 175 -139q68 -2 95 -14.5t42 -65.5q10 -39 18 -80q9 93 27 265 zM1059 1018l-12 12h-17l4 -16zM1075 987l-2 14l-26 -6v-8h28zM1096 952q-2 2 -5.5 11.5t-5.5 11.5q-39 -12 -36 -12q0 -6 6 -17q16 4 41 6zM1104 909q0 2 -2 11.5t-2 11.5q-16 0 -37 -4q-6 0 0 -10v-9q14 2 41 0zM1104 850v29q-23 -8 -41 0l-4 -19q33 0 45 -10zM1110 803 q-6 12 -6 28q-10 -10 -21 -10q-4 0 -12 2t-18 2v-16q43 0 57 -6zM1169 688v66l-4 71l-4 -98zM1114 768q-12 0 -70 4l-3 -11t-3 -20h72zM377 1391v86q-29 -10 -33 -11v-75h33zM1114 678v18q-31 4 -90 15q2 -27 -4 -33h94zM1114 614v19q-33 10 -104 20q0 -14 -11 -32 q23 4 58 4q41 -1 57 -11zM1116 569l-2 15l-115 8l-10 -12zM238 1329v84q-12 -6 -39 -18q-2 -10 -4 -27v-45q16 6 43 6zM967 870q0 186 -201 283q-53 25 -123 25q-51 0 -100 -35q-20 -27 -56 -66q-57 -66 -79 -137q-35 -119 -35 -219t94 -168q82 -59 176 -59q195 0 254 116 q23 45 46.5 130t23.5 130zM1171 672l-8 -41q2 -18 2 -33q0 -76 -65 -76q-33 0 -103 6q-8 2 -20 8.5t-19 6.5q-2 0 -38 -35q-45 -41 -78 -64q16 -94 37 -397q29 8 59 43q53 57 119 109q125 98 110 129zM348 1022q-16 4 -104 27q0 -12 -2 -38t-2 -34q45 8 94 0q2 6 7 22.5 t7 22.5zM319 913q2 14 0 33h-29.5h-49.5v-33q26 6 79 0zM311 872q-47 10 -78 17v-23zM508 1231q0 -2 -2 23.5t-2 76.5q-2 74 -2 195q-31 -10 -88 -35q0 -37 -1 -76t-20 -53q-10 -8 -37 -8q-35 -2 -37 -2q-16 18 -16 51q0 49 2 45q-12 -6 -31 -16q-6 -51 -10 -105 q-8 -33 -71 -33q-29 0 -29 43q0 16 6 47q-25 -12 -66 -34q0 -14 -3 -47t-3 -37q0 -137 4 -273q4 -74 15 -225l10 -141q0 -104 -18 -287q76 -49 223 -152q2 -2 69 -65q49 -49 68 -47q-4 94 -2 280q0 18 12 88q-16 8 -54 39t-44 31t-17.5 -5t-17.5 -5q-147 0 -156 47 q-14 86 -14 303q0 -23 -2 49q-2 53 0 94q4 59 16.5 90t24.5 31q4 0 14.5 -4t18.5 -4q49 0 133 -37q12 23 69.5 88.5t57.5 69.5zM301 803v22q-31 0 -61 17l-7 -29q31 0 68 -10zM291 741v23q-16 4 -47 14v-43q31 6 47 6zM291 674v26q-31 0 -41 7v-33h41zM340 567 q-27 66 -92 80v-80h92zM879 670q0 -35 -45 -58q-35 -16 -68 -16t-51 41q-14 33 -15 72q0 35 27 59.5t55 24.5q41 0 72 -48q25 -40 25 -75zM1071 236q-16 -16 -29 -17q-43 0 -43 37q0 12 12.5 28.5t26.5 16.5q12 0 33 -20v-45zM657 674q0 -78 -53 -78q-27 0 -55 12 q-37 18 -37 45q0 31 23.5 66t58.5 35q27 0 45 -25.5t18 -54.5zM999 205q0 -47 -51 -47q-14 0 -24.5 17.5t-10.5 31.5q0 55 33 55q16 0 34.5 -23.5t18.5 -33.5zM821 678q4 16 -6 34.5t-22 18.5q-39 0 -39 -49q0 -37 28 -37q31 0 39 33zM1053 244q10 14 0 22q-6 6 -16.5 -3 t-10.5 -17q0 -4 4 -6q13 -8 23 4zM604 645q16 14 0 41q-8 12 -18 14q-25 8 -25 -45q0 -16 23 -16q14 0 20 6zM975 213q-10 8 -23 0q-16 -8 -6 -27q2 -2 6 -2q25 0 25 25q0 2 -2 4z" />
<glyph unicode="y" horiz-adv-x="1079" d="M1040 1243q0 -59 -14 -80q-27 -37 -115 -43v-41q6 -63 19 -207q8 -127 -4 -352q10 -16 26 -53q6 -27 6 -68v-37q-2 -51 -4 -131q0 -29 -30 -127q-6 -20 -13 -38q-10 -31 -26 -37q-53 -27 -107 -27q-6 0 -165.5 -2t-166.5 -2q-365 0 -364 180v144q0 -2 -8 176q57 35 55 34 l15 -3q14 -3 44 -3q-2 43 -14 131q-10 82 -10 86v152q0 4 -6 68q-8 78 -15 143q-25 6 -73 20q-35 16 -35 113q0 49 17.5 124t31.5 97q90 143 338 162q68 4 164 4q393 0 438 -266q0 -4 10 -39q6 -21 6 -78zM963 1212q0 205 -113 281q-80 55 -262 55q-61 0 -156 -4 q-111 -6 -192 -45q-113 -57 -111 -164q-8 -37 -18 -84v-53q213 -25 256 -24q188 0 319 6q199 7 277 32zM877 539v45q8 219 -21 346q-12 57 -115 102q-12 4 -84 19q-84 16 -125 16q-68 0 -110 -6q-35 -6 -74 -17q-25 -6 -55 -6h-36h-54v-20q0 -6 8 -74q10 -78 14 -108 q2 57 64 57q61 0 98 -29q25 -23 29 -67q0 14 0 -62q0 -57 -10 -78q-18 -39 -80 -39q-59 0 -88 25q2 -20 14 -115h63q45 6 144 11q-10 10 -10 20q0 20 -5.5 130t-5.5 112q0 49 2 51q41 94 138 94q41 0 115.5 -46t90.5 -87q18 -49 21 -111q2 -127 -4 -155q27 0 76 -8zM748 567 q-2 70 -3 140q-8 88 -53 141q-12 4 -33 12q-66 29 -88 29q-80 0 -79 -96q0 -86 12 -230q8 -8 24 -14q55 -6 117 -6q87 -1 103 24zM367 752q0 53 -5 61q-12 23 -65 23h-16q-20 -82 -21 -113q0 -51 62 -51q37 0 43 26q2 5 2 54zM901 246q0 -10 -3 51t-3 147q-12 6 -27 11 q-25 10 -61 10h-680v-16q18 -145 20 -218q2 -39 5 -57q6 -37 18 -51q47 -47 131 -49l236 -4q39 0 135 6q14 0 38.5 7t28.5 7q6 0 22.5 -3t20.5 -3q47 0 56 6q63 47 63 156zM780 1266q0 -45 -55 -45q-31 0 -31 30q0 18 11 23q6 2 14 0q10 -4 12 -4q0 -2 -4 -7.5t-4 -9.5 q6 -2 12 -6q10 2 16.5 7.5t4.5 17.5q-4 12 -2 16q4 0 12 -2q14 -8 14 -20zM352 1444q0 -23 -19.5 -36t-29.5 -13q-29 0 -29 39t43 39q35 0 35 -29zM584 664q0 -31 -23 -31q-31 0 -31 47q0 27 29 27q25 0 25 -43zM324 741q-8 -16 -23 -16q-27 0 -27 31q0 33 25 32 q14 0 25 -16q8 -15 0 -31zM752 213q0 -41 -41 -41q-39 0 -39 45q0 37 45 37q35 0 35 -41zM416 215q0 -25 -31 -39q-23 -10 -35 -10q-41 0 -41 41q0 51 39 51q16 0 42 -15.5t26 -27.5zM334 1446q-6 6 -15 6q-6 0 -10 -8t0 -14q6 -6 17.5 2t7.5 14zM715 205q12 10 0 18 q-2 2 -8 0q-4 -2 -5 -8q0 -8 5 -10q6 -2 8 0zM391 209q-2 25 -26 14q-16 -4 -13 -22q4 -12 23 -8q18 4 16 16z" />
<glyph unicode="z" horiz-adv-x="1138" d="M1104 666q0 -6 -4 -31t-4 -35q-18 -424 -283 -524q-98 -39 -117 -43q-53 -16 -125 -17q-72 0 -131 19q-63 10 -184 43q-139 57 -190 172q-37 78 -37 207q0 180 73 344q29 68 58 135q43 82 100 125q109 82 246 82q45 0 69 -4q4 2 5 14q0 20 -17 111q-18 113 -41 172 q-2 4 -29.5 16t-27.5 35q0 33 16 72q20 51 56 51q88 0 88 -101q0 -55 -56 -59q14 -57 43 -184q-2 -47 19 -133q6 -16 78 -41q55 -27 163 -76q29 -12 80 -35q59 -25 105.5 -140.5t46.5 -174.5zM573 1505q6 12 0 37q0 12 -16 21.5t-33 5.5q-14 -4 -14 -68q0 -14 16 -22 q31 -15 47 26zM999 707q-6 16 -22 10q-10 -2 -10 -17q0 -12 8 -16q10 -4 19 4.5t5 18.5zM809 557v59q-8 45 -43 46h-31q39 -131 39 -166q0 -23 -6 -70q-4 -27 6 -43h21q14 190 14 174zM1014 543q-8 16 -4 57l4 68q-29 -14 -39 -15q-35 0 -35 56q0 10 20.5 25.5t32.5 13.5 q-4 37 -27.5 86t-41.5 61q-55 35 -166 84q-102 45 -113 45q-8 0 -13 -10t-9 -10q-16 0 -24.5 27.5t-43.5 27.5q-29 0 -45 -96q-10 -68 -10 -119q0 -78 12 -144.5t12 -76.5q0 -25 -16 -25q-43 51 -43 147q0 244 49 328h-37q-6 0 -71 -24q-127 -45 -201 -201q-16 -35 -86 -254 q25 0 73 -6t50 -6q6 0 39.5 5t40.5 5q119 0 243 -10q6 -4 10 -17h87q57 -2 67 -16q0 -6 -2 -13.5t-2 -9.5h-37q-47 12 -127 25q-205 12 -452 10q0 4 0 -106q0 -152 49 -215q61 -78 248 -119q129 -29 155 -29q115 0 262 78q-8 -2 -26 -2q-88 0 -113 12v15q12 8 41 8 q6 0 56 -10.5t57 -10.5q18 0 36 19q-96 6 -135 28q29 8 54 9q63 0 110 -17q6 8 6 21q-2 0 -63 6q-41 6 -62 22l9 6q29 4 77 0q59 -4 54 -4q8 0 16 10.5t10 12.5q-12 8 -82 10q-39 0 -53 19l8 8q78 8 146 2l2 7t2 15q-20 -4 -45 -4q-33 0 -54 13q10 10 11 14q70 10 98 4 q8 41 21 119q-49 8 -158 24l-6 -90q-4 -53 -29 -84q-61 -4 -80 19q10 158 12 153q-2 27 -20 80t-18 60q0 29 57 28q88 0 88 -76q0 -23 -4 -53q96 -8 168 -20zM934 711q0 -33 -37 -33q-43 0 -43 37q0 14 13.5 30.5t27.5 16.5q25 0 39 -51zM770 793q0 -8 -17.5 -21.5 t-25.5 -13.5q-14 0 -30.5 12t-16.5 29q0 14 6 24.5t49 10.5q25 0 35 -41zM393 719l-98 6q23 23 41 23q20 0 57 -29zM283 813q-25 0 -47 -4q-6 8 -7 18q4 0 14.5 3.5t18.5 3.5q13 -1 21 -21zM279 764h-33h-33q16 14 33 18q23 0 33 -18zM369 674q-49 6 -70 6q27 12 43 12 q9 0 27 -18zM719 373q0 -57 -47 -74q-18 -6 -72 -6q-76 0 -96 33q-14 23 -15 98q0 98 70 98q6 0 20.5 -4t18.5 -4q121 -16 121 -141zM254 725h-55l6 18q16 -4 49 -18zM268 674h-30q-16 -2 -39 16q57 0 69 -16zM449 362q0 -70 -113 -69h-14q-78 0 -78 96q0 90 88 78q4 0 14 5 t19 5q41 0 62.5 -36t21.5 -79zM905 711q-6 29 -20 22q-16 -10 0 -31q14 -14 18 -4q2 5 2 13zM739 795q-4 8 -18 12q-12 -2 -12 -12q2 -14 18 -13q12 3 12 13zM643 373v16q6 29 -29 39q-25 4 -49 8l-6 -78q4 1 84 15zM383 369q-14 31 -16 32q-8 10 -29 11h-23v-54q27 3 68 11 z" />
<glyph unicode="&#xa7;" horiz-adv-x="1710" d="M1655 786q0 -156 -41 -266q-61 -162 -135 -248q-47 -55 -113 -112q-20 -18 -102 -70q-104 -63 -140 -63q-4 0 -45 -15.5t-67 -15.5q-6 0 -17.5 -3t-19.5 -3t-23.5 -4t-21.5 -6q-86 -6 -174 0q-29 2 -49 2q-61 0 -177 53q-88 39 -147 80q-82 57 -164 151 q-111 127 -147 273q-35 139 -35 247q0 281 172 502q186 240 498 295q61 12 223 12q8 0 22.5 -6t21.5 -6t56 -13.5t55 -13.5q41 0 205 -90q186 -123 283 -319q82 -173 82 -361zM1618 786q0 88 -39 240q-31 115 -139 250q-119 147 -244 199q-113 45 -129 45q-8 0 -75.5 18 t-76.5 18q-244 0 -409 -75q-201 -96 -334 -324q-98 -168 -98 -371q0 -135 47 -260q72 -199 236.5 -338t367.5 -168q57 -6 190 -6q8 0 24.5 3t25 3t17.5 3.5t17.5 3.5t56.5 15t52 15t90 39q141 66 244 193q51 66 96 155q80 162 80 342zM1319 1296q0 -16 -33 -92t-45 -76 q-10 0 -39 15q0 4 2 12q10 4 35 21q-4 25 -23.5 80t-19.5 61q0 8 8 16q39 -25 39 -82q6 0 17 -12q12 25 36 76q23 -1 23 -19zM1182 1268q0 -59 -52 -60q-8 0 -31.5 4.5t-33.5 4.5v85v87q31 -16 31 -52q6 -2 17 3.5t17 5.5q16 0 34 -31t18 -47zM897 1305q-14 -16 -51 -18.5 t-37 -20.5q0 -10 16 -27q10 0 29 18h23q0 -16 -3 -22q-10 -20 -30 -21h-23q-27 0 -43 33q-12 25 -12 39q0 78 90 78q8 0 19.5 -20.5t21.5 -38.5zM760 1217q-82 -20 -96 -21q-35 0 -35 55q0 45 39 72q14 4 47 20q6 20 6 24.5t10 14.5q2 0 19 -10q10 -37 10 -35v-120z M608 1346q-2 0 -13 -3.5t-13 -3.5q-14 12 -2 37h28v-30zM1014 913q0 -23 -25 -22q-8 0 -37 14v23q20 0 47 12q15 -15 15 -27zM623 1305q0 -4 -13 -19q-2 -23 -2 -108q-2 0 -15 -3.5t-20 -3.5q0 6 -3 17.5t-3 19.5q0 49 15 115q8 2 24 10q17 -16 17 -28zM883 918 q-16 -10 -54 -33l-3 15t-3 34l17 3q16 3 37 3l6 -6v-16zM557 1307l-20 -78q-12 -45 -35 -76q-31 10 -66 117q2 0 7.5 4t13.5 4t17 -20.5t15 -36.5q23 6 34 44t34 42zM418 1307l-8 -29h-29v18q-2 10 5 12.5t7 4.5q17 0 25 -6zM1102 553l-23 10l11 64zM422 1137 q-10 -18 -41 -33q-2 94 6 149l-6 11h41v-127zM1343 688q0 -49 -14 -70q-35 -33 -96 -106q0 -10 -10 -31q-37 -45 -111 -49q-61 -2 -125 -4q-12 -8 -8 -18q-76 -47 -98 -48q-6 0 -35 15.5t-37 15.5t-83 -12t-81 -12q-70 0 -149.5 33.5t-118.5 33.5q-45 0 -127 -22 q12 14 94 47t94 33q16 0 71.5 -50.5t88.5 -50.5h80q55 0 121 27q10 4 12 7t2 7q-4 8 -4 15q111 4 313 14q51 4 78 35q6 6 14 88q0 -10 15 -37q23 31 22 49q0 8 -12 44t-12 44q0 23 24 47q4 14 -22 15q-35 0 -92 -52q2 -6 8 -6q-16 -18 -33 -20q-66 -14 -143 -15q8 0 -135 41 q63 4 63 39q0 27 -37 49q10 -4 39 -17t37 -13q20 0 35 24q8 20 16 39v-63h49q23 12 72 30q-16 -16 -31 -45v-34l1 -3q1 -4 12 -4l57 41q12 8 80 37q0 14 -8 35q-111 131 -299 217l-13 -12q-37 -6 -166 -49q41 35 88 59q20 6 41 10q29 10 39 31h-102q-10 -2 -100 -41 q-100 -43 -154 -74q-6 -4 -102 -73q-82 -61 -95 -62h-133q41 25 47 25q8 0 10.5 -3t8.5 -3q59 0 80 12q45 39 149 115q92 59 162 88q129 51 160 51q96 0 194 -64q78 -53 131 -123q27 -27 76 -94q12 -18 -8 -39q6 -12 32.5 -18t28.5 -6q49 -41 49 -70zM367 1104 q-84 -51 -97 -51q-31 0 -26 53q0 47 47 94q25 4 30 16.5t17 47.5h22q7 -54 7 -160zM1169 219q0 -47 -20 -86q-6 -8 -19 -18q-4 0 -16 -7.5t-22 -7.5q-37 0 -60 47q-18 37 -18 78q0 20 4 35q8 25 42 48.5t50 23.5q35 0 49 -53q10 -31 10 -60zM995 240l-14 -15q-4 2 -18 33 q-10 23 -21 23q-43 0 -43 -91q0 -55 10 -94q-27 -14 -43 -6v162q-2 12 26 39.5t38 27.5q66 0 65 -47v-32zM834 201q-12 0 -48 3t-43 3q-20 0 -20 -19q0 -70 48 -69.5t56 -7.5q-16 -23 -49 -23q-41 0 -64.5 37t-23.5 72q0 59 22.5 80.5t80.5 21.5q12 0 26.5 -22.5t14.5 -34.5 v-41zM666 276q-35 -35 -107 -114q68 -18 76 -19q23 0 31 -8v-20q-72 10 -103 10l-18 -6q-12 0 -41 14v29q25 41 106 110q-6 14 -52 21.5t-54 21.5v21q59 -12 162 -31v-29zM1145 1241v59q-14 14 -25 15q-8 0 -24 -15v-53q16 -14 28 -14q13 0 21 8zM844 1311q6 16 -21 28 l-14 -14v-22h29zM1059 997l-35 21l-4 -8l35 -21zM715 1266q0 35 -21 37q-29 6 -28 -46q0 -23 8 -36h26q15 16 15 45zM1313 664v41q-10 0 -24.5 3t-22.5 3q-20 0 -21 -37q0 -23 15 -64q2 2 26 8q27 23 27 46zM330 1143q0 31 -23 41q-33 -39 -33 -62q0 -8 3.5 -18t3.5 -12 q2 0 4 2t10 2q35 0 35 47zM952 428q-10 0 -32.5 4t-28.5 4q-25 0 -39 -28q16 -8 39 -9q36 0 61 29zM1139 219q0 80 -31 80q-27 0 -44 -24.5t-17 -59.5q8 -78 43 -78q8 0 8 3t6 3q35 0 35 76zM809 233q-6 12 -21.5 26.5t-21.5 14.5q-31 0 -37 -41q82 0 80 0z" />
<glyph unicode="&#xa9;" horiz-adv-x="2353" d="M2298 1036q-4 2 -10 -2q-10 10 -23 45q-4 -10 -16 -28q-14 6 -29 28q-2 -16 -6 -41q-6 0 -12 -2q-4 12 -4 80q14 4 24 -8t21 -25q4 12 18 35q27 -14 37 -82zM2187 1110q-8 -8 -26 -2q6 -27 8 -80q-6 2 -12 -2q-8 53 -9 78l-32 -4l-5 16q6 0 20.5 2t20.5 2q35 0 33 0 q0 -6 2 -10zM2130 1001q0 -66 -35 -108q-8 -10 -31 -10h-32q-4 -104 -23 -142q-27 -61 -106 -61q-29 0 -66 16q-47 23 -68 56q-12 -12 -55 -25.5t-63 -13.5q-25 0 -39 28q-10 -23 -51 -40t-70 -17q-4 0 -16.5 5t-16.5 5q-6 0 -20.5 -5t-20.5 -5q-10 0 -45 9l-35 9 q-4 0 -32.5 -11t-59.5 -11t-74 11t-47 28q-8 29 -14 29q-2 0 -40 -30t-58 -30q-27 0 -51 31q-8 -18 -46 -45q-16 -4 -30 -4q-6 0 -16.5 2t-16.5 2t-11 -14.5t-7 -16.5q-29 -23 -74 -22q-53 0 -64 24q-20 -29 -81.5 -59.5t-100.5 -30.5q-6 0 -40 9t-38 9q2 0 -49 -19t-88 -19 q-55 0 -76 12q-33 16 -39 123q-4 100 -24 100q-6 0 -11.5 -2t-11.5 -2q-35 0 -61 76q-18 55 -19 88q0 31 15.5 40t142.5 50q141 45 176 45q59 0 72 -80q2 -10 26 -84q6 0 95 14q8 16 28 41q29 20 80 45t62 25q39 0 63 -33q10 4 19.5 30t15.5 34t48 27.5t61 19.5 q25 0 38 -18.5t29 -41.5q16 29 37 43q47 31 143 31q66 0 119 -53q16 20 28.5 36.5t37.5 16.5q12 0 39 -6q0 8 -3.5 22.5t-3.5 18.5q0 23 27 37q20 14 41 14q6 0 33.5 -9t34.5 -9q6 0 64 9t65 9q45 0 104 -8q68 -8 69 -20.5t3 -27.5t8 -15q2 0 24.5 9t43.5 9 q55 0 121.5 -49.5t66.5 -100.5zM2062 999q0 27 -47 55.5t-69 28.5q-57 0 -58 -94q0 -6 19.5 -49t19.5 -49q0 -61 -63 -62q-16 0 -37 9q-14 -31 -15 -27q0 -20 37 -39.5t54 -19.5q51 0 51 63q0 14 -3 45t-3 45q0 68 57 68q-2 0 41 -15q2 6 9 20.5t7 20.5zM1792 1122 q-90 4 -297 19q0 -27 25 -74l79 -6q47 -4 56 -47q-2 -6 -10 -19q10 -84 28 -209q4 0 14.5 2.5t12.5 2.5v45q-4 66 -8 192q0 8 16 17.5t27 9.5q4 0 16 -2t31 -2q0 30 10 71zM1550 778q-102 262 -137 262q-23 0 -29 -84l-4 -110q-2 -31 -12 -88h47q-2 51 37 51q27 0 47 -53 q20 6 51 22zM1296 821q0 25 -14 54.5t-43 29.5q-8 0 -29 -8v25q61 39 62 71q0 57 -53 58q-29 0 -119 -35v-17q27 -78 76 -231q10 0 34.5 -3t30.5 -3q55 0 55 59zM1047 807q0 14 -39 95t-56 99q-55 -31 -62 -53t-11 -43q-12 -29 -37 -28q-35 0 -62.5 33.5t-29.5 33.5 q-10 0 -84 -45q16 -29 41 -78q10 -37 20 -73q18 -59 33 -60q18 0 19 21.5t3 40.5q0 27 21 26q6 0 31.5 -12t31.5 -12h19q25 47 24 49q16 23 45 22q10 0 17 -2q29 -18 49 -41q27 29 27 27zM645 727q0 37 -39 94q-8 12 -63 13q-94 0 -94 -101q0 -102 65 -102q20 0 72 31 q59 34 59 65zM399 911q-2 10 -10 34t-10 32q-39 -8 -120 -30.5t-120 -33.5q8 -45 17 -65q23 0 37 2t16 2q35 0 51 -104q8 -66 16 -130q6 -2 15 -2q23 0 61 11v22q0 4 -12 90q-2 18 -14.5 60.5t-12.5 46.5q0 30 86 65zM1464 893q0 -35 -32 -35q-29 0 -29 39q0 33 29 33 q32 0 32 -37zM1208 954q-16 -14 -24 -14t-17.5 10.5t-9.5 18.5q0 29 29 28q12 0 22 -10v-33zM1257 829q0 -25 -26 -24q-23 0 -23 29q0 25 23 24q26 0 26 -29zM559 717q0 -33 -35 -33q-33 0 -32 39q0 33 30 33q14 0 25.5 -14.5t11.5 -24.5z" />
<glyph unicode="&#x2000;" horiz-adv-x="825" />
<glyph unicode="&#x2001;" horiz-adv-x="1651" />
<glyph unicode="&#x2002;" horiz-adv-x="825" />
<glyph unicode="&#x2003;" horiz-adv-x="1651" />
<glyph unicode="&#x2004;" horiz-adv-x="550" />
<glyph unicode="&#x2005;" horiz-adv-x="412" />
<glyph unicode="&#x2006;" horiz-adv-x="275" />
<glyph unicode="&#x2007;" horiz-adv-x="275" />
<glyph unicode="&#x2008;" horiz-adv-x="206" />
<glyph unicode="&#x2009;" horiz-adv-x="330" />
<glyph unicode="&#x200a;" horiz-adv-x="91" />
<glyph unicode="&#x202f;" horiz-adv-x="330" />
<glyph unicode="&#x205f;" horiz-adv-x="412" />
<glyph unicode="&#x25fc;" horiz-adv-x="1648" d="M0 1649h1649v-1649h-1649v1649z" />
</font>
</defs>
</svg>
