<?xml version="1.0" standalone="no"?>
<!DOCTYPE svg PUBLIC "-//W3C//DTD SVG 1.1//EN" "http://www.w3.org/Graphics/SVG/1.1/DTD/svg11.dtd" >
<svg xmlns="http://www.w3.org/2000/svg">
<metadata></metadata>
<defs>
<font id="manhattan_itc_stdregular" horiz-adv-x="1228" >
<font-face units-per-em="2048" ascent="1366" descent="-682" />
<missing-glyph horiz-adv-x="716" />
<glyph unicode="&#xfb01;" horiz-adv-x="1177" d="M-6 932v12h112q26 132 86 225t170 172q107 77 230.5 118.5t234.5 41.5q136 0 223 -71.5t87 -184.5q0 -99 -72.5 -172.5t-177.5 -73.5q-108 0 -178 71.5t-70 178.5q0 172 195 242h-25q-130 0 -277 -66v-481h574v-944h-428v932h-146v-1268h-428v1268h-110z" />
<glyph unicode="&#xfb02;" horiz-adv-x="1150" d="M-6 932v12h86q21 192 168 320q89 77 186.5 101t247.5 24h395v-1389h-428v932h-145v-1268h-428v1208q0 7 1 30t1 30h-84zM504 944h145v432q-94 0 -145 -8v-424z" />
<glyph horiz-adv-x="0" />
<glyph horiz-adv-x="682" />
<glyph unicode="&#xd;" horiz-adv-x="716" />
<glyph unicode=" "  horiz-adv-x="716" />
<glyph unicode="&#x09;" horiz-adv-x="716" />
<glyph unicode="&#xa0;" horiz-adv-x="716" />
<glyph unicode="!" horiz-adv-x="892" d="M111 1083q0 131 97 229.5t238 98.5q142 0 239 -98.5t97 -229.5q0 -114 -90 -237l-246 -336l-245 336q-90 123 -90 237zM199 221q0 102 72 175t175 73t175.5 -72.5t72.5 -175.5t-72.5 -175.5t-175.5 -72.5t-175 72.5t-72 175.5z" />
<glyph unicode="&#x22;" horiz-adv-x="1304" d="M92 1137q0 101 75.5 178.5t186.5 77.5t187.5 -77t76.5 -179q0 -89 -71 -185l-191 -262l-192 262q-72 98 -72 185zM686 1137q0 101 75.5 178.5t186.5 77.5t187.5 -77t76.5 -179q0 -89 -71 -185l-191 -262l-192 262q-72 98 -72 185z" />
<glyph unicode="#" horiz-adv-x="1163" d="M0 518l6 12h225l203 363h-225l6 12h225l152 273h201l-152 -273h88l152 273h198l-151 -273h235l-6 -12h-235l-203 -363h235l-6 -12h-235l-154 -276h-199l154 276h-88l-154 -276h-200l153 276h-225zM432 530h88l203 363h-88z" />
<glyph unicode="$" d="M74 350l10 4q147 -358 491 -370v403q-24 13 -74.5 39.5t-79.5 42.5t-68.5 42t-70 55.5t-55.5 64.5q-43 61 -69.5 140t-26.5 144q0 115 54.5 219t157.5 174.5t232 82.5v129h13v-127h33q43 0 84 -9v136h12v-138q97 -20 169.5 -71t135.5 -140l-10 -8q-62 87 -129.5 135.5 t-165.5 71.5v-323q195 -92 298 -228.5t103 -300.5q0 -194 -110 -337t-291 -191v-275h-12v271q-56 -13 -117 -13v-258h-13v258q-177 7 -300.5 100.5t-200.5 276.5zM336 1290q58 -76 239 -174v264q-130 -9 -239 -90zM588 -16q56 0 117 14v319q-35 22 -117 66v-399zM588 1112 q10 -6 51 -26t66 -33v319q-63 10 -84 10q-3 0 -16.5 -1t-16.5 -1v-268zM717 2q127 30 223 123q-71 92 -223 186v-309z" />
<glyph unicode="%" horiz-adv-x="1615" d="M53 893v127q0 83 17 137q29 98 118 161.5t199 63.5q140 0 238 -106q50 -53 69 -111.5t19 -140.5v-137q0 -81 -19 -139.5t-69 -112.5q-97 -105 -238 -105q-70 0 -136.5 28t-111.5 77q-50 53 -68 112.5t-18 145.5zM389 541q131 0 227 102q48 51 66 107t18 135v141 q0 78 -18.5 136t-65.5 108q-92 100 -227 100v-829zM465 0l674 1366h12l-674 -1366h-12zM905 346v127q0 86 18 145.5t68 112.5q46 49 111.5 77t134.5 28q143 0 240 -105q50 -52 68 -110.5t18 -141.5v-137q0 -83 -18 -141.5t-68 -110.5q-98 -106 -240 -106q-71 0 -135.5 27.5 t-110.5 76.5q-49 51 -67.5 112t-18.5 146zM1239 -4q135 0 229 100q48 51 65 107.5t17 136.5v139q0 80 -17 136.5t-65 107.5q-96 102 -229 102v-829z" />
<glyph unicode="&#x26;" horiz-adv-x="1519" d="M55 362q0 120 43 206t138 153q-66 118 -66 233q0 187 134.5 320t328.5 133q123 0 227.5 -62t165.5 -166.5t61 -224.5q0 -170 -118 -309l118 -139l248 297l8 -8l-247 -297l424 -498h-684l-76 90q-71 -59 -138.5 -88t-158.5 -29q-110 0 -205 57t-149 146.5t-54 185.5z M68 362q0 -94 52 -180.5t144 -142t199 -55.5q90 0 156 28.5t133 85.5l-449 533q-6 7 -19.5 23t-24.5 30t-19 27q-92 -65 -132 -147.5t-40 -201.5zM387 1325l574 -672q114 139 114 301q0 117 -59 219t-161.5 163t-221.5 61q-130 0 -246 -72z" />
<glyph unicode="'" horiz-adv-x="716" d="M96 1137q0 102 75.5 179t186.5 77q110 0 186.5 -77t76.5 -179q0 -86 -72 -185l-191 -262l-190 262q-72 99 -72 185z" />
<glyph unicode="(" horiz-adv-x="905" d="M129 463q0 287 145 541q83 144 191.5 247.5t263.5 196.5q-177 -205 -273 -459.5t-96 -525.5t96 -527.5t273 -459.5q-156 93 -264.5 196t-190.5 248q-145 254 -145 543z" />
<glyph unicode=")" horiz-adv-x="905" d="M176 -524q177 204 273 460t96 527t-96 526.5t-273 458.5q155 -93 263.5 -196.5t191.5 -247.5q145 -254 145 -541q0 -289 -145 -543q-83 -144 -191.5 -247.5t-263.5 -196.5z" />
<glyph unicode="*" horiz-adv-x="1124" d="M170 1075q0 65 38.5 105.5t80.5 40.5q50 0 77.5 -18t71.5 -73l99 -120l-150 -41q-51 -15 -86 -15q-59 0 -95 37t-36 84zM268 764q0 65 24.5 96.5t108.5 63.5l146 55l-8 -156q-3 -65 -15.5 -99t-52.5 -60q-24 -17 -45 -17h-12.5h-14.5t-13 1t-15.5 2.5t-14 4.5t-16.5 8 t-16 11q-24 19 -40 44.5t-16 45.5zM428 1278q0 55 39 92t96 37t95 -37t38 -92q0 -43 -49 -119l-84 -131l-86 131q-49 74 -49 119zM580 979l143 -55q86 -33 109.5 -65t23.5 -95q0 -20 -15.5 -45.5t-39.5 -44.5q-18 -13 -39 -19.5t-30.5 -7t-33.5 -0.5q-19 0 -43 17 q-40 26 -53.5 61.5t-15.5 97.5zM588 1010l98 120q44 55 72 73t78 18q42 0 80 -40.5t38 -105.5q0 -47 -36 -84t-95 -37q-7 0 -84 17z" />
<glyph unicode="+" d="M61 678l2 12h338v402h428v-402h338v-12h-338v-406h-428v406h-340z" />
<glyph unicode="," horiz-adv-x="716" d="M111 221q0 102 72.5 175t174.5 73q105 0 176.5 -78t71.5 -203q0 -121 -57.5 -223t-160 -162.5t-226.5 -60.5v12q166 2 285 105t145 272q-37 -76 -98 -117t-136 -41q-109 0 -178 70t-69 178z" />
<glyph unicode="-" horiz-adv-x="643" d="M68 358v230h510v-230h-510z" />
<glyph unicode="." horiz-adv-x="716" d="M111 221q0 102 72 175t175 73t175.5 -72.5t72.5 -175.5t-72.5 -175.5t-175.5 -72.5t-175 72.5t-72 175.5z" />
<glyph unicode="/" horiz-adv-x="1159" d="M74 -436l1001 1806l10 -4l-1001 -1808z" />
<glyph unicode="0" d="M70 578v210q0 145 30.5 245t112.5 186q77 82 185 128t223 46q111 0 214 -46t181 -130q82 -88 112.5 -184.5t30.5 -235.5v-230q0 -139 -30.5 -235.5t-112.5 -184.5q-77 -84 -180.5 -129t-214.5 -45q-117 0 -224.5 45t-183.5 127q-82 86 -112.5 187t-30.5 246zM621 -16 q110 0 210 45t177 127q80 85 109.5 179.5t29.5 229.5v236q0 135 -29.5 229.5t-109.5 179.5q-76 83 -176 126.5t-211 43.5v-1396z" />
<glyph unicode="1" d="M147 1030l766 389v-1419h-536v1135l-225 -115z" />
<glyph unicode="2" d="M74 889q3 143 74.5 260t186 180.5t245.5 63.5q220 0 370 -150t150 -366q0 -87 -29.5 -165.5t-89.5 -183.5l-293 -516h373v-12h-985l745 1321q-116 61 -235 61q-98 0 -188.5 -37t-158.5 -101t-109.5 -156.5t-43.5 -198.5h-12z" />
<glyph unicode="3" d="M90 442h12q1 -110 57 -210.5t158.5 -168.5t227.5 -77v1392q-118 -14 -210.5 -103.5t-115.5 -221.5h-10q26 151 134.5 245.5t252.5 94.5q160 0 274.5 -114.5t114.5 -272.5q0 -108 -55 -201q137 -152 137 -348q0 -131 -66.5 -242.5t-179 -176.5t-243.5 -65 q-102 0 -193.5 40t-155 105t-101 150t-38.5 174z" />
<glyph unicode="4" d="M-10 346l1083 1073v-1061h174v-12h-174v-346h-536v346h-547zM18 358h519v512z" />
<glyph unicode="5" d="M47 496h12q10 -143 80 -259t191 -184t270 -69v1060q-126 0 -223 -44.5t-195 -141.5l45 508h676v-12h-665l-41 -465q95 86 188.5 126t216.5 40q101 0 198 -42t171.5 -113t120 -172.5t45.5 -213.5q0 -116 -44.5 -218t-118.5 -172t-171 -110.5t-201 -40.5q-229 0 -384.5 149 t-170.5 374z" />
<glyph unicode="6" d="M70 522q0 188 153 379l379 465h14l-344 -424q168 111 346 111q105 0 205.5 -42t176.5 -113t122.5 -170t46.5 -206q0 -115 -44.5 -217.5t-119.5 -175t-176 -114.5t-211 -42q-153 0 -279 73.5t-197.5 199.5t-71.5 276zM616 -16q156 4 280 76.5t192.5 194t68.5 267.5 q0 101 -42 195t-113 164.5t-172 114t-214 46.5v-1058z" />
<glyph unicode="7" d="M92 0l500 1354h-424v12h1010l-500 -1366h-586z" />
<glyph unicode="8" d="M125 473q0 159 90 281q-49 98 -49 213q0 75 33.5 151t90.5 137t141.5 99.5t178.5 38.5q122 0 224.5 -60.5t161.5 -163t59 -221.5q0 -108 -49 -215q90 -142 90 -289q0 -123 -65 -231.5t-177.5 -174t-243.5 -65.5t-242.5 65.5t-177 180.5t-65.5 254zM137 473 q0 -135 63.5 -248t172.5 -177t237 -64q147 0 281 92q-36 76 -96.5 141.5t-131.5 118.5t-144.5 107t-154 132t-141.5 168q-37 -45 -61.5 -118t-24.5 -152zM387 1319q21 -68 76 -132.5t126 -117.5t144 -102.5t147 -109t117 -114.5q45 103 45 205q0 179 -126.5 306.5 t-305.5 127.5q-119 0 -223 -63z" />
<glyph unicode="9" d="M61 844q0 115 44 217.5t118 175t175 114.5t212 42q114 0 216.5 -43.5t175 -117t115 -175t42.5 -213.5q0 -191 -153 -379l-379 -465h-15l344 424q-168 -111 -346 -111q-105 0 -205 42t-176 113t-122 170t-46 206zM74 844q0 -101 41.5 -195t112 -164.5t171 -114 t213.5 -46.5v1058q-234 -6 -386 -160.5t-152 -377.5z" />
<glyph unicode=":" horiz-adv-x="716" d="M111 221q0 102 72 175t175 73t175.5 -72.5t72.5 -175.5t-72.5 -175.5t-175.5 -72.5t-175 72.5t-72 175.5zM111 791q0 102 71.5 174.5t175.5 72.5q103 0 175.5 -72t72.5 -175t-72 -175.5t-176 -72.5q-103 0 -175 73t-72 175z" />
<glyph unicode=";" horiz-adv-x="716" d="M111 221q0 102 72.5 175t174.5 73q105 0 176.5 -78t71.5 -203q0 -121 -57.5 -223t-160 -162.5t-226.5 -60.5v12q166 2 285 105t145 272q-37 -76 -98 -117t-136 -41q-109 0 -178 70t-69 178zM111 791q0 102 71.5 174.5t175.5 72.5q103 0 175.5 -72t72.5 -175t-72 -175.5 t-176 -72.5q-103 0 -175 73t-72 175z" />
<glyph unicode="&#x3c;" d="M170 662v43l889 380v-43l-842 -360l842 -358v-43z" />
<glyph unicode="=" d="M61 596v12h1106v-12h-1106zM61 758v12h1106v-12h-1106z" />
<glyph unicode="&#x3e;" d="M170 281v43l842 358l-842 360v43l889 -380v-43z" />
<glyph unicode="?" horiz-adv-x="1073" d="M92 1004q1 80 35 156t92 135.5t143.5 95.5t182.5 36q116 0 217.5 -57.5t165 -164t63.5 -236.5q0 -83 -35 -169t-92 -141q-49 -48 -117 -77.5t-124 -38t-116.5 -22.5t-92.5 -34v910q-131 -36 -219 -149t-91 -244h-12zM268 221q0 103 72 175.5t176 72.5t176 -73t72 -175 q0 -103 -72 -175.5t-176 -72.5q-103 0 -175.5 72.5t-72.5 175.5z" />
<glyph unicode="@" horiz-adv-x="1527" d="M70 700q0 131 52.5 256t144.5 222.5t230 157t298 59.5q129 0 249.5 -48.5t212 -132.5t146.5 -207.5t55 -263.5q0 -82 -27.5 -159.5t-69.5 -130.5t-91.5 -85t-93.5 -32h-406l6 41q-64 -64 -170 -64q-113 0 -190.5 85t-77.5 212q0 108 56.5 210.5t149 165.5t191.5 63 q42 0 81.5 -16.5t62.5 -43.5l8 45h311l-115 -686h93q42 0 89 31t87.5 82.5t67 126t26.5 153.5q0 140 -54.5 261.5t-144.5 204t-208.5 130t-245.5 47.5q-156 0 -291 -58t-226 -153.5t-142.5 -218t-51.5 -252.5q0 -158 58 -296t154 -232.5t222.5 -148.5t261.5 -54 q110 0 256 47l4 -12q-143 -45 -272 -45q-103 0 -205 33.5t-190 99t-155.5 154t-106.5 205.5t-39 247zM350 610q0 -123 74 -204.5t186 -81.5q99 0 170 71l97 578q-20 29 -60.5 47t-83.5 18q-95 0 -184.5 -61.5t-144 -161.5t-54.5 -205z" />
<glyph unicode="A" horiz-adv-x="1230" d="M-12 0l630 1419l633 -1419h-587l-119 272h-424l-121 -272h-12zM127 285h414l-203 475z" />
<glyph unicode="B" horiz-adv-x="1298" d="M129 0v1366h578q100 0 165 -8t117 -33q77 -37 121.5 -110t44.5 -162q0 -217 -235 -299q158 -39 240.5 -137.5t82.5 -235.5q0 -97 -44.5 -179t-121.5 -132q-71 -45 -154.5 -57.5t-217.5 -12.5h-576zM680 12h22q72 0 108.5 1t90 7t93.5 20t77 38q74 48 117 128.5t43 174.5 q0 142 -88 237t-262 136q129 34 195.5 110t66.5 189q0 87 -42.5 157t-117.5 105q-51 24 -115 31.5t-161 7.5h-27v-1342z" />
<glyph unicode="C" horiz-adv-x="1218" d="M66 682q0 192 96.5 356t262 259.5t359.5 95.5q231 0 433 -140l-9 -10q-196 139 -424 139q-77 0 -137 -14v-1370q63 -14 137 -14q234 0 424 139l9 -10q-205 -140 -433 -140q-194 0 -359.5 95t-262 258.5t-96.5 355.5z" />
<glyph unicode="D" horiz-adv-x="1499" d="M129 0v1366h576q166 0 307 -57t235 -152t146.5 -218.5t52.5 -256.5q0 -136 -58.5 -271t-156.5 -227q-196 -184 -526 -184h-576zM680 12h20q330 0 523 181q97 91 154 223.5t57 265.5q0 130 -51.5 251t-143 214.5t-231 150t-303.5 56.5h-25v-1342z" />
<glyph unicode="E" horiz-adv-x="1067" d="M129 0v1366h922v-12h-371v-445h371v-12h-371v-885h389v-12h-940z" />
<glyph unicode="F" horiz-adv-x="1060" d="M129 0v1366h932v-12h-381v-445h381v-12h-381v-897h-551z" />
<glyph unicode="G" horiz-adv-x="1429" d="M66 686q0 148 55.5 279.5t150.5 225t227 148t279 54.5q274 0 457 -160l-6 -10q-87 77 -204.5 118t-246.5 41q-64 0 -129 -12v-1372q72 -14 131 -14q358 0 584 309v434h12v-438q-231 -316 -596 -316q-144 0 -276 58t-228 154.5t-153 228t-57 272.5z" />
<glyph unicode="H" horiz-adv-x="1271" d="M90 0v1366h551v-635h526v635h15v-1366h-13v719h-526v-719h-553z" />
<glyph unicode="I" horiz-adv-x="808" d="M129 0v1366h551v-1366h-551z" />
<glyph unicode="J" horiz-adv-x="1105" d="M18 258l11 6q61 -121 164.5 -192.5t232.5 -85.5v1380h551v-840q0 -122 -24.5 -208t-92.5 -168q-72 -86 -172 -131.5t-215 -45.5q-140 0 -264.5 76t-190.5 209z" />
<glyph unicode="K" horiz-adv-x="1372" d="M129 0v1366h551v-600l639 600h16l-456 -430l501 -936h-12l-498 930l-190 -178v-752h-551z" />
<glyph unicode="L" horiz-adv-x="985" d="M129 0v1366h551v-1354h305v-12h-856z" />
<glyph unicode="M" horiz-adv-x="1654" d="M20 0l400 1411l407 -852l416 852l391 -1411h-600l-162 627l-329 -672l-336 661l-174 -616h-13z" />
<glyph unicode="N" horiz-adv-x="1226" d="M92 0v1419l1032 -735v698h13v-1405l-1033 738v-715h-12z" />
<glyph unicode="O" horiz-adv-x="1540" d="M59 682q0 143 56 274.5t151 227t227 152.5t277 57t277 -56.5t227 -152t151 -227t56 -275.5t-56.5 -275.5t-151.5 -226.5t-226.5 -151t-276.5 -56t-277 56.5t-227 151.5t-151 226.5t-56 274.5zM643 -4q59 -12 127 -12q143 0 272 55t222.5 149t148.5 224t55 274 q0 139 -54 267t-146.5 222t-222.5 150.5t-275 56.5q-49 0 -127 -12v-1374z" />
<glyph unicode="P" horiz-adv-x="1333" d="M129 0v1366h573q127 0 215 -20t168 -80q91 -68 142 -169.5t51 -215.5q0 -126 -63 -234.5t-173 -172.5t-239 -64q-65 0 -123 18v-428h-551zM680 438q59 -18 123 -18q127 0 233.5 62.5t168 168.5t61.5 230q0 110 -49.5 209t-137.5 165q-80 60 -168 79.5t-213 19.5h-18v-916 z" />
<glyph unicode="Q" horiz-adv-x="1544" d="M66 682q0 192 94.5 355.5t258 259.5t357.5 96q145 0 277 -56.5t227 -152t151 -227t56 -275.5q0 -196 -102.5 -365.5t-266.5 -255.5q111 -77 199.5 -118t185.5 -41q34 0 76 10l4 -10q-49 -11 -80 -11q-98 0 -190 42.5t-205 121.5q-154 -82 -332 -82q-194 0 -357.5 95.5 t-258 258.5t-94.5 355zM682 -10q40 -6 94 -6q171 0 322 77q-130 90 -224 141t-192 72v-284zM682 287q92 -17 190 -70t236 -149q179 104 273 264t94 350q0 141 -54.5 270.5t-147 223.5t-223 150t-274.5 56q-40 0 -94 -8v-1087z" />
<glyph unicode="R" horiz-adv-x="1323" d="M129 0v1366h576q131 0 225.5 -26t173.5 -93q80 -66 123 -160t43 -204q0 -202 -141 -340q-140 -137 -374 -137h-3q97 -127 204.5 -222.5t264.5 -173.5l-7 -10q-173 88 -300 204.5t-234 287.5v-492h-551zM680 518q9 -19 65 -100h31q208 0 344.5 134.5t136.5 330.5 q0 223 -159 354q-79 66 -173.5 91.5t-224.5 25.5h-20v-836z" />
<glyph unicode="S" horiz-adv-x="1163" d="M55 322l11 6q75 -169 205 -256.5t288 -87.5q103 0 197 36.5t166 104.5q-57 78 -138 139t-163 101t-162.5 77t-157 85.5t-125.5 107.5q-51 61 -78.5 135t-27.5 145q0 124 62 233t175.5 177t251.5 68q111 0 211 -50t174 -147l-8 -8q-69 93 -169 143.5t-208 50.5 q-162 0 -293 -98q59 -72 142 -129t165 -94.5t162 -73.5t153.5 -85.5t119.5 -110.5q92 -126 92 -273q0 -156 -73 -281.5t-196 -194.5t-270 -69q-164 0 -296 88t-210 261z" />
<glyph unicode="T" horiz-adv-x="1024" d="M0 1354v12h1024v-12h-236v-1354h-550v1354h-238z" />
<glyph unicode="U" horiz-adv-x="1273" d="M92 578v788h551v-1382q110 0 210 45t177 127q80 85 109.5 179.5t29.5 229.5v801h13v-799q0 -138 -31 -235t-113 -185q-77 -84 -180.5 -129t-214.5 -45q-117 0 -223.5 45t-183.5 127q-82 86 -113 187.5t-31 245.5z" />
<glyph unicode="V" horiz-adv-x="1220" d="M-16 1366h583l314 -764l348 764h14l-645 -1411z" />
<glyph unicode="W" horiz-adv-x="1812" d="M-16 1366h600l256 -700l327 745l398 -745l258 700h12q-90 -244 -520 -1411l-422 805l-350 -805z" />
<glyph unicode="X" horiz-adv-x="1345" d="M18 0l355 633l-355 733h660l213 -430l242 430h12l-246 -442l459 -924h-680l-299 621l-346 -621h-15z" />
<glyph unicode="Y" horiz-adv-x="1196" d="M-27 1366h662l289 -512l280 512h15l-754 -1366h-12l161 295z" />
<glyph unicode="Z" horiz-adv-x="1263" d="M37 0l577 1354h-430v12h1043l-570 -1354h525v-12h-1145z" />
<glyph unicode="[" horiz-adv-x="894" d="M184 -442v1808h553v-12h-252v-1784h252v-12h-553z" />
<glyph unicode="\" horiz-adv-x="1159" d="M74 1366l10 4l1001 -1806l-10 -6z" />
<glyph unicode="]" horiz-adv-x="894" d="M158 -430h252v1784h-252v12h553v-1808h-553v12z" />
<glyph unicode="^" d="M193 831l393 562h55l395 -562h-55l-369 529l-364 -529h-55z" />
<glyph unicode="_" horiz-adv-x="1024" d="M0 -170h1024v-43h-1024v43z" />
<glyph unicode="`" horiz-adv-x="1024" d="M266 1303q0 26 18 57t46 53q15 11 28.5 18t29.5 9.5t23.5 3.5t27 0.5t22.5 -0.5q25 0 46.5 -10t40 -31.5t30 -39t28.5 -46.5l117 -203h-289q-72 0 -120 48.5t-48 140.5z" />
<glyph unicode="a" horiz-adv-x="1112" d="M47 344q0 145 106.5 250.5t252.5 105.5q116 0 217 -69v334q-50 8 -84 8q-158 0 -299 -101l-7 11q136 100 306 100q116 0 217.5 -48.5t173.5 -137.5q65 -80 92 -172.5t27 -214.5v-410h-426v49q-87 -72 -213 -72q-148 0 -255.5 107.5t-107.5 259.5zM59 344 q0 -148 103.5 -252t247.5 -104q117 0 213 75v555q-109 72 -217 72q-142 0 -244.5 -103t-102.5 -243z" />
<glyph unicode="b" horiz-adv-x="1081" d="M74 -18v1384h428v-424h28q150 0 267.5 -68.5t178 -178.5t60.5 -238q0 -200 -140 -340t-337 -140q-227 0 -383 179zM502 -8q28 -4 57 -4q126 0 233 62t169.5 170t62.5 237q0 126 -60 234t-173 174.5t-254 66.5q-7 0 -17.5 -1t-17.5 -1v-938z" />
<glyph unicode="c" horiz-adv-x="944" d="M55 479q0 100 41.5 192.5t110 158.5t160 105.5t188.5 39.5q219 0 367 -154l-9 -8q-141 150 -356 150v-983q122 3 216 48t173 138l8 -8q-162 -191 -395 -191q-140 0 -256 67.5t-182 185t-66 259.5z" />
<glyph unicode="d" horiz-adv-x="1069" d="M47 471q0 132 59.5 236.5t179 168t283.5 66.5v424h428v-1366h-428q-234 0 -378 133.5t-144 337.5zM59 471q0 -199 136.5 -327.5t373.5 -131.5v920q-117 -1 -214 -36.5t-161.5 -97.5t-99.5 -146t-35 -181z" />
<glyph unicode="e" horiz-adv-x="1101" d="M55 481q0 136 70 252t185 182t245 66q141 0 259.5 -69.5t185 -186t65.5 -252.5h-510v-487h9q122 0 227 54q109 56 182 165l8 -6q-75 -110 -184.5 -168t-241.5 -58q-95 0 -186 39t-160 106t-111.5 162.5t-42.5 200.5zM555 485h498q-1 98 -41 188t-106 155q-66 66 -158 104 q-89 38 -188 37h-5v-484z" />
<glyph unicode="f" horiz-adv-x="655" d="M-6 930v12h112q25 194 165.5 320.5t336.5 126.5q57 0 111 -13l-2 -10q-50 12 -109 12q-28 0 -78 -8v-428h177v-12h-177v-1266h-428v1208q0 44 2 58h-110z" />
<glyph unicode="g" horiz-adv-x="884" d="M66 76q0 133 124 223q-122 125 -122 291q0 105 56.5 195.5t143.5 140t178 49.5q170 0 283 -114t113 -275t-113 -275t-285 -114q-128 0 -243 92q-8 -8 -8 -15q0 -77 41 -98t208 -45q44 -6 68 -10q125 -19 196.5 -92t71.5 -179q0 -120 -96 -201t-231 -81q-2 0 -15.5 1 t-15.5 1v10q48 0 71 22.5t23 61.5q0 44 -30.5 74.5t-86.5 44.5q-66 16 -178 51q-58 21 -105.5 89t-47.5 153zM442 207h11q158 0 267 111t109 268t-109 268t-267 111h-11v-758z" />
<glyph unicode="h" horiz-adv-x="1067" d="M74 0v1366h428v-444q84 43 172 43q155 0 245.5 -102t90.5 -292v-571h-13v569q0 187 -85.5 286t-237.5 99q-92 0 -172 -47v-907h-428z" />
<glyph unicode="i" horiz-adv-x="575" d="M39 1235q0 103 72 176.5t176 73.5t176 -73.5t72 -176.5q0 -102 -72 -175t-176 -73t-176 73t-72 175zM74 0v942h428v-942h-428z" />
<glyph unicode="j" horiz-adv-x="634" d="M-119 -209l8 8q102 -114 244 -123v1266h428v-838q0 -99 -20 -169t-78 -136q-120 -135 -295 -135q-172 0 -287 127zM94 1235q0 103 72 176.5t176 73.5t176 -73.5t72 -176.5q0 -102 -72 -175t-176 -73t-176 73t-72 175z" />
<glyph unicode="k" horiz-adv-x="1075" d="M74 0v1366h428v-524q92 133 243 133q119 0 201 -85t82 -204q0 -120 -83.5 -204.5t-201.5 -84.5q-101 0 -188 66q20 -69 67 -139.5t115 -133.5t162.5 -111t198.5 -67l-2 -12q-112 22 -211 74t-168.5 119.5t-115 144t-60.5 151.5q53 -43 97.5 -62t104.5 -19q113 0 193 81 t80 197q0 115 -78.5 197t-192.5 82q-82 0 -137.5 -36t-105.5 -108v-821h-428z" />
<glyph unicode="l" horiz-adv-x="575" d="M74 0v1366h428v-1366h-428z" />
<glyph unicode="m" horiz-adv-x="1550" d="M74 0v942h428v-115q87 138 225 138q186 0 254 -191q74 191 256 191q58 0 112.5 -28.5t88.5 -76.5q32 -46 42.5 -97.5t10.5 -127.5v-635h-12v633q0 147 -52 221q-32 46 -83.5 73t-106.5 27q-120 0 -193 -88q-13 -16 -23 -31.5t-15.5 -34t-9.5 -29t-5.5 -34t-2 -30t0 -34.5 t0.5 -32v-641h-12v643q0 53 -2 80.5t-15 67.5t-40 73q-74 90 -193 90q-136 0 -225 -145v-809h-428z" />
<glyph unicode="n" horiz-adv-x="1083" d="M74 0v942h428v-33q86 56 184 56q153 0 246 -101q51 -54 71.5 -121.5t20.5 -160.5v-582h-12v584q0 88 -13 137q-28 105 -113.5 169t-199.5 64q-93 0 -184 -59v-895h-428z" />
<glyph unicode="o" horiz-adv-x="1103" d="M55 471q0 136 66.5 252t182.5 184t253 68t253 -68t182.5 -184t66.5 -252t-66.5 -252t-182 -184t-253.5 -68q-137 0 -253 68t-182.5 184t-66.5 252zM557 -20q136 1 248.5 67t177 178.5t64.5 245.5q0 134 -65.5 247t-178 179t-246.5 66v-983z" />
<glyph unicode="p" horiz-adv-x="1077" d="M74 -442v1384h428q119 0 219.5 -38t168 -103.5t105 -153.5t37.5 -188q0 -98 -42 -190t-116 -158q-72 -65 -155 -91t-197 -26h-20v-436h-428zM502 6h20q112 0 193 25t151 88q72 65 113 155t41 185q0 201 -143 336t-357 135h-18v-924z" />
<glyph unicode="q" horiz-adv-x="1101" d="M68 471q0 205 146 338t388 133h428v-1384h-428v442q-125 3 -216.5 32t-166.5 95q-151 136 -151 344zM80 471q0 -97 35.5 -180.5t101 -145t165 -97t220.5 -36.5v920q-120 -1 -219 -36.5t-165 -97.5t-102 -146t-36 -181z" />
<glyph unicode="r" horiz-adv-x="700" d="M74 0v942h428v-113q46 64 99.5 93.5t127.5 31.5v-12q-74 -2 -127.5 -33t-99.5 -98v-811h-428z" />
<glyph unicode="s" horiz-adv-x="907" d="M47 264l10 4q49 -144 154.5 -218.5t237.5 -74.5q105 0 190 48q-65 120 -184 190q-168 100 -225 145q-117 94 -140 210q-6 32 -6 69q0 144 101.5 245t250.5 101q85 0 163.5 -40.5t119.5 -106.5l-8 -9q-37 62 -115 104t-160 42q-92 0 -164 -41q20 -45 74.5 -99t110.5 -81 q69 -34 111 -56.5t94 -54.5t82 -61t58 -66t40 -80t12 -94q0 -152 -119.5 -263.5t-285.5 -111.5q-136 0 -243.5 76t-158.5 223z" />
<glyph unicode="t" horiz-adv-x="729" d="M-4 930v12h96v281h426v-281h172v-12h-172v-950q136 11 238 110l8 -8q-118 -115 -270 -115q-170 0 -291 127q-63 67 -87 147.5t-24 194.5v494h-96z" />
<glyph unicode="u" horiz-adv-x="1013" d="M66 465v477h428v-962h28q92 0 174 37t142 106q59 68 82.5 145t23.5 183v491h12v-491q0 -108 -25.5 -189t-86.5 -149q-129 -144 -326 -144q-201 0 -340 154q-71 78 -91.5 152t-20.5 190z" />
<glyph unicode="v" horiz-adv-x="884" d="M-39 942h479l240 -498l223 498h12l-450 -1001z" />
<glyph unicode="w" horiz-adv-x="1310" d="M-39 942h459l231 -479l221 498l240 -498l219 479h12l-448 -983l-238 492l-217 -492z" />
<glyph unicode="x" horiz-adv-x="956" d="M-6 942h498l167 -328l215 328h15l-223 -340l307 -602h-500l-176 346l-223 -346h-15l234 356z" />
<glyph unicode="y" horiz-adv-x="935" d="M-39 942h498l270 -506l225 506h13l-570 -1278h-12l127 283z" />
<glyph unicode="z" horiz-adv-x="983" d="M-2 0l500 930h-381v12h868l-500 -930h400v-12h-887z" />
<glyph unicode="{" horiz-adv-x="894" d="M74 457v12h57q70 0 70 102v471q0 78 10.5 133.5t36.5 100.5t74.5 67.5t121.5 22.5h310v-12h-179q-49 0 -61 -19t-12 -78v-546q0 -66 -16.5 -110.5t-52 -71.5t-76.5 -41t-105 -25q63 -11 104 -25.5t77 -41.5t52.5 -72t16.5 -111v-547q0 -59 12 -77.5t61 -18.5h179v-12 h-310q-73 0 -121.5 22t-74.5 67t-36.5 100.5t-10.5 133.5v471q0 105 -70 105h-57z" />
<glyph unicode="|" horiz-adv-x="409" d="M184 -520v1913h41v-1913h-41z" />
<glyph unicode="}" horiz-adv-x="894" d="M139 -430h178q49 0 61.5 18t12.5 78v547q0 66 16.5 111t52.5 72t77 41.5t104 25.5q-64 11 -104.5 25t-76.5 41t-52.5 71.5t-16.5 110.5v546q0 59 -12.5 78t-61.5 19h-178v12h312q73 0 121.5 -22.5t74 -67.5t35.5 -100t10 -134v-471q0 -102 70 -102h57v-12h-57 q-70 0 -70 -105v-471q0 -79 -10 -134.5t-36 -100t-74.5 -66.5t-120.5 -22h-312v12z" />
<glyph unicode="~" d="M127 600q60 103 120 147t150 44q43 0 105 -26.5t115 -58.5t117 -58.5t110 -26.5q67 0 118 42t103 132l37 -21q-62 -104 -121 -147t-150 -43q-51 0 -135 42.5t-165 85t-125 42.5q-80 0 -130.5 -34.5t-111.5 -139.5z" />
<glyph unicode="&#xa1;" horiz-adv-x="892" d="M111 -141q0 116 90 239l245 334l246 -334q90 -126 90 -239q0 -131 -98 -229.5t-238 -98.5t-237.5 98.5t-97.5 229.5zM199 721q0 102 72.5 175t174.5 73q103 0 175.5 -72.5t72.5 -175.5q0 -102 -73 -175t-175 -73q-103 0 -175 73t-72 175z" />
<glyph unicode="&#xa2;" d="M287 659q0 166 108.5 281.5t266.5 120.5v164h12v-164q194 -3 309 -133l-8 -8q-114 126 -301 129v-779q94 1 174 38t133 98l8 -9q-56 -64 -138.5 -100.5t-176.5 -36.5v-205h-12v205q-160 6 -267.5 120t-107.5 279z" />
<glyph unicode="&#xa3;" d="M55 381q0 218 158 346q-40 66 -51 137h-96v13h94q-2 20 -2 69q0 187 117.5 317t285.5 130q148 0 256 -105t133 -278h-10q-22 163 -129 267.5t-250 104.5q-110 0 -211 -69l332 -436h205v-13h-197q119 -180 119 -391q0 -108 -27 -196.5t-92 -172.5q58 -66 109.5 -99.5 t126.5 -33.5q122 0 206 95.5t87 273.5h10q-3 -184 -89.5 -281.5t-213.5 -97.5q-72 0 -129 33.5t-115 101.5q-108 -123 -254 -123q-81 0 -152 35.5t-118.5 93t-75 131t-27.5 148.5zM68 381q0 -73 25.5 -144t70.5 -127.5t113 -91t147 -34.5q70 0 136 31.5t116 88.5l-459 613 q-149 -118 -149 -336z" />
<glyph unicode="&#xa4;" horiz-adv-x="1296" d="M164 358q23 21 70.5 66.5t70.5 67.5q-74 112 -74 233q0 129 74 233q-23 22 -70 68t-71 68q19 19 54 55t52 53q70 -68 140 -137q110 74 237 74q136 0 238 -74q92 92 139 137q36 -35 106 -108q-71 -68 -139 -136q74 -109 74 -233q0 -123 -74 -233q12 -11 62 -60t77 -74 q-70 -73 -106 -108q-24 22 -69.5 68.5t-69.5 68.5q-105 -76 -238 -76q-129 0 -237 76q-69 -69 -140 -137q-17 17 -52 53t-54 55zM383 727q0 -108 78 -186t186 -78q109 0 187.5 77.5t78.5 186.5q0 112 -80 187t-184 75q-112 0 -189 -77.5t-77 -184.5z" />
<glyph unicode="&#xa5;" d="M12 1366h627l272 -512l244 512h12l-282 -594h282v-12h-288l-72 -150h360v-12h-364l-285 -598h-14l141 295l-180 303h-406v12h400l-88 150h-312v12h303z" />
<glyph unicode="&#xa6;" horiz-adv-x="409" d="M184 281h41v-723h-41v723zM184 643v723h41v-723h-41z" />
<glyph unicode="&#xa7;" horiz-adv-x="1122" d="M55 -59l13 4q59 -146 185 -221.5t298 -75.5q118 0 233 53q-45 65 -100 112.5t-139 86.5q-206 97 -282 146q-153 99 -191 224q-15 49 -15 105q0 131 67.5 229.5t174.5 136.5q-199 115 -199 299q0 145 126 249t313 104q105 0 200 -41t148 -109l-8 -8q-48 64 -142 105.5 t-198 41.5q-108 0 -203 -41q23 -47 89 -105t138 -89q63 -27 99.5 -43t87.5 -40t80.5 -42t67.5 -43.5t59 -48.5t44.5 -54t35 -63t19 -71.5t7.5 -84.5q0 -115 -58 -207.5t-163 -148.5q174 -113 174 -283q0 -107 -62.5 -194.5t-169 -136.5t-233.5 -49q-178 0 -306 76t-190 227z M233 698q29 -63 82 -113.5t119.5 -86t131.5 -63.5t140.5 -62.5t124.5 -65.5q35 17 70 45q-27 54 -72.5 99t-109.5 82t-123 65t-144 67t-143 70q-46 -16 -76 -37z" />
<glyph unicode="&#xa8;" horiz-adv-x="1024" d="M127 1278q0 71 50.5 122.5t123.5 51.5q71 0 121.5 -51.5t50.5 -122.5q0 -72 -50.5 -122t-121.5 -50q-72 0 -123 50.5t-51 121.5zM551 1278q0 71 50.5 122.5t121.5 51.5q72 0 123 -51.5t51 -122.5q0 -72 -51 -122t-123 -50q-71 0 -121.5 50t-50.5 122z" />
<glyph unicode="&#xa9;" horiz-adv-x="1579" d="M70 682q0 144 56 275t151.5 226.5t229 152.5t281.5 57t281.5 -56.5t230 -152t153 -227t56.5 -275.5q0 -192 -96.5 -355.5t-262.5 -258.5t-362 -95q-147 0 -280 56.5t-229 151.5t-152.5 226.5t-56.5 274.5zM82 682q0 -190 94 -350.5t256.5 -254t355.5 -93.5 q145 0 276.5 55.5t226 149t150.5 222.5t56 271t-55.5 271.5t-150 223.5t-226.5 149.5t-277 55.5t-276.5 -55.5t-225.5 -149.5t-149 -223.5t-55 -271.5zM428 682q0 163 119 280t287 117q133 0 245 -78l-6 -10q-110 78 -239 78q-44 0 -74 -6v-760q30 -6 74 -6q132 0 239 78 l6 -10q-112 -78 -245 -78q-168 0 -287 116t-119 279z" />
<glyph unicode="&#xaa;" horiz-adv-x="727" d="M35 637v12h645v-12h-645zM35 1092q0 119 74 205.5t188 86.5q74 0 121 -47v29h262v-547h-262v29q-45 -45 -121 -45q-113 0 -187.5 81.5t-74.5 207.5zM47 1090q0 -119 71 -198t181 -79q33 0 66 14t53 37v455q-19 24 -52 39.5t-65 15.5q-112 0 -183 -84t-71 -200z" />
<glyph unicode="&#xab;" horiz-adv-x="1001" d="M106 473q0 50 22.5 83t74.5 77l327 278l-174 -438l174 -436l-327 276q-51 42 -74 76t-23 84zM467 473q0 50 23 84t73 76l326 278l-172 -438l172 -436l-326 276q-51 44 -73.5 77t-22.5 83z" />
<glyph unicode="&#xac;" d="M61 758v12h1106v-272h-12v260h-1094z" />
<glyph unicode="&#xad;" horiz-adv-x="643" d="M68 358v230h510v-230h-510z" />
<glyph unicode="&#xae;" horiz-adv-x="956" d="M70 971q0 169 120 288t289 119q168 0 288 -121t120 -290q0 -170 -120.5 -289t-291.5 -119q-168 0 -286.5 120.5t-118.5 291.5zM82 967q0 -166 114.5 -282t278.5 -116q165 0 282 118t117 284t-113.5 280.5t-279.5 114.5q-165 0 -282 -117t-117 -282zM311 743v451h191 q92 0 143 -42.5t51 -119.5q0 -70 -45.5 -111.5t-122.5 -46.5q36 -45 67.5 -70t84.5 -52l-4 -11q-58 27 -96 60.5t-78 91.5v-150h-191zM502 915q4 -7 18 -28q74 0 119 39.5t45 109.5q0 68 -48 107t-134 39v-267z" />
<glyph unicode="&#xaf;" horiz-adv-x="1034" d="M193 1180v196h649v-196h-649z" />
<glyph unicode="&#xb0;" horiz-adv-x="851" d="M70 1036q0 147 104 252t252 105q149 0 253.5 -105t104.5 -252t-104.5 -250.5t-253.5 -103.5t-252.5 103.5t-103.5 250.5zM82 1036q0 -142 100 -243t244 -101q143 0 244.5 101t101.5 243q0 143 -101 244.5t-245 101.5q-145 0 -244.5 -102.5t-99.5 -243.5z" />
<glyph unicode="&#xb1;" d="M61 213v12h1106v-12h-1106zM61 737v13h340v403h428v-403h338v-13h-338v-403h-428v403h-340z" />
<glyph unicode="&#xb2;" horiz-adv-x="763" d="M55 547l449 788q-80 37 -139 37q-121 0 -208.5 -83.5t-88.5 -211.5h-13q3 133 94.5 219t212.5 86q133 0 223.5 -90.5t90.5 -220.5q0 -37 -11 -75.5t-23.5 -64t-37.5 -69.5l-172 -303h221v-12h-598z" />
<glyph unicode="&#xb3;" horiz-adv-x="763" d="M66 815h12q0 -102 75 -182.5t185 -89.5v825q-70 -9 -124 -62.5t-67 -131.5h-12q17 94 83 151t155 57q97 0 166 -68t69 -165q0 -64 -33 -121q80 -89 80 -207q0 -120 -86.5 -205.5t-208.5 -85.5q-123 0 -207.5 86t-86.5 199z" />
<glyph unicode="&#xb4;" horiz-adv-x="1024" d="M303 1114l117 203q17 29 28.5 46.5t30 39t40 31.5t46.5 10q3 0 22.5 0.5t27 -0.5t23.5 -3.5t29.5 -9.5t28.5 -18q28 -22 46 -52.5t18 -57.5q0 -92 -48 -140.5t-122 -48.5h-287z" />
<glyph unicode="&#xb5;" d="M172 -336v1278h428v-962h29q92 0 173.5 37t141.5 106q59 68 83 145t24 183v491h12v-491q0 -108 -26 -189t-87 -149q-129 -144 -325 -144q-159 0 -285 102t-156 242v-649h-12z" />
<glyph unicode="&#xb6;" horiz-adv-x="856" d="M47 895q0 205 146.5 338t388.5 133h274v-12h-100v-1690h-13v1690h-149v-1690h-12v760q-125 3 -216.5 32t-166.5 95q-152 136 -152 344z" />
<glyph unicode="&#xb7;" d="M391 682q0 92 64.5 157.5t158.5 65.5t159 -65.5t65 -157.5t-66 -157.5t-158 -65.5t-157.5 65.5t-65.5 157.5z" />
<glyph unicode="&#xb8;" horiz-adv-x="1024" d="M371 -317l6 8q41 -35 96 -41v334q86 -4 133 -52.5t47 -121.5q0 -72 -49 -122t-119 -50q-56 0 -114 45z" />
<glyph unicode="&#xb9;" horiz-adv-x="763" d="M80 1163l465 236v-852h-326v674l-135 -68z" />
<glyph unicode="&#xba;" horiz-adv-x="724" d="M68 637v12h594v-12h-594zM68 1092q0 121 86.5 206.5t210.5 85.5t211.5 -86t87.5 -206t-87.5 -205.5t-211.5 -85.5t-210.5 85.5t-86.5 205.5zM371 813q119 3 199.5 83.5t80.5 195.5q0 114 -79.5 194t-200.5 86v-559z" />
<glyph unicode="&#xbb;" horiz-adv-x="1001" d="M111 37l174 436l-174 438l327 -278q52 -45 74.5 -78t22.5 -82t-22.5 -82t-74.5 -78zM471 37l172 436l-172 438l326 -278q51 -44 73.5 -77t22.5 -83t-22.5 -83t-73.5 -77z" />
<glyph unicode="&#xbc;" horiz-adv-x="1615" d="M80 1163l465 236v-852h-326v674l-135 -68zM444 0l676 1366h13l-676 -1366h-13zM834 207l657 649v-637h104v-12h-104v-207h-326v207h-331zM862 219h303v297z" />
<glyph unicode="&#xbd;" horiz-adv-x="1615" d="M80 1163l465 236v-852h-326v674l-135 -68zM444 0l676 1366h13l-676 -1366h-13zM887 0l448 791q-73 34 -139 34q-121 0 -208.5 -84t-88.5 -211h-12q3 134 93.5 220t211.5 86q132 0 223.5 -90.5t91.5 -221.5q0 -37 -11 -75t-23 -63t-37 -69l-174 -305h221v-12h-596z" />
<glyph unicode="&#xbe;" horiz-adv-x="1615" d="M66 815h12q0 -102 75 -182.5t185 -89.5v825q-70 -9 -124 -62.5t-67 -131.5h-12q17 94 83 151t155 57q97 0 166 -68t69 -165q0 -64 -33 -121q80 -89 80 -207q0 -120 -86.5 -205.5t-208.5 -85.5q-123 0 -207.5 86t-86.5 199zM465 0l674 1366h12l-674 -1366h-12zM854 207 l657 649v-637h105v-12h-105v-207h-325v207h-332zM883 219h303v297z" />
<glyph unicode="&#xbf;" horiz-adv-x="1073" d="M84 -10q0 83 35 168t92 141q49 48 117 77.5t123.5 38t116.5 22.5t94 34v-909q131 36 218.5 148.5t90.5 244.5h12q-1 -80 -35 -156t-92 -135.5t-143.5 -96t-182.5 -36.5q-116 0 -217.5 58t-165 164.5t-63.5 236.5zM311 737q0 102 72 175t176 73t176 -73t72 -175 q0 -103 -72.5 -175.5t-175.5 -72.5q-104 0 -176 72.5t-72 175.5z" />
<glyph unicode="&#xc0;" horiz-adv-x="1230" d="M-12 0l630 1419l633 -1419h-587l-119 272h-424l-121 -272h-12zM127 285h414l-203 475zM369 1706q0 26 17.5 57.5t45.5 53.5q15 11 28.5 18t29 9.5t24 3t26.5 0t23 -0.5q25 0 46.5 -10.5t40.5 -32.5t30.5 -39.5t28.5 -46.5l116 -200h-286q-73 0 -121.5 48t-48.5 140z" />
<glyph unicode="&#xc1;" horiz-adv-x="1230" d="M-12 0l630 1419l633 -1419h-587l-119 272h-424l-121 -272h-12zM127 285h414l-203 475zM406 1518l118 200q45 75 69 97q35 32 75 32q5 0 23 0.5t26.5 0t24 -3t29 -9.5t28.5 -18q28 -22 45.5 -52.5t17.5 -58.5q0 -92 -47.5 -140t-120.5 -48h-288z" />
<glyph unicode="&#xc2;" horiz-adv-x="1230" d="M-12 0l630 1419l633 -1419h-587l-119 272h-424l-121 -272h-12zM127 285h414l-203 475zM188 1485l240 289q29 35 45 52.5t40 37t48 27t55 7.5q57 0 95 -28t94 -96l239 -289l-428 164z" />
<glyph unicode="&#xc3;" horiz-adv-x="1230" d="M-12 0l630 1419l633 -1419h-587l-119 272h-424l-121 -272h-12zM127 285h414l-203 475zM285 1665q0 67 47 116.5t125 49.5q56 0 135.5 -30t150 -59.5t105.5 -29.5q72 0 72 55q0 9 -3.5 18.5t-6.5 14t-10.5 14.5t-8.5 11l10 8q49 -49 49 -115q0 -77 -55 -131.5t-137 -54.5 q-55 0 -115 19.5t-103 43t-89.5 43t-77.5 19.5q-27 0 -42.5 -11.5t-15.5 -31.5q0 -30 37 -72l-8 -10q-59 51 -59 133z" />
<glyph unicode="&#xc4;" horiz-adv-x="1230" d="M-12 0l630 1419l633 -1419h-587l-119 272h-424l-121 -272h-12zM127 285h414l-203 475zM231 1681q0 71 50.5 122.5t121.5 51.5q72 0 123.5 -51.5t51.5 -122.5t-51.5 -121.5t-123.5 -50.5t-122 50.5t-50 121.5zM655 1681q0 71 50.5 122.5t121.5 51.5q72 0 123 -51.5 t51 -122.5q0 -72 -51 -122t-123 -50t-122 50.5t-50 121.5z" />
<glyph unicode="&#xc5;" horiz-adv-x="1230" d="M-12 0l630 1419l633 -1419h-587l-119 272h-424l-121 -272h-12zM127 285h414l-203 475zM442 1681q0 71 51 122.5t123 51.5q71 0 121.5 -51.5t50.5 -122.5t-50 -121.5t-122 -50.5t-123 50.5t-51 121.5zM463 1681q0 -63 45 -107t108 -44t107.5 44t44.5 107q0 64 -44 109 t-108 45t-108.5 -45.5t-44.5 -108.5z" />
<glyph unicode="&#xc6;" horiz-adv-x="1783" d="M-12 0l1140 1366h639v-12h-372v-445h372v-12h-372v-885h391v-12h-942v526h-402l-440 -526h-14zM451 539h393v471z" />
<glyph unicode="&#xc7;" horiz-adv-x="1218" d="M66 682q0 192 96.5 356t262 259.5t359.5 95.5q231 0 433 -140l-9 -10q-196 139 -424 139q-77 0 -137 -14v-1370q63 -14 137 -14q234 0 424 139l9 -10q-180 -123 -383 -140q58 -19 90 -62t32 -101q0 -72 -49 -122t-121 -50q-56 0 -114 45l8 8q41 -35 94 -41v323 q-199 6 -362 103.5t-254.5 257.5t-91.5 348z" />
<glyph unicode="&#xc8;" horiz-adv-x="1067" d="M129 0v1366h922v-12h-371v-445h371v-12h-371v-885h389v-12h-940zM344 1706q0 26 18 57.5t46 53.5q15 11 28.5 18t29 9.5t24 3t26.5 0t23 -0.5q23 0 43 -9.5t37 -28t29 -36t27 -43.5q2 -4 3.5 -6.5t3.5 -5.5l119 -200h-289q-72 0 -120 48t-48 140z" />
<glyph unicode="&#xc9;" horiz-adv-x="1067" d="M129 0v1366h922v-12h-371v-445h371v-12h-371v-885h389v-12h-940zM381 1518l117 200q17 30 28.5 47t30 39t40 32.5t46.5 10.5q5 0 23 0.5t26.5 0t24 -3t29 -9.5t28.5 -18q28 -22 46 -53.5t18 -57.5q0 -92 -48.5 -140t-121.5 -48h-287z" />
<glyph unicode="&#xca;" horiz-adv-x="1067" d="M129 0v1366h922v-12h-371v-445h371v-12h-371v-885h389v-12h-940zM162 1485l239 289q56 68 94 96t95 28q31 0 55 -7.5t48 -27t40 -37t45 -52.5l242 -289l-430 164z" />
<glyph unicode="&#xcb;" horiz-adv-x="1067" d="M129 0v1366h922v-12h-371v-445h371v-12h-371v-885h389v-12h-940zM205 1681q0 71 51 122.5t123 51.5q71 0 121.5 -51.5t50.5 -122.5q0 -72 -50 -122t-122 -50t-123 50.5t-51 121.5zM629 1681q0 71 51 122.5t123 51.5q71 0 121.5 -51.5t50.5 -122.5t-50 -121.5t-122 -50.5 t-123 50.5t-51 121.5z" />
<glyph unicode="&#xcc;" horiz-adv-x="808" d="M129 0v1366h551v-1366h-551zM158 1706q0 28 17.5 58.5t45.5 52.5q15 11 28.5 18t29 9.5t24 3t26.5 0t23 -0.5q25 0 46.5 -10.5t40.5 -32.5t30.5 -39.5t28.5 -46.5l116 -200h-286q-74 0 -122 48t-48 140z" />
<glyph unicode="&#xcd;" horiz-adv-x="808" d="M129 0v1366h551v-1366h-551zM195 1518l116 200q17 29 28.5 46.5t30.5 39.5t40.5 32.5t46.5 10.5q5 0 23 0.5t26.5 0t24 -3t29 -9.5t28.5 -18q28 -22 45.5 -53.5t17.5 -57.5q0 -92 -48 -140t-120 -48h-288z" />
<glyph unicode="&#xce;" horiz-adv-x="808" d="M-25 1485l242 289q40 48 59.5 68.5t53 38t73.5 17.5q56 0 94.5 -28.5t94.5 -95.5l242 -289l-431 164zM129 0v1366h551v-1366h-551z" />
<glyph unicode="&#xcf;" horiz-adv-x="808" d="M18 1681q0 71 51.5 122.5t123.5 51.5q71 0 121.5 -51.5t50.5 -122.5q0 -72 -50 -122t-122 -50t-123.5 50.5t-51.5 121.5zM129 0v1366h551v-1366h-551zM442 1681q0 71 51 122.5t123 51.5q71 0 121.5 -51.5t50.5 -122.5t-50 -121.5t-122 -50.5t-123 50.5t-51 121.5z" />
<glyph unicode="&#xd0;" horiz-adv-x="1499" d="M0 719v12h129v635h576q166 0 307 -57t235 -152t146.5 -218.5t52.5 -256.5q0 -136 -58.5 -271t-156.5 -227q-196 -184 -526 -184h-576v719h-129zM680 12h20q330 0 523 181q97 93 154 224t57 265q0 131 -51.5 252t-143 214.5t-231 149.5t-303.5 56h-25v-623h379v-12h-379 v-707z" />
<glyph unicode="&#xd1;" horiz-adv-x="1226" d="M92 0v1419l1032 -735v698h13v-1405l-1033 738v-715h-12zM283 1665q0 66 47 116t125 50q56 0 135.5 -30t150 -59.5t105.5 -29.5q72 0 72 55q0 7 -2 13.5t-6 13.5t-6.5 11t-8 11t-6.5 9l8 8q51 -51 51 -115q0 -77 -54.5 -131.5t-137.5 -54.5q-55 0 -115 19.5t-103 43 t-89.5 43t-77.5 19.5q-27 0 -42.5 -11.5t-15.5 -31.5q0 -35 37 -72l-8 -10q-34 28 -46.5 58.5t-12.5 74.5z" />
<glyph unicode="&#xd2;" horiz-adv-x="1540" d="M59 682q0 143 56 274.5t151 227t227 152.5t277 57t277 -56.5t227 -152t151 -227t56 -275.5t-56.5 -275.5t-151.5 -226.5t-226.5 -151t-276.5 -56t-277 56.5t-227 151.5t-151 226.5t-56 274.5zM518 1706q0 26 18 57.5t46 53.5q15 11 28.5 18t29 9.5t24 3t26.5 0t23 -0.5 q25 0 46.5 -10.5t40 -32.5t30 -39t28.5 -47l117 -200h-289q-72 0 -120 48t-48 140zM643 -4q59 -12 127 -12q143 0 272 55t222.5 149t148.5 224t55 274q0 139 -54 267t-146.5 222t-222.5 150.5t-275 56.5q-49 0 -127 -12v-1374z" />
<glyph unicode="&#xd3;" horiz-adv-x="1540" d="M59 682q0 143 56 274.5t151 227t227 152.5t277 57t277 -56.5t227 -152t151 -227t56 -275.5t-56.5 -275.5t-151.5 -226.5t-226.5 -151t-276.5 -56t-277 56.5t-227 151.5t-151 226.5t-56 274.5zM555 1518l117 200q17 30 28.5 47t30 39t40 32.5t46.5 10.5q5 0 23 0.5t26.5 0 t24 -3t29 -9.5t28.5 -18q28 -22 46 -53.5t18 -57.5q0 -92 -48.5 -140t-121.5 -48h-287zM643 -4q59 -12 127 -12q143 0 272 55t222.5 149t148.5 224t55 274q0 139 -54 267t-146.5 222t-222.5 150.5t-275 56.5q-49 0 -127 -12v-1374z" />
<glyph unicode="&#xd4;" horiz-adv-x="1540" d="M59 682q0 143 56 274.5t151 227t227 152.5t277 57t277 -56.5t227 -152t151 -227t56 -275.5t-56.5 -275.5t-151.5 -226.5t-226.5 -151t-276.5 -56t-277 56.5t-227 151.5t-151 226.5t-56 274.5zM336 1485l242 289q39 47 58.5 67.5t53.5 38.5t74 18q31 0 55 -7.5t48 -27 t40 -37t45 -52.5l242 -289l-430 164zM643 -4q59 -12 127 -12q143 0 272 55t222.5 149t148.5 224t55 274q0 139 -54 267t-146.5 222t-222.5 150.5t-275 56.5q-49 0 -127 -12v-1374z" />
<glyph unicode="&#xd5;" horiz-adv-x="1540" d="M59 682q0 143 56 274.5t151 227t227 152.5t277 57t277 -56.5t227 -152t151 -227t56 -275.5t-56.5 -275.5t-151.5 -226.5t-226.5 -151t-276.5 -56t-277 56.5t-227 151.5t-151 226.5t-56 274.5zM432 1665q0 66 48 116t126 50q56 0 135.5 -30t150 -59.5t105.5 -29.5 q70 0 70 55q0 20 -27 58l9 8q49 -49 49 -115q0 -77 -55.5 -131.5t-137.5 -54.5q-55 0 -115 19.5t-102.5 43t-88.5 43t-77 19.5q-59 0 -59 -43q0 -5 0.5 -9.5t1.5 -8t3.5 -8t3.5 -8t4.5 -7.5t5 -6.5t5 -7t5 -6t5.5 -6t5 -5.5l-8 -10q-62 54 -62 133zM643 -4q59 -12 127 -12 q143 0 272 55t222.5 149t148.5 224t55 274q0 139 -54 267t-146.5 222t-222.5 150.5t-275 56.5q-49 0 -127 -12v-1374z" />
<glyph unicode="&#xd6;" horiz-adv-x="1540" d="M59 682q0 143 56 274.5t151 227t227 152.5t277 57t277 -56.5t227 -152t151 -227t56 -275.5t-56.5 -275.5t-151.5 -226.5t-226.5 -151t-276.5 -56t-277 56.5t-227 151.5t-151 226.5t-56 274.5zM381 1681q0 71 50.5 122.5t121.5 51.5q72 0 123 -51.5t51 -122.5 q0 -72 -51 -122t-123 -50t-122 50.5t-50 121.5zM643 -4q59 -12 127 -12q143 0 272 55t222.5 149t148.5 224t55 274q0 139 -54 267t-146.5 222t-222.5 150.5t-275 56.5q-49 0 -127 -12v-1374zM803 1681q0 71 51 122.5t123 51.5q71 0 121.5 -51.5t50.5 -122.5t-50 -121.5 t-122 -50.5t-123 50.5t-51 121.5z" />
<glyph unicode="&#xd7;" d="M219 295l387 387l-387 387l8 8l387 -387l387 387l9 -8l-387 -387l387 -387l-9 -6l-387 385l-387 -385z" />
<glyph unicode="&#xd8;" horiz-adv-x="1540" d="M59 682q0 143 56 274.5t151 227t227 152.5t277 57q160 0 309 -70l97 180l10 -4l-96 -182q178 -90 284.5 -262t106.5 -373q0 -144 -56.5 -275.5t-151.5 -226.5t-226.5 -151t-276.5 -56q-186 0 -348 90l-105 -196l-10 4l105 199q-171 104 -262 264.5t-91 347.5zM641 -4 q59 -12 129 -12q143 0 272 55t222.5 149t148.5 224t55 274q0 195 -103 362t-282 259l-442 -830v-481zM641 500l432 813q-138 69 -303 69q-51 0 -129 -12v-870z" />
<glyph unicode="&#xd9;" horiz-adv-x="1273" d="M92 578v788h551v-1382q110 0 210 45t177 127q80 85 109.5 179.5t29.5 229.5v801h13v-799q0 -138 -31 -235t-113 -185q-77 -84 -180.5 -129t-214.5 -45q-117 0 -223.5 45t-183.5 127q-82 86 -113 187.5t-31 245.5zM397 1706q0 26 18 57.5t46 53.5q15 11 28.5 18t29 9.5 t24 3t26.5 0t23 -0.5q23 0 43 -9.5t37 -28t29 -36t27 -43.5q2 -4 3.5 -6.5t3.5 -5.5l119 -200h-289q-72 0 -120 48t-48 140z" />
<glyph unicode="&#xda;" horiz-adv-x="1273" d="M92 578v788h551v-1382q110 0 210 45t177 127q80 85 109.5 179.5t29.5 229.5v801h13v-799q0 -138 -31 -235t-113 -185q-77 -84 -180.5 -129t-214.5 -45q-117 0 -223.5 45t-183.5 127q-82 86 -113 187.5t-31 245.5zM434 1518l117 200q17 30 28.5 47t30 39t40 32.5 t46.5 10.5q5 0 23 0.5t26.5 0t24 -3t29 -9.5t28.5 -18q28 -22 46 -53.5t18 -57.5q0 -92 -48.5 -140t-121.5 -48h-287z" />
<glyph unicode="&#xdb;" horiz-adv-x="1273" d="M92 578v788h551v-1382q110 0 210 45t177 127q80 85 109.5 179.5t29.5 229.5v801h13v-799q0 -138 -31 -235t-113 -185q-77 -84 -180.5 -129t-214.5 -45q-117 0 -223.5 45t-183.5 127q-82 86 -113 187.5t-31 245.5zM215 1485l240 289q29 35 45 52.5t40 37t48 27t55 7.5 t55 -7.5t48 -27t40 -37t45 -52.5l240 -289l-428 164z" />
<glyph unicode="&#xdc;" horiz-adv-x="1273" d="M92 578v788h551v-1382q110 0 210 45t177 127q80 85 109.5 179.5t29.5 229.5v801h13v-799q0 -138 -31 -235t-113 -185q-77 -84 -180.5 -129t-214.5 -45q-117 0 -223.5 45t-183.5 127q-82 86 -113 187.5t-31 245.5zM289 1681q0 71 51 122.5t123 51.5q71 0 121.5 -51.5 t50.5 -122.5q0 -72 -50 -122t-122 -50t-123 50.5t-51 121.5zM713 1681q0 71 51 122.5t123 51.5q71 0 121.5 -51.5t50.5 -122.5t-50 -121.5t-122 -50.5t-123 50.5t-51 121.5z" />
<glyph unicode="&#xdd;" horiz-adv-x="1196" d="M-27 1366h662l289 -512l280 512h15l-754 -1366h-12l161 295zM442 1518l117 200q17 29 28.5 46.5t30.5 39.5t40.5 32.5t46.5 10.5q5 0 23 0.5t26.5 0t24 -3t29 -9.5t28.5 -18q27 -21 44 -52.5t17 -58.5q0 -92 -48 -140t-120 -48h-287z" />
<glyph unicode="&#xde;" horiz-adv-x="1333" d="M129 0v1366h551v-184q137 0 228 -19t177 -82q91 -68 142 -169.5t51 -215.5q0 -126 -63 -234t-172.5 -171.5t-239.5 -63.5q-57 0 -123 17v-244h-551zM680 254q62 -16 123 -16q127 0 233.5 61.5t168 167t61.5 229.5q0 110 -49.5 210.5t-137.5 166.5q-84 62 -173.5 80 t-225.5 18v-917z" />
<glyph unicode="&#xdf;" horiz-adv-x="1087" d="M-8 741v13h106v63q0 113 18 193.5t77 163.5q72 101 180.5 158t228.5 57q133 0 227.5 -95t94.5 -227q0 -101 -56 -181.5t-159 -121.5q153 -27 243 -132t90 -245q0 -112 -54 -202t-139.5 -137.5t-182.5 -47.5q-69 0 -142 27v-363h-426v1077h-106zM293 1067 q0 -128 90 -218.5t219 -90.5t219 90.5t90 218.5t-90.5 219.5t-218.5 91.5t-218.5 -91.5t-90.5 -219.5zM524 39q72 -29 142 -29q94 0 177 46.5t135 134t52 196.5q0 141 -89.5 241.5t-252.5 127.5q-40 -8 -88 -8q-36 0 -76 8v-717z" />
<glyph unicode="&#xe0;" horiz-adv-x="1112" d="M47 344q0 145 106.5 250.5t252.5 105.5q116 0 217 -69v334q-50 8 -84 8q-158 0 -299 -101l-7 11q136 100 306 100q116 0 217.5 -48.5t173.5 -137.5q65 -80 92 -172.5t27 -214.5v-410h-426v49q-87 -72 -213 -72q-148 0 -255.5 107.5t-107.5 259.5zM59 344 q0 -148 103.5 -252t247.5 -104q117 0 213 75v555q-109 72 -217 72q-142 0 -244.5 -103t-102.5 -243zM311 1303q0 26 18 57t46 53q15 11 28.5 18t29.5 9.5t23.5 3.5t27 0.5t22.5 -0.5q25 0 46 -10t39.5 -32t29 -38t28.5 -47l119 -203h-289q-72 0 -120 48.5t-48 140.5z" />
<glyph unicode="&#xe1;" horiz-adv-x="1112" d="M47 344q0 145 106.5 250.5t252.5 105.5q116 0 217 -69v334q-50 8 -84 8q-158 0 -299 -101l-7 11q136 100 306 100q116 0 217.5 -48.5t173.5 -137.5q65 -80 92 -172.5t27 -214.5v-410h-426v49q-87 -72 -213 -72q-148 0 -255.5 107.5t-107.5 259.5zM59 344 q0 -148 103.5 -252t247.5 -104q117 0 213 75v555q-109 72 -217 72q-142 0 -244.5 -103t-102.5 -243zM348 1114l117 203q17 29 28.5 46.5t30 39t40 31.5t46.5 10q3 0 22.5 0.5t27 -0.5t23.5 -3.5t29.5 -9.5t28.5 -18q28 -22 46 -53t18 -57q0 -92 -49 -140.5t-121 -48.5h-287z " />
<glyph unicode="&#xe2;" horiz-adv-x="1112" d="M47 344q0 145 106.5 250.5t252.5 105.5q116 0 217 -69v334q-50 8 -84 8q-158 0 -299 -101l-7 11q136 100 306 100q116 0 217.5 -48.5t173.5 -137.5q65 -80 92 -172.5t27 -214.5v-410h-426v49q-87 -72 -213 -72q-148 0 -255.5 107.5t-107.5 259.5zM59 344 q0 -148 103.5 -252t247.5 -104q117 0 213 75v555q-109 72 -217 72q-142 0 -244.5 -103t-102.5 -243zM158 1067l225 295q51 67 87.5 95t86.5 28q51 0 88.5 -28.5t87.5 -94.5l225 -295l-401 168z" />
<glyph unicode="&#xe3;" horiz-adv-x="1112" d="M47 344q0 145 106.5 250.5t252.5 105.5q116 0 217 -69v334q-50 8 -84 8q-158 0 -299 -101l-7 11q136 100 306 100q116 0 217.5 -48.5t173.5 -137.5q65 -80 92 -172.5t27 -214.5v-410h-426v49q-87 -72 -213 -72q-148 0 -255.5 107.5t-107.5 259.5zM59 344 q0 -148 103.5 -252t247.5 -104q117 0 213 75v555q-109 72 -217 72q-142 0 -244.5 -103t-102.5 -243zM225 1262q0 67 48 116t126 49q56 0 135.5 -29.5t150.5 -59t106 -29.5q69 0 69 55q0 21 -26 57l8 9q49 -52 49 -115q0 -78 -55 -132.5t-138 -54.5q-55 0 -115 19.5t-103 43 t-89.5 43t-77.5 19.5q-57 0 -57 -43q0 -32 39 -71l-8 -9q-62 54 -62 132z" />
<glyph unicode="&#xe4;" horiz-adv-x="1112" d="M47 344q0 145 106.5 250.5t252.5 105.5q116 0 217 -69v334q-50 8 -84 8q-158 0 -299 -101l-7 11q136 100 306 100q116 0 217.5 -48.5t173.5 -137.5q65 -80 92 -172.5t27 -214.5v-410h-426v49q-87 -72 -213 -72q-148 0 -255.5 107.5t-107.5 259.5zM59 344 q0 -148 103.5 -252t247.5 -104q117 0 213 75v555q-109 72 -217 72q-142 0 -244.5 -103t-102.5 -243zM172 1278q0 71 50.5 122.5t123.5 51.5q71 0 121.5 -51.5t50.5 -122.5q0 -72 -50.5 -122t-121.5 -50q-72 0 -123 50.5t-51 121.5zM596 1278q0 71 51 122.5t123 51.5 q71 0 121.5 -51.5t50.5 -122.5q0 -72 -50 -122t-122 -50q-71 0 -122.5 50.5t-51.5 121.5z" />
<glyph unicode="&#xe5;" horiz-adv-x="1112" d="M47 344q0 145 106.5 250.5t252.5 105.5q116 0 217 -69v334q-50 8 -84 8q-158 0 -299 -101l-7 11q136 100 306 100q116 0 217.5 -48.5t173.5 -137.5q65 -80 92 -172.5t27 -214.5v-410h-426v49q-87 -72 -213 -72q-148 0 -255.5 107.5t-107.5 259.5zM59 344 q0 -148 103.5 -252t247.5 -104q117 0 213 75v555q-109 72 -217 72q-142 0 -244.5 -103t-102.5 -243zM385 1278q0 71 49.5 122.5t122.5 51.5q72 0 123 -51.5t51 -122.5q0 -72 -51 -122t-123 -50t-122 50.5t-50 121.5zM406 1278q0 -62 43.5 -107t107.5 -45q63 0 108.5 44.5 t45.5 107.5t-45 108.5t-109 45.5t-107.5 -46t-43.5 -108z" />
<glyph unicode="&#xe6;" horiz-adv-x="1845" d="M47 344q0 145 106.5 250.5t252.5 105.5q120 0 217 -69v325q-56 9 -84 9q-157 0 -299 -93l-7 11q140 92 306 92q110 0 210 -45.5t173 -130.5q76 86 176 131t202 45q141 0 259 -69t184 -186t65 -253h-508v-487q127 -2 235 54.5t181 164.5l8 -6q-74 -109 -184 -167.5 t-242 -58.5q-120 0 -249 74v-41h-426v49q-87 -72 -213 -72q-148 0 -255.5 107.5t-107.5 259.5zM59 344q0 -148 103.5 -252t247.5 -104q117 0 213 75v555q-109 72 -217 72q-142 0 -244.5 -103t-102.5 -243zM1300 479h496q-3 201 -147.5 343t-348.5 141v-484z" />
<glyph unicode="&#xe7;" horiz-adv-x="944" d="M55 479q0 100 41.5 192.5t110 158.5t160 105.5t188.5 39.5q219 0 367 -154l-9 -8q-141 150 -356 150v-983q122 3 216 48t173 138l8 -8q-141 -166 -350 -189q56 -15 89.5 -58t33.5 -101q0 -73 -49.5 -122.5t-120.5 -49.5q-57 0 -115 45l9 8q41 -35 94 -41v317 q-140 5 -252.5 74t-175 184.5t-62.5 253.5z" />
<glyph unicode="&#xe8;" horiz-adv-x="1101" d="M55 475q0 136 70 252t185 182t245 66q141 0 259.5 -69.5t185 -186t65.5 -252.5h-510v-487q127 -2 236 54.5t182 164.5l8 -6q-75 -110 -184.5 -168t-241.5 -58q-95 0 -186 39t-160 106t-111.5 162.5t-42.5 200.5zM305 1303q0 27 18 57.5t46 52.5q15 11 28.5 18t29.5 9.5 t23.5 3.5t27 0.5t22.5 -0.5q25 0 46 -10t39.5 -32t29 -38t28.5 -47l117 -203h-287q-72 0 -120 48.5t-48 140.5zM555 479h498q-1 98 -41 188t-106.5 155t-158 103.5t-192.5 37.5v-484z" />
<glyph unicode="&#xe9;" horiz-adv-x="1101" d="M55 475q0 136 70 252t185 182t245 66q141 0 259.5 -69.5t185 -186t65.5 -252.5h-510v-487q127 -2 236 54.5t182 164.5l8 -6q-75 -110 -184.5 -168t-241.5 -58q-95 0 -186 39t-160 106t-111.5 162.5t-42.5 200.5zM342 1114l117 203q18 31 28.5 47t29 38t39.5 32t46 10 q3 0 22.5 0.5t27 -0.5t23.5 -3.5t29.5 -9.5t28.5 -18q28 -22 46 -52.5t18 -57.5q0 -92 -47.5 -140.5t-120.5 -48.5h-287zM555 479h498q-1 98 -41 188t-106.5 155t-158 103.5t-192.5 37.5v-484z" />
<glyph unicode="&#xea;" horiz-adv-x="1101" d="M55 475q0 136 70 252t185 182t245 66q141 0 259.5 -69.5t185 -186t65.5 -252.5h-510v-487q127 -2 236 54.5t182 164.5l8 -6q-75 -110 -184.5 -168t-241.5 -58q-95 0 -186 39t-160 106t-111.5 162.5t-42.5 200.5zM152 1067l223 295q51 67 87.5 95t88.5 28q51 0 89 -28.5 t87 -94.5l223 -295l-399 168zM555 479h498q-1 98 -41 188t-106.5 155t-158 103.5t-192.5 37.5v-484z" />
<glyph unicode="&#xeb;" horiz-adv-x="1101" d="M55 475q0 136 70 252t185 182t245 66q141 0 259.5 -69.5t185 -186t65.5 -252.5h-510v-487q127 -2 236 54.5t182 164.5l8 -6q-75 -110 -184.5 -168t-241.5 -58q-95 0 -186 39t-160 106t-111.5 162.5t-42.5 200.5zM166 1278q0 71 50.5 122.5t123.5 51.5q71 0 121.5 -51.5 t50.5 -122.5q0 -72 -50 -122t-122 -50t-123 50.5t-51 121.5zM555 479h498q-1 98 -41 188t-106.5 155t-158 103.5t-192.5 37.5v-484zM590 1278q0 71 49.5 122.5t122.5 51.5q72 0 123 -51.5t51 -122.5t-51.5 -121.5t-122.5 -50.5q-72 0 -122 50.5t-50 121.5z" />
<glyph unicode="&#xec;" horiz-adv-x="575" d="M41 1303q0 26 17.5 57t45.5 53q15 11 28.5 18t30 9.5t24 3.5t27 0.5t22.5 -0.5q25 0 46.5 -10t40 -31.5t30 -39t28.5 -46.5l117 -203h-289q-72 0 -120 48.5t-48 140.5zM74 0v942h428v-942h-428z" />
<glyph unicode="&#xed;" horiz-adv-x="575" d="M74 0v942h428v-942h-428zM78 1114l117 203q17 29 28.5 46.5t30 39t40 31.5t46.5 10q3 0 22.5 0.5t27 -0.5t23.5 -3.5t29.5 -9.5t28.5 -18q28 -22 46 -52.5t18 -57.5q0 -92 -48 -140.5t-120 -48.5h-289z" />
<glyph unicode="&#xee;" horiz-adv-x="575" d="M-78 1067l205 295q45 66 79.5 94.5t80.5 28.5q47 0 82 -29t80 -94l204 -295l-366 168zM74 0v942h428v-942h-428z" />
<glyph unicode="&#xef;" horiz-adv-x="575" d="M-96 1278q0 71 50.5 122.5t123.5 51.5q71 0 121.5 -51.5t50.5 -122.5q0 -72 -50 -122t-122 -50t-123 50.5t-51 121.5zM74 0v942h428v-942h-428zM328 1278q0 71 49.5 122.5t122.5 51.5q72 0 123 -51.5t51 -122.5t-51.5 -121.5t-122.5 -50.5q-72 0 -122 50.5t-50 121.5z " />
<glyph unicode="&#xf0;" horiz-adv-x="1103" d="M55 471q0 136 66.5 252t182.5 184t253 68q179 0 324 -121l-277 367l-280 -162l-7 10l281 160l-125 164h14l121 -158l271 158l6 -11l-271 -155l330 -436q115 -151 115 -320q0 -136 -66.5 -252t-182 -184t-253.5 -68q-137 0 -253 68t-182.5 184t-66.5 252zM557 -20 q136 1 248.5 67t177 178.5t64.5 245.5q0 134 -65.5 247t-178 179t-246.5 66v-983z" />
<glyph unicode="&#xf1;" horiz-adv-x="1083" d="M74 0v942h428v-33q86 56 184 56q153 0 246 -101q51 -54 71.5 -121.5t20.5 -160.5v-582h-12v584q0 88 -13 137q-28 105 -113.5 169t-199.5 64q-93 0 -184 -59v-895h-428zM209 1262q0 67 48 116t126 49q56 0 135.5 -29.5t150 -59t105.5 -29.5q70 0 70 55q0 7 -1.5 13.5 t-5.5 13.5l-6 10.5t-7.5 11t-6.5 8.5l8 9q49 -52 49 -115q0 -78 -54.5 -132.5t-137.5 -54.5q-55 0 -115 19.5t-102.5 43t-88.5 43t-77 19.5q-59 0 -59 -43q0 -32 39 -71l-9 -9q-61 53 -61 132z" />
<glyph unicode="&#xf2;" horiz-adv-x="1103" d="M55 471q0 136 66.5 252t182.5 184t253 68t253 -68t182.5 -184t66.5 -252t-66.5 -252t-182 -184t-253.5 -68q-137 0 -253 68t-182.5 184t-66.5 252zM305 1303q0 27 18 57.5t46 52.5q15 11 28.5 18t29.5 9.5t23.5 3.5t27 0.5t22.5 -0.5q25 0 46.5 -10t40 -31.5t30 -39 t28.5 -46.5l117 -203h-287q-74 0 -122 48.5t-48 140.5zM557 -20q136 1 248.5 67t177 178.5t64.5 245.5q0 134 -65.5 247t-178 179t-246.5 66v-983z" />
<glyph unicode="&#xf3;" horiz-adv-x="1103" d="M55 471q0 136 66.5 252t182.5 184t253 68t253 -68t182.5 -184t66.5 -252t-66.5 -252t-182 -184t-253.5 -68q-137 0 -253 68t-182.5 184t-66.5 252zM342 1114l117 203q17 29 28.5 46.5t30 39t40 31.5t46.5 10q3 0 22.5 0.5t27 -0.5t23.5 -3.5t29.5 -9.5t28.5 -18 q28 -22 46 -52.5t18 -57.5q0 -92 -48 -140.5t-120 -48.5h-289zM557 -20q136 1 248.5 67t177 178.5t64.5 245.5q0 134 -65.5 247t-178 179t-246.5 66v-983z" />
<glyph unicode="&#xf4;" horiz-adv-x="1103" d="M55 471q0 136 66.5 252t182.5 184t253 68t253 -68t182.5 -184t66.5 -252t-66.5 -252t-182 -184t-253.5 -68q-137 0 -253 68t-182.5 184t-66.5 252zM152 1067l225 295q50 66 87.5 94.5t88.5 28.5t87.5 -28t86.5 -95l225 -295l-399 168zM557 -20q136 1 248.5 67t177 178.5 t64.5 245.5q0 134 -65.5 247t-178 179t-246.5 66v-983z" />
<glyph unicode="&#xf5;" horiz-adv-x="1103" d="M55 471q0 136 66.5 252t182.5 184t253 68t253 -68t182.5 -184t66.5 -252t-66.5 -252t-182 -184t-253.5 -68q-137 0 -253 68t-182.5 184t-66.5 252zM219 1262q0 67 48 116t126 49q56 0 135.5 -29.5t150 -59t105.5 -29.5q70 0 70 55q0 26 -27 57l9 9q49 -52 49 -115 q0 -77 -55 -132t-138 -55q-55 0 -115 19.5t-103 43t-89 43t-76 19.5q-27 0 -43 -11.5t-16 -31.5q0 -32 39 -71l-8 -9q-62 51 -62 132zM557 -20q136 1 248.5 67t177 178.5t64.5 245.5q0 134 -65.5 247t-178 179t-246.5 66v-983z" />
<glyph unicode="&#xf6;" horiz-adv-x="1103" d="M55 471q0 136 66.5 252t182.5 184t253 68t253 -68t182.5 -184t66.5 -252t-66.5 -252t-182 -184t-253.5 -68q-137 0 -253 68t-182.5 184t-66.5 252zM168 1278q0 71 50.5 122.5t121.5 51.5q72 0 123 -51.5t51 -122.5q0 -72 -51 -122t-123 -50q-71 0 -121.5 50t-50.5 122z M557 -20q136 1 248.5 67t177 178.5t64.5 245.5q0 134 -65.5 247t-178 179t-246.5 66v-983zM590 1278q0 71 50.5 122.5t123.5 51.5q71 0 121.5 -51.5t50.5 -122.5q0 -72 -50 -122t-122 -50t-123 50.5t-51 121.5z" />
<glyph unicode="&#xf7;" d="M61 678v12h1106v-12h-1106zM408 440q0 86 60 146.5t146 60.5q87 0 147 -60t60 -147q0 -86 -60 -147.5t-147 -61.5t-146.5 61.5t-59.5 147.5zM408 926q0 86 59.5 146.5t146.5 60.5t147 -61t60 -146t-60.5 -146t-146.5 -61t-146 60.5t-60 146.5z" />
<glyph unicode="&#xf8;" horiz-adv-x="1103" d="M55 471q0 136 66.5 252t182.5 184t253 68q119 0 236 -60l79 148l11 -4l-80 -150q117 -64 186.5 -182t69.5 -256q0 -209 -146.5 -356.5t-355.5 -147.5q-112 0 -235 60l-82 -152l-11 4l84 154q-118 64 -188 182.5t-70 255.5zM555 -20q137 1 250.5 67t177.5 178.5t64 245.5 q0 138 -71 254t-179 174l-242 -442v-477zM555 479l231 426q-107 58 -231 58v-484z" />
<glyph unicode="&#xf9;" horiz-adv-x="1013" d="M66 465v477h428v-962h28q92 0 174 37t142 106q59 68 82.5 145t23.5 183v491h12v-491q0 -108 -25.5 -189t-86.5 -149q-129 -144 -326 -144q-201 0 -340 154q-71 78 -91.5 152t-20.5 190zM262 1303q0 26 18 57t46 53q15 11 28.5 18t29.5 9.5t23.5 3.5t27 0.5t22.5 -0.5 q25 0 46 -10t39.5 -32t29 -38t28.5 -47l119 -203h-289q-72 0 -120 48.5t-48 140.5z" />
<glyph unicode="&#xfa;" horiz-adv-x="1013" d="M66 465v477h428v-962h28q92 0 174 37t142 106q59 68 82.5 145t23.5 183v491h12v-491q0 -108 -25.5 -189t-86.5 -149q-129 -144 -326 -144q-201 0 -340 154q-71 78 -91.5 152t-20.5 190zM299 1114l117 203q17 29 28.5 46.5t30 39t40 31.5t46.5 10q3 0 22.5 0.5t27 -0.5 t23.5 -3.5t29.5 -9.5t28.5 -18q28 -22 46 -53t18 -57q0 -92 -49 -140.5t-121 -48.5h-287z" />
<glyph unicode="&#xfb;" horiz-adv-x="1013" d="M66 465v477h428v-962h28q92 0 174 37t142 106q59 68 82.5 145t23.5 183v491h12v-491q0 -108 -25.5 -189t-86.5 -149q-129 -144 -326 -144q-201 0 -340 154q-71 78 -91.5 152t-20.5 190zM109 1067l225 295q51 67 87.5 95t86.5 28q51 0 88.5 -28.5t87.5 -94.5l225 -295 l-401 168z" />
<glyph unicode="&#xfc;" horiz-adv-x="1013" d="M66 465v477h428v-962h28q92 0 174 37t142 106q59 68 82.5 145t23.5 183v491h12v-491q0 -108 -25.5 -189t-86.5 -149q-129 -144 -326 -144q-201 0 -340 154q-71 78 -91.5 152t-20.5 190zM154 1278q0 71 50.5 122.5t123.5 51.5q71 0 121.5 -51.5t50.5 -122.5 q0 -72 -50.5 -122t-121.5 -50q-72 0 -123 50.5t-51 121.5zM578 1278q0 71 51 122.5t123 51.5q71 0 121.5 -51.5t50.5 -122.5q0 -72 -50 -122t-122 -50q-71 0 -122.5 50.5t-51.5 121.5z" />
<glyph unicode="&#xfd;" horiz-adv-x="935" d="M-39 942h498l270 -506l225 506h13l-570 -1278h-12l127 283zM293 1114l117 203q17 29 28.5 46.5t30 39t40 31.5t46.5 10q3 0 22.5 0.5t27 -0.5t23.5 -3.5t29.5 -9.5t28.5 -18q28 -22 46 -52.5t18 -57.5q0 -92 -47.5 -140.5t-120.5 -48.5h-289z" />
<glyph unicode="&#xfe;" horiz-adv-x="1077" d="M74 -442v1808h428v-424q120 0 220.5 -38t168 -103t104.5 -152.5t37 -187.5q0 -98 -42 -190t-116 -158q-72 -65 -155 -91t-197 -26h-20v-438h-428zM502 8h20q112 0 193 25t151 88q72 65 113 155t41 185q0 201 -143.5 336.5t-374.5 134.5v-924z" />
<glyph unicode="&#xff;" horiz-adv-x="935" d="M-39 942h498l270 -506l225 506h13l-570 -1278h-12l127 283zM111 1278q0 71 50.5 122.5t123.5 51.5q71 0 121.5 -51.5t50.5 -122.5q0 -72 -50.5 -122t-121.5 -50q-72 0 -123 50.5t-51 121.5zM535 1278q0 71 51 122.5t123 51.5q71 0 121.5 -51.5t50.5 -122.5 q0 -72 -50 -122t-122 -50q-71 0 -122.5 50.5t-51.5 121.5z" />
<glyph unicode="&#x152;" horiz-adv-x="2220" d="M59 682q0 143 56 274.5t151 227t227 152.5t277 57q298 0 512 -217v190h922v-12h-371v-445h371v-12h-371v-885h389v-12h-940v190q-214 -217 -512 -217q-145 0 -277 56.5t-227 151.5t-151 226.5t-56 274.5zM643 -4q59 -12 127 -12q143 0 272 55t222.5 149t148.5 224t55 274 q0 139 -54 267t-146.5 222t-222.5 150.5t-275 56.5q-49 0 -127 -12v-1374z" />
<glyph unicode="&#x153;" horiz-adv-x="1888" d="M55 471q0 136 66.5 252t182.5 184t253 68q115 0 215.5 -49.5t177.5 -143.5q82 95 182.5 144t208.5 49q106 0 201.5 -41t163 -109.5t107 -162t38.5 -195.5h-510v-487q127 -2 236 54.5t182 164.5l8 -6q-74 -109 -184 -167.5t-242 -58.5q-217 0 -391 195 q-157 -195 -393 -195q-137 0 -253 68t-182.5 184t-66.5 252zM557 -20q136 1 248.5 67t177 178.5t64.5 245.5q0 134 -65.5 247t-178 179t-246.5 66v-983zM1341 479h498q-3 200 -149 342.5t-349 141.5v-484z" />
<glyph unicode="&#x178;" horiz-adv-x="1196" d="M-27 1366h662l289 -512l280 512h15l-754 -1366h-12l161 295zM266 1638q0 71 51 122.5t123 51.5q71 0 121.5 -51.5t50.5 -122.5q0 -72 -50 -122t-122 -50t-123 50.5t-51 121.5zM690 1638q0 71 50.5 122.5t121.5 51.5q72 0 123 -51.5t51 -122.5t-51 -121.5t-123 -50.5 t-122 50.5t-50 121.5z" />
<glyph unicode="&#x2c6;" horiz-adv-x="1024" d="M113 1067l225 295q51 67 87.5 95t86.5 28q51 0 88.5 -28.5t87.5 -94.5l225 -295l-401 168z" />
<glyph unicode="&#x2dc;" horiz-adv-x="1024" d="M180 1262q0 67 48 116t126 49q56 0 135.5 -29.5t150 -59t105.5 -29.5q70 0 70 55q0 7 -1.5 13.5t-5.5 13.5l-6 10.5t-7.5 11t-6.5 8.5l9 9q49 -52 49 -115q0 -78 -55 -132.5t-138 -54.5q-55 0 -115 19.5t-103 43t-89.5 43t-77.5 19.5q-57 0 -57 -43q0 -32 39 -71l-8 -9 q-62 54 -62 132z" />
<glyph unicode="&#x2000;" horiz-adv-x="949" />
<glyph unicode="&#x2001;" horiz-adv-x="1898" />
<glyph unicode="&#x2002;" horiz-adv-x="949" />
<glyph unicode="&#x2003;" horiz-adv-x="1898" />
<glyph unicode="&#x2004;" horiz-adv-x="632" />
<glyph unicode="&#x2005;" horiz-adv-x="474" />
<glyph unicode="&#x2006;" horiz-adv-x="316" />
<glyph unicode="&#x2007;" horiz-adv-x="316" />
<glyph unicode="&#x2008;" horiz-adv-x="237" />
<glyph unicode="&#x2009;" horiz-adv-x="379" />
<glyph unicode="&#x200a;" horiz-adv-x="105" />
<glyph unicode="&#x2010;" horiz-adv-x="643" d="M68 358v230h510v-230h-510z" />
<glyph unicode="&#x2011;" horiz-adv-x="643" d="M68 358v230h510v-230h-510z" />
<glyph unicode="&#x2012;" horiz-adv-x="643" d="M68 358v230h510v-230h-510z" />
<glyph unicode="&#x2013;" horiz-adv-x="1034" d="M139 358v230h758v-230h-758z" />
<glyph unicode="&#x2014;" horiz-adv-x="1689" d="M139 358v230h1413v-230h-1413z" />
<glyph unicode="&#x2018;" horiz-adv-x="716" d="M111 946q0 185 128 316t316 131v-11q-162 0 -282 -103.5t-146 -272.5q36 76 96.5 115.5t134.5 39.5q110 0 179 -70t69 -178q0 -101 -72.5 -174t-175.5 -73q-105 0 -176 77.5t-71 202.5z" />
<glyph unicode="&#x2019;" horiz-adv-x="716" d="M111 1145q0 101 72 174.5t175 73.5q105 0 176.5 -78t71.5 -203q0 -121 -57.5 -223t-160 -162.5t-226.5 -60.5v12q162 0 283 104t147 273q-36 -76 -98 -117t-136 -41q-109 0 -178 70t-69 178z" />
<glyph unicode="&#x201a;" horiz-adv-x="716" d="M111 221q0 102 72.5 175t174.5 73q105 0 176.5 -78t71.5 -203q0 -121 -57.5 -223t-160 -162.5t-226.5 -60.5v12q166 2 285 105t145 272q-37 -76 -98 -117t-136 -41q-109 0 -178 70t-69 178z" />
<glyph unicode="&#x201c;" horiz-adv-x="1304" d="M111 946q0 185 128 316t316 131v-11q-162 0 -282 -103.5t-146 -272.5q36 76 96.5 115.5t134.5 39.5q110 0 179 -70t69 -178q0 -102 -72 -174.5t-176 -72.5q-105 0 -176 77.5t-71 202.5zM698 946q0 121 57.5 223.5t160.5 163t227 60.5v-11q-162 0 -283 -103.5t-147 -272.5 q36 75 97 115t136 40q110 0 179 -70t69 -178q0 -102 -72 -174.5t-176 -72.5q-106 0 -177 77t-71 203z" />
<glyph unicode="&#x201d;" horiz-adv-x="1304" d="M111 1145q0 101 72 174.5t175 73.5q105 0 176.5 -78t71.5 -203q0 -121 -57.5 -223t-160 -162.5t-226.5 -60.5v12q162 0 283 104t147 273q-36 -76 -98 -117t-136 -41q-109 0 -178 70t-69 178zM698 1145q0 101 72.5 174.5t175.5 73.5q105 0 176.5 -78t71.5 -203 q0 -121 -57.5 -223t-160 -162.5t-226.5 -60.5v12q162 0 282 103.5t146 273.5q-37 -76 -97.5 -117t-134.5 -41q-110 0 -179 70t-69 178z" />
<glyph unicode="&#x201e;" horiz-adv-x="1304" d="M111 221q0 102 72.5 175t174.5 73q105 0 176.5 -78t71.5 -203q0 -121 -57.5 -223t-160 -162.5t-226.5 -60.5v12q166 2 285 105t145 272q-37 -76 -98 -117t-136 -41q-109 0 -178 70t-69 178zM700 221q0 102 73 175t175 73q105 0 176.5 -78t71.5 -203q0 -121 -57.5 -223 t-160 -162.5t-226.5 -60.5v12q166 2 285 105t145 272q-37 -76 -98 -117t-136 -41q-110 0 -179 70t-69 178z" />
<glyph unicode="&#x2022;" horiz-adv-x="1024" d="M184 729q0 135 96 231.5t232 96.5q137 0 232.5 -96t95.5 -232q0 -137 -96 -233.5t-232 -96.5q-135 0 -231.5 97t-96.5 233z" />
<glyph unicode="&#x2026;" horiz-adv-x="2152" d="M111 221q0 102 72 175t175 73t175.5 -72.5t72.5 -175.5t-72.5 -175.5t-175.5 -72.5t-175 72.5t-72 175.5zM827 221q0 102 72 175t176 73q103 0 175.5 -72.5t72.5 -175.5t-72.5 -175.5t-175.5 -72.5t-175.5 72.5t-72.5 175.5zM1544 221q0 102 73 175t177 73 q103 0 175.5 -72.5t72.5 -175.5t-72.5 -175.5t-175.5 -72.5t-176.5 72.5t-73.5 175.5z" />
<glyph unicode="&#x202f;" horiz-adv-x="379" />
<glyph unicode="&#x2039;" horiz-adv-x="641" d="M106 473q0 49 22.5 82t74.5 78l327 278l-174 -438l174 -436l-327 276q-52 45 -74.5 78t-22.5 82z" />
<glyph unicode="&#x203a;" horiz-adv-x="641" d="M111 37l174 436l-174 438l327 -278q52 -45 74.5 -78t22.5 -82t-22.5 -82t-74.5 -78z" />
<glyph unicode="&#x205f;" horiz-adv-x="474" />
<glyph unicode="&#x20ac;" d="M23 604v12h106v146h-106v12h106v14q0 145 30.5 245t112.5 186q77 82 185 128t223 46q112 0 217 -46t178 -130l-8 -7q-76 83 -176 126.5t-211 43.5v-606h328v-12h-328v-146h328v-12h-328v-620q108 0 213 47.5t174 124.5l8 -9q-77 -84 -180.5 -129t-214.5 -45 q-117 0 -224.5 45t-183.5 127q-82 86 -112.5 187t-30.5 246v26h-106z" />
<glyph unicode="&#x2122;" horiz-adv-x="1499" d="M-2 1354v12h577v-12h-131v-754h-313v754h-133zM582 600l227 795l229 -475l234 475l221 -795h-342l-90 344l-182 -371l-189 367l-96 -340h-12z" />
<glyph unicode="&#x25fc;" horiz-adv-x="942" d="M0 0v942h942v-942h-942z" />
</font>
</defs>
</svg>
